SplineFontDB: 3.0
FontName: Chivo-Light
FullName: Chivo Light
FamilyName: Chivo
Weight: Light
Copyright: Copyright (c) 2011-2014 by Omnibus-Type (www.omnibus-type.com omnibus.type@gmail.com), with Reserved Font Name 'Chivo'
UComments: "Disclaimer+AAoA +AAoA-Omnibus-Type give no warranty in relation to this font, and you use this+AAoA-at your own risk.+AAoA +AAoA-Omnibus-Type shall not be liable for any direct, indirect, consequential, or incidental damages (including damages from loss of business profits, business interruption, loss of business information, and the like) arising out of the use of or inability to use the fonts.+AAoA +AAoA +AAoA-If you have further questions, please contact us:+AAoA-omnibus.type@gmail.com" 

StartChar: .notdef
Encoding: 65536 -1 0
Width: 500
Flags: MW
HStem: 0 50<80 420 80 500> 650 50<80 80 80 420>
VStem: 0 50<95 605 95 700> 450 50<95 605 605 605>
LayerCount: 2
Fore
SplineSet
500 700 m 1
 500 0 l 1
 0 0 l 1
 0 700 l 1
 500 700 l 1
80 650 m 1
 250 395 l 1
 420 650 l 1
 80 650 l 1
220 350 m 1
 50 605 l 1
 50 95 l 1
 220 350 l 1
450 605 m 1
 280 350 l 1
 450 95 l 1
 450 605 l 1
250 305 m 1
 80 50 l 1
 420 50 l 1
 250 305 l 1
EndSplineSet
EndChar

StartChar: A
Encoding: 65 65 1
Width: 652
GlyphClass: 2
Flags: MW
HStem: 0 21G<4 60 4 4 563 563 563 622> 170 49<130 472 150 472 150 492> 612 74<309 313 309 309> 666 20G<288 338 338 338>
VStem: 4 618<0 0>
LayerCount: 2
Fore
SplineSet
130 170 m 1xd8
 60 0 l 1
 4 0 l 1
 288 686 l 1
 338 686 l 1
 622 0 l 1
 563 0 l 1
 492 170 l 1
 130 170 l 1xd8
472 219 m 1
 313 612 l 1
 309 612 l 1xe8
 150 219 l 1
 472 219 l 1
EndSplineSet
Substitution2: "Single Substitution lookup 5 subtable" ordfeminine
Substitution2: "'aalt' Access All Alternates lookup 0 subtable" ordfeminine
Position2: "'cpsp' Capital Spacing lookup 0 subtable" dx=5 dy=0 dh=10 dv=0
EndChar

StartChar: Aacute
Encoding: 193 193 2
Width: 652
GlyphClass: 2
Flags: MW
HStem: 0 21G<4 60 4 4 563 563 563 622> 170 49<130 472 150 472 150 492> 612 74<309 313 309 309> 666 20G<288 338 338 338> 750 145<297 458 297 458>
VStem: 4 618<0 0>
LayerCount: 2
Fore
SplineSet
393 895 m 1xdc
 458 895 l 1
 458 892 l 1
 347 750 l 1
 297 750 l 1
 393 895 l 1xdc
130 170 m 1
 60 0 l 1
 4 0 l 1
 288 686 l 1
 338 686 l 1
 622 0 l 1
 563 0 l 1
 492 170 l 1
 130 170 l 1
472 219 m 1
 313 612 l 1
 309 612 l 1xec
 150 219 l 1
 472 219 l 1
EndSplineSet
Position2: "'cpsp' Capital Spacing lookup 0 subtable" dx=5 dy=0 dh=10 dv=0
EndChar

StartChar: Abreve
Encoding: 258 258 3
Width: 652
GlyphClass: 2
Flags: MW
HStem: 0 21G<4 60 4 4 563 563 563 622> 170 49<130 472 150 472 150 492> 612 74<309 313 309 309> 666 20G<288 338 338 338> 788 49<279.5 344.5 279.5 365.5>
VStem: 4 618<0 0>
LayerCount: 2
Fore
SplineSet
312 788 m 0xdc
 206 788 120 855 120 912 c 1
 176 912 l 1
 192 862 247 837 312 837 c 0
 377 837 432 862 449 912 c 1
 505 912 l 1
 505 855 419 788 312 788 c 0xdc
130 170 m 1
 60 0 l 1
 4 0 l 1
 288 686 l 1
 338 686 l 1
 622 0 l 1
 563 0 l 1
 492 170 l 1
 130 170 l 1
472 219 m 1
 313 612 l 1
 309 612 l 1xec
 150 219 l 1
 472 219 l 1
EndSplineSet
EndChar

StartChar: Acircumflex
Encoding: 194 194 4
Width: 652
GlyphClass: 2
Flags: MW
HStem: 0 21G<4 60 4 4 563 563 563 622> 170 49<130 472 150 472 150 492> 612 74<309 313 309 309> 666 20G<288 338 338 338> 750 145<151 343 151 343 285 477 285 417>
VStem: 4 618<0 0>
LayerCount: 2
Fore
SplineSet
343 895 m 1xdc
 477 750 l 1
 417 750 l 1
 314 847 l 1
 211 750 l 1
 151 750 l 1
 285 895 l 1
 343 895 l 1xdc
130 170 m 1
 60 0 l 1
 4 0 l 1
 288 686 l 1
 338 686 l 1
 622 0 l 1
 563 0 l 1
 492 170 l 1
 130 170 l 1
472 219 m 1
 313 612 l 1
 309 612 l 1xec
 150 219 l 1
 472 219 l 1
EndSplineSet
Position2: "'cpsp' Capital Spacing lookup 0 subtable" dx=5 dy=0 dh=10 dv=0
EndChar

StartChar: Adieresis
Encoding: 196 196 5
Width: 652
GlyphClass: 2
Flags: MW
HStem: 0 21G<4 60 4 4 563 563 563 622> 170 49<130 472 150 472 150 492> 612 74<309 313 309 309> 666 20G<288 338 338 338> 750 69<194 259 194 259 370 435>
VStem: 194 65<750 819 750 819> 370 65<750 819 750 819>
LayerCount: 2
Fore
SplineSet
259 819 m 1xde
 259 750 l 1
 194 750 l 1
 194 819 l 1
 259 819 l 1xde
435 819 m 1
 435 750 l 1
 370 750 l 1
 370 819 l 1
 435 819 l 1
130 170 m 1
 60 0 l 1
 4 0 l 1
 288 686 l 1
 338 686 l 1
 622 0 l 1
 563 0 l 1
 492 170 l 1
 130 170 l 1
472 219 m 1
 313 612 l 1
 309 612 l 1xee
 150 219 l 1
 472 219 l 1
EndSplineSet
Position2: "'cpsp' Capital Spacing lookup 0 subtable" dx=5 dy=0 dh=10 dv=0
EndChar

StartChar: Agrave
Encoding: 192 192 6
Width: 652
GlyphClass: 2
Flags: MW
HStem: 0 21G<4 60 4 4 563 563 563 622> 170 49<130 472 150 472 150 492> 612 74<309 313 309 309> 666 20G<288 338 338 338> 750 145<189 350 189 300>
VStem: 4 618<0 0>
LayerCount: 2
Fore
SplineSet
189 892 m 1xdc
 189 895 l 1
 254 895 l 1
 350 750 l 1
 300 750 l 1
 189 892 l 1xdc
130 170 m 1
 60 0 l 1
 4 0 l 1
 288 686 l 1
 338 686 l 1
 622 0 l 1
 563 0 l 1
 492 170 l 1
 130 170 l 1
472 219 m 1
 313 612 l 1
 309 612 l 1xec
 150 219 l 1
 472 219 l 1
EndSplineSet
Position2: "'cpsp' Capital Spacing lookup 0 subtable" dx=5 dy=0 dh=10 dv=0
EndChar

StartChar: Amacron
Encoding: 256 256 7
Width: 652
GlyphClass: 2
Flags: MW
HStem: 0 21G<4 60 4 4 563 563 563 622> 170 49<130 472 150 472 150 492> 612 74<309 313 309 309> 666 20G<288 338 338 338> 867 44<154 472 154 472>
VStem: 4 618<0 0>
LayerCount: 2
Fore
SplineSet
154 911 m 1xdc
 472 911 l 1
 472 867 l 1
 154 867 l 1
 154 911 l 1xdc
130 170 m 1
 60 0 l 1
 4 0 l 1
 288 686 l 1
 338 686 l 1
 622 0 l 1
 563 0 l 1
 492 170 l 1
 130 170 l 1
472 219 m 1
 313 612 l 1
 309 612 l 1xec
 150 219 l 1
 472 219 l 1
EndSplineSet
EndChar

StartChar: Aogonek
Encoding: 260 260 8
Width: 652
GlyphClass: 2
Flags: MW
HStem: -143 43<601.5 622.5> 0 21G<4 60 4 4 563 565 563 563 615 615 615 622> 170 49<150 472 150 492 130 472> 612 74<309 313 309 309> 666 20G<288 338 338 338>
VStem: 511 57<-75.5 -55>
LayerCount: 2
Fore
SplineSet
679 -86 m 1xec
 692 -119 l 1
 666 -135 637 -143 608 -143 c 0
 562 -143 511 -126 511 -71 c 0
 511 -39 541 -16 565 0 c 1
 563 0 l 1
 492 170 l 1
 130 170 l 1
 60 0 l 1
 4 0 l 1
 288 686 l 1
 338 686 l 1
 622 0 l 1
 615 0 l 1
 612 -2 l 2
 592 -16 568 -33 568 -60 c 0
 568 -91 591 -100 612 -100 c 0
 636 -100 658 -93 679 -86 c 1xec
472 219 m 1
 313 612 l 1
 309 612 l 1xf4
 150 219 l 1
 472 219 l 1
EndSplineSet
EndChar

StartChar: Aring
Encoding: 197 197 9
Width: 652
GlyphClass: 2
Flags: MW
HStem: 0 21G<4 60 4 4 563 563 563 622> 170 49<130 472 150 472 150 492> 612 74<309 313 309 309> 666 20G<288 338 338 338> 720 36<296.5 332 296.5 342> 885 36<296 331.5>
VStem: 213 36<802 838 802 848> 379 36<802.5 838.5>
LayerCount: 2
Fore
SplineSet
415 820 m 0xdf
 415 765 370 720 314 720 c 0
 259 720 213 764 213 820 c 0
 213 876 258 921 314 921 c 0
 369 921 415 877 415 820 c 0xdf
379 820 m 0
 379 857 349 885 314 885 c 0
 278 885 249 856 249 820 c 0
 249 784 279 756 314 756 c 0
 350 756 379 785 379 820 c 0
130 170 m 1
 60 0 l 1
 4 0 l 1
 288 686 l 1
 338 686 l 1
 622 0 l 1
 563 0 l 1
 492 170 l 1
 130 170 l 1
472 219 m 1
 313 612 l 1
 309 612 l 1xef
 150 219 l 1
 472 219 l 1
EndSplineSet
Position2: "'cpsp' Capital Spacing lookup 0 subtable" dx=5 dy=0 dh=10 dv=0
EndChar

StartChar: Atilde
Encoding: 195 195 10
Width: 652
GlyphClass: 2
Flags: MW
HStem: 0 21G<4 60 4 4 563 563 563 622> 170 49<130 472 150 472 150 492> 612 74<309 313 309 309> 666 20G<288 338 338 338> 750 50<373 416.5 373 432.5> 782 50<209.5 253>
VStem: 4 618<0 0>
LayerCount: 2
Fore
SplineSet
457 832 m 1xda
 494 832 l 1
 494 800 472 750 393 750 c 0xda
 329 750 280 782 226 782 c 0
 193 782 176 773 169 750 c 1
 132 750 l 1
 132 782 155 832 233 832 c 0xd6
 297 832 346 800 400 800 c 0
 433 800 450 809 457 832 c 1xda
130 170 m 1
 60 0 l 1
 4 0 l 1
 288 686 l 1
 338 686 l 1
 622 0 l 1
 563 0 l 1
 492 170 l 1
 130 170 l 1
472 219 m 1
 313 612 l 1
 309 612 l 1xea
 150 219 l 1
 472 219 l 1
EndSplineSet
Position2: "'cpsp' Capital Spacing lookup 0 subtable" dx=5 dy=0 dh=10 dv=0
EndChar

StartChar: AE
Encoding: 198 198 11
Width: 983
GlyphClass: 2
Flags: MW
HStem: 0 48<564 904 608 904 608 913> 170 49<190 504 190 517 163 504> 326 48<532 852 532 532> 638 48<447 891 447 447>
VStem: 7 906<0 0>
LayerCount: 2
Fore
SplineSet
517 170 m 1
 163 170 l 1
 69 0 l 1
 7 0 l 1
 388 686 l 1
 903 686 l 1
 891 638 l 1
 447 638 l 1
 519 374 l 1
 852 374 l 1
 852 326 l 1
 532 326 l 1
 608 48 l 1
 904 48 l 1
 913 0 l 1
 564 0 l 1
 517 170 l 1
504 219 m 1
 401 608 l 1
 398 607 l 1
 190 219 l 1
 504 219 l 1
EndSplineSet
Position2: "'cpsp' Capital Spacing lookup 0 subtable" dx=5 dy=0 dh=10 dv=0
EndChar

StartChar: B
Encoding: 66 66 12
Width: 651
GlyphClass: 2
Flags: MW
HStem: 0 48<146 366 366 372> 326 48<146 356 356 366 146 356> 638 48<146 356 146 146>
VStem: 92 54<48 48 48 326 374 638> 491 55<468.5 543.5> 508 54<147 225>
LayerCount: 2
Fore
SplineSet
92 686 m 1xf4
 366 686 l 2
 465 686 546 611 546 518 c 0xf8
 546 416 478 372 425 359 c 1
 425 353 l 1
 461 348 562 317 562 183 c 0
 562 82 477 0 372 0 c 2
 92 0 l 1
 92 686 l 1xf4
146 374 m 1
 356 374 l 2
 431 374 491 431 491 506 c 0
 491 581 431 638 356 638 c 2
 146 638 l 1
 146 374 l 1
146 48 m 1
 366 48 l 2
 444 48 508 108 508 186 c 0xf4
 508 264 444 326 366 326 c 2
 146 326 l 1
 146 48 l 1
EndSplineSet
Position2: "'cpsp' Capital Spacing lookup 0 subtable" dx=5 dy=0 dh=10 dv=0
EndChar

StartChar: C
Encoding: 67 67 13
Width: 663
GlyphClass: 2
Flags: MW
HStem: -10 48<261.5 372.5 261.5 386> 648 48<261.5 372.5>
VStem: 62 54<330 356 356 368 204.5 493.5> 521 53<166 251 434 520>
AnchorPoint: "Bottom" 332 0 basechar 0
LayerCount: 2
Fore
SplineSet
521 251 m 1
 574 251 l 1
 574 48 452 -10 320 -10 c 0
 173 -10 62 55 62 330 c 2
 62 356 l 2
 62 631 173 696 320 696 c 0
 452 696 574 642 574 434 c 1
 521 434 l 1
 521 606 425 648 320 648 c 0
 203 648 116 595 116 368 c 2
 116 318 l 2
 116 91 203 38 320 38 c 0
 425 38 521 81 521 251 c 1
EndSplineSet
Position2: "'cpsp' Capital Spacing lookup 0 subtable" dx=5 dy=0 dh=10 dv=0
EndChar

StartChar: Cacute
Encoding: 262 262 14
Width: 663
GlyphClass: 2
Flags: MW
HStem: -10 48<261.5 372.5 261.5 386> 648 48<261.5 372.5> 750 145<301 462 301 462>
VStem: 62 54<330 356 356 368 204.5 493.5> 521 53<166 251 434 520>
AnchorPoint: "Bottom" 332 0 basechar 0
LayerCount: 2
Fore
SplineSet
397 895 m 1
 462 895 l 1
 462 892 l 1
 351 750 l 1
 301 750 l 1
 397 895 l 1
521 251 m 1
 574 251 l 1
 574 48 452 -10 320 -10 c 0
 173 -10 62 55 62 330 c 2
 62 356 l 2
 62 631 173 696 320 696 c 0
 452 696 574 642 574 434 c 1
 521 434 l 1
 521 606 425 648 320 648 c 0
 203 648 116 595 116 368 c 2
 116 318 l 2
 116 91 203 38 320 38 c 0
 425 38 521 81 521 251 c 1
EndSplineSet
EndChar

StartChar: Ccaron
Encoding: 268 268 15
Width: 663
GlyphClass: 2
Flags: MW
HStem: -10 48<261.5 372.5 261.5 386> 648 48<261.5 372.5> 750 145<169 361 169 303>
VStem: 62 54<330 356 356 368 204.5 493.5> 521 53<166 251 434 520>
AnchorPoint: "Bottom" 332 0 basechar 0
LayerCount: 2
Fore
SplineSet
229 895 m 1
 332 798 l 1
 435 895 l 1
 495 895 l 1
 361 750 l 1
 303 750 l 1
 169 895 l 1
 229 895 l 1
521 251 m 1
 574 251 l 1
 574 48 452 -10 320 -10 c 0
 173 -10 62 55 62 330 c 2
 62 356 l 2
 62 631 173 696 320 696 c 0
 452 696 574 642 574 434 c 1
 521 434 l 1
 521 606 425 648 320 648 c 0
 203 648 116 595 116 368 c 2
 116 318 l 2
 116 91 203 38 320 38 c 0
 425 38 521 81 521 251 c 1
EndSplineSet
EndChar

StartChar: Ccedilla
Encoding: 199 199 16
Width: 663
GlyphClass: 2
Flags: MW
HStem: -197 46<286.5 308.5 273.5 322> -184 21G<221 221> -51 34<286 308 286 311> -10 48<261.5 372.5 261.5 386> 648 48<261.5 372.5>
VStem: 62 54<330 356 356 368 204.5 493.5> 366 51<-118.5 -81.5> 521 53<166 251 434 520>
LayerCount: 2
Fore
SplineSet
521 251 m 1x9f
 574 251 l 1
 574 48 452 -10 320 -10 c 0
 173 -10 62 55 62 330 c 2
 62 356 l 2
 62 631 173 696 320 696 c 0
 452 696 574 642 574 434 c 1
 521 434 l 1
 521 606 425 648 320 648 c 0
 203 648 116 595 116 368 c 2
 116 318 l 2
 116 91 203 38 320 38 c 0
 425 38 521 81 521 251 c 1x9f
221 -184 m 1x5f
 221 -138 l 1
 234 -145 257 -151 290 -151 c 0
 327 -151 366 -140 366 -97 c 0
 366 -66 335 -51 308 -51 c 2
 286 -51 l 1
 286 -17 l 1
 311 -17 l 2
 365 -17 417 -37 417 -106 c 0
 417 -179 345 -197 299 -197 c 0xaf
 274 -197 245 -193 221 -184 c 1x5f
EndSplineSet
Position2: "'cpsp' Capital Spacing lookup 0 subtable" dx=5 dy=0 dh=10 dv=0
EndChar

StartChar: D
Encoding: 68 68 17
Width: 675
GlyphClass: 2
Flags: MW
HStem: 0 48<146 312 146 312> 638 48<146 312 146 146>
VStem: 92 54<48 48 48 638> 524 54<322 331 331 356 202.5 365 202.5 471>
LayerCount: 2
Fore
SplineSet
92 686 m 1
 312 686 l 2
 459 686 578 615 578 356 c 2
 578 331 l 2
 578 74 459 0 312 0 c 2
 92 0 l 1
 92 686 l 1
146 48 m 1
 312 48 l 2
 429 48 524 104 524 322 c 2
 524 365 l 2
 524 577 429 638 312 638 c 2
 146 638 l 1
 146 48 l 1
EndSplineSet
Position2: "'cpsp' Capital Spacing lookup 0 subtable" dx=5 dy=0 dh=10 dv=0
EndChar

StartChar: Eth
Encoding: 208 208 18
Width: 681
GlyphClass: 2
Flags: MW
HStem: 0 48<159 325 159 325> 319 48<5 105 5 105 159 331> 638 48<159 325 159 159>
VStem: 105 54<48 48 48 319 367 638> 537 54<322 331 331 356 202.5 365 202.5 471>
LayerCount: 2
Fore
SplineSet
105 367 m 1
 105 686 l 1
 325 686 l 2
 472 686 591 615 591 356 c 2
 591 331 l 2
 591 74 472 0 325 0 c 2
 105 0 l 1
 105 319 l 1
 5 319 l 1
 5 367 l 1
 105 367 l 1
159 48 m 1
 325 48 l 2
 442 48 537 104 537 322 c 2
 537 365 l 2
 537 577 442 638 325 638 c 2
 159 638 l 1
 159 367 l 1
 331 367 l 1
 331 319 l 1
 159 319 l 1
 159 48 l 1
EndSplineSet
Position2: "'cpsp' Capital Spacing lookup 0 subtable" dx=5 dy=0 dh=10 dv=0
EndChar

StartChar: Dcaron
Encoding: 270 270 19
Width: 675
GlyphClass: 2
Flags: MW
HStem: 0 48<146 312 146 312> 638 48<146 312 146 146> 750 145<125 317 125 259>
VStem: 92 54<48 48 48 638> 524 54<322 331 331 356 202.5 365 202.5 471>
LayerCount: 2
Fore
SplineSet
185 895 m 1
 288 798 l 1
 391 895 l 1
 451 895 l 1
 317 750 l 1
 259 750 l 1
 125 895 l 1
 185 895 l 1
92 686 m 1
 312 686 l 2
 459 686 578 615 578 356 c 2
 578 331 l 2
 578 74 459 0 312 0 c 2
 92 0 l 1
 92 686 l 1
146 48 m 1
 312 48 l 2
 429 48 524 104 524 322 c 2
 524 365 l 2
 524 577 429 638 312 638 c 2
 146 638 l 1
 146 48 l 1
EndSplineSet
EndChar

StartChar: Dcroat
Encoding: 272 272 20
Width: 681
GlyphClass: 2
Flags: MW
HStem: 0 48<159 325 159 325> 319 48<5 105 5 105 159 331> 638 48<159 325 159 159>
VStem: 105 54<48 48 48 319 367 638> 537 54<322 331 331 356 202.5 365 202.5 471>
LayerCount: 2
Fore
SplineSet
105 367 m 1
 105 686 l 1
 325 686 l 2
 472 686 591 615 591 356 c 2
 591 331 l 2
 591 74 472 0 325 0 c 2
 105 0 l 1
 105 319 l 1
 5 319 l 1
 5 367 l 1
 105 367 l 1
159 48 m 1
 325 48 l 2
 442 48 537 104 537 322 c 2
 537 365 l 2
 537 577 442 638 325 638 c 2
 159 638 l 1
 159 367 l 1
 331 367 l 1
 331 319 l 1
 159 319 l 1
 159 48 l 1
EndSplineSet
EndChar

StartChar: E
Encoding: 69 69 21
Width: 593
GlyphClass: 2
Flags: MW
HStem: 0 48<146 515 146 526> 326 48<146 465 146 465> 638 48<146 506 146 146>
VStem: 92 54<48 326 374 638>
AnchorPoint: "Bottom" 297 0 basechar 0
LayerCount: 2
Fore
SplineSet
92 686 m 1
 516 686 l 1
 506 638 l 1
 146 638 l 1
 146 374 l 1
 465 374 l 1
 465 326 l 1
 146 326 l 1
 146 48 l 1
 515 48 l 1
 526 0 l 1
 92 0 l 1
 92 686 l 1
EndSplineSet
Position2: "'cpsp' Capital Spacing lookup 0 subtable" dx=5 dy=0 dh=10 dv=0
EndChar

StartChar: Eacute
Encoding: 201 201 22
Width: 593
GlyphClass: 2
Flags: MW
HStem: 0 48<146 515 146 526> 326 48<146 465 146 465> 638 48<146 506 146 146> 750 145<283 444 283 444>
VStem: 92 54<48 326 374 638>
LayerCount: 2
Fore
SplineSet
379 895 m 1
 444 895 l 1
 444 892 l 1
 333 750 l 1
 283 750 l 1
 379 895 l 1
92 686 m 1
 516 686 l 1
 506 638 l 1
 146 638 l 1
 146 374 l 1
 465 374 l 1
 465 326 l 1
 146 326 l 1
 146 48 l 1
 515 48 l 1
 526 0 l 1
 92 0 l 1
 92 686 l 1
EndSplineSet
Position2: "'cpsp' Capital Spacing lookup 0 subtable" dx=5 dy=0 dh=10 dv=0
EndChar

StartChar: Ecaron
Encoding: 282 282 23
Width: 593
GlyphClass: 2
Flags: MW
HStem: 0 48<146 515 146 526> 326 48<146 465 146 465> 638 48<146 506 146 146> 750 145<134 326 134 268>
VStem: 92 54<48 326 374 638>
AnchorPoint: "Bottom" 297 0 basechar 0
LayerCount: 2
Fore
SplineSet
194 895 m 1
 297 798 l 1
 400 895 l 1
 460 895 l 1
 326 750 l 1
 268 750 l 1
 134 895 l 1
 194 895 l 1
92 686 m 1
 516 686 l 1
 506 638 l 1
 146 638 l 1
 146 374 l 1
 465 374 l 1
 465 326 l 1
 146 326 l 1
 146 48 l 1
 515 48 l 1
 526 0 l 1
 92 0 l 1
 92 686 l 1
EndSplineSet
EndChar

StartChar: Ecircumflex
Encoding: 202 202 24
Width: 593
GlyphClass: 2
Flags: MW
HStem: 0 48<146 515 146 526> 326 48<146 465 146 465> 638 48<146 506 146 146> 750 145<144 336 144 336 278 470 278 410>
VStem: 92 54<48 326 374 638>
LayerCount: 2
Fore
SplineSet
336 895 m 1
 470 750 l 1
 410 750 l 1
 307 847 l 1
 204 750 l 1
 144 750 l 1
 278 895 l 1
 336 895 l 1
92 686 m 1
 516 686 l 1
 506 638 l 1
 146 638 l 1
 146 374 l 1
 465 374 l 1
 465 326 l 1
 146 326 l 1
 146 48 l 1
 515 48 l 1
 526 0 l 1
 92 0 l 1
 92 686 l 1
EndSplineSet
Position2: "'cpsp' Capital Spacing lookup 0 subtable" dx=5 dy=0 dh=10 dv=0
EndChar

StartChar: Edieresis
Encoding: 203 203 25
Width: 593
GlyphClass: 2
Flags: MW
HStem: 0 48<146 515 146 526> 326 48<146 465 146 465> 638 48<146 506 146 146> 750 69<182 247 182 247 358 423>
VStem: 92 54<48 326 374 638> 182 65<750 819 750 819> 358 65<750 819 750 819>
LayerCount: 2
Fore
SplineSet
247 819 m 1
 247 750 l 1
 182 750 l 1
 182 819 l 1
 247 819 l 1
423 819 m 1
 423 750 l 1
 358 750 l 1
 358 819 l 1
 423 819 l 1
92 686 m 1
 516 686 l 1
 506 638 l 1
 146 638 l 1
 146 374 l 1
 465 374 l 1
 465 326 l 1
 146 326 l 1
 146 48 l 1
 515 48 l 1
 526 0 l 1
 92 0 l 1
 92 686 l 1
EndSplineSet
Position2: "'cpsp' Capital Spacing lookup 0 subtable" dx=5 dy=0 dh=10 dv=0
EndChar

StartChar: Edotaccent
Encoding: 278 278 26
Width: 593
GlyphClass: 2
Flags: MW
HStem: 0 48<146 515 146 526> 326 48<146 465 146 465> 638 48<146 506 146 146> 779 132<278.5 314.5>
VStem: 92 54<48 326 374 638> 231 132<827 863 826 863.5>
AnchorPoint: "Bottom" 297 0 basechar 0
LayerCount: 2
Fore
SplineSet
363 845 m 0
 363 807 333 779 296 779 c 0
 261 779 231 809 231 845 c 0
 231 882 260 911 297 911 c 0
 334 911 363 881 363 845 c 0
92 686 m 1
 516 686 l 1
 506 638 l 1
 146 638 l 1
 146 374 l 1
 465 374 l 1
 465 326 l 1
 146 326 l 1
 146 48 l 1
 515 48 l 1
 526 0 l 1
 92 0 l 1
 92 686 l 1
EndSplineSet
EndChar

StartChar: Egrave
Encoding: 200 200 27
Width: 593
GlyphClass: 2
Flags: MW
HStem: 0 48<146 515 146 526> 326 48<146 465 146 465> 638 48<146 506 146 146> 750 145<184 345 184 295>
VStem: 92 54<48 326 374 638>
LayerCount: 2
Fore
SplineSet
184 892 m 1
 184 895 l 1
 249 895 l 1
 345 750 l 1
 295 750 l 1
 184 892 l 1
92 686 m 1
 516 686 l 1
 506 638 l 1
 146 638 l 1
 146 374 l 1
 465 374 l 1
 465 326 l 1
 146 326 l 1
 146 48 l 1
 515 48 l 1
 526 0 l 1
 92 0 l 1
 92 686 l 1
EndSplineSet
Position2: "'cpsp' Capital Spacing lookup 0 subtable" dx=5 dy=0 dh=10 dv=0
EndChar

StartChar: Emacron
Encoding: 274 274 28
Width: 593
GlyphClass: 2
Flags: MW
HStem: 0 48<146 515 146 526> 326 48<146 465 146 465> 638 48<146 506 146 146> 867 44<138 456 138 456>
VStem: 92 54<48 326 374 638>
AnchorPoint: "Bottom" 297 0 basechar 0
LayerCount: 2
Fore
SplineSet
138 911 m 1
 456 911 l 1
 456 867 l 1
 138 867 l 1
 138 911 l 1
92 686 m 1
 516 686 l 1
 506 638 l 1
 146 638 l 1
 146 374 l 1
 465 374 l 1
 465 326 l 1
 146 326 l 1
 146 48 l 1
 515 48 l 1
 526 0 l 1
 92 0 l 1
 92 686 l 1
EndSplineSet
EndChar

StartChar: Eogonek
Encoding: 280 280 29
Width: 593
GlyphClass: 2
Flags: MW
HStem: -143 43<498.5 519.5> 0 48<146 462 512 512 512 515 146 526> 326 48<146 465 146 465> 638 48<146 506 146 146>
VStem: 92 54<48 326 374 638> 408 57<-75.5 -55>
AnchorPoint: "Bottom" 297 0 basechar 0
LayerCount: 2
Fore
SplineSet
576 -86 m 1
 589 -119 l 1
 563 -135 534 -143 505 -143 c 0
 459 -143 408 -126 408 -71 c 0
 408 -39 438 -16 462 0 c 1
 92 0 l 1
 92 686 l 1
 516 686 l 1
 506 638 l 1
 146 638 l 1
 146 374 l 1
 465 374 l 1
 465 326 l 1
 146 326 l 1
 146 48 l 1
 515 48 l 1
 526 0 l 1
 512 0 l 1
 509 -2 l 2
 489 -16 465 -33 465 -60 c 0
 465 -91 488 -100 509 -100 c 0
 533 -100 555 -93 576 -86 c 1
EndSplineSet
EndChar

StartChar: F
Encoding: 70 70 30
Width: 550
GlyphClass: 2
Flags: MW
HStem: 0 21G<92 146 92 92> 326 48<146 439 146 439> 638 48<146 146 146 489>
VStem: 92 54<0 326 374 638>
LayerCount: 2
Fore
SplineSet
146 638 m 1
 146 374 l 1
 439 374 l 1
 439 326 l 1
 146 326 l 1
 146 0 l 1
 92 0 l 1
 92 686 l 1
 498 686 l 1
 489 638 l 1
 146 638 l 1
EndSplineSet
Position2: "'cpsp' Capital Spacing lookup 0 subtable" dx=5 dy=0 dh=10 dv=0
EndChar

StartChar: G
Encoding: 71 71 31
Width: 677
GlyphClass: 2
Flags: MW
HStem: -10 48<261.5 362.5> 0 21G<543 580 543 543> 303 47<292 574 292 524> 648 48<261.5 371>
VStem: 62 54<330 356 356 368 204.5 493.5> 524 50<251 303 303 303>
AnchorPoint: "Bottom" 339 0 basechar 0
LayerCount: 2
Fore
SplineSet
292 303 m 1xbc
 292 350 l 1
 574 350 l 1
 574 119 l 2
 574 48 580 0 580 0 c 1
 543 0 l 1x7c
 543 0 535 30 527 92 c 1
 485 18 405 -10 320 -10 c 0
 173 -10 62 55 62 330 c 2
 62 356 l 2
 62 631 173 696 320 696 c 0
 449 696 574 645 574 449 c 1
 521 449 l 1
 521 608 422 648 320 648 c 0
 203 648 116 595 116 368 c 2
 116 318 l 2
 116 91 203 38 320 38 c 0
 425 38 524 79 524 251 c 2
 524 303 l 1
 292 303 l 1xbc
EndSplineSet
Position2: "'cpsp' Capital Spacing lookup 0 subtable" dx=5 dy=0 dh=10 dv=0
EndChar

StartChar: Gbreve
Encoding: 286 286 32
Width: 677
GlyphClass: 2
Flags: MW
HStem: -10 48<261.5 362.5> 0 21G<543 580 543 543> 303 47<292 574 292 524> 648 48<261.5 371> 788 49<305.5 370.5 305.5 391.5>
VStem: 62 54<330 356 356 368 204.5 493.5> 524 50<251 303 303 303>
AnchorPoint: "Bottom" 339 0 basechar 0
LayerCount: 2
Fore
SplineSet
338 788 m 0xbe
 232 788 146 855 146 912 c 1
 202 912 l 1
 218 862 273 837 338 837 c 0
 403 837 458 862 475 912 c 1
 531 912 l 1
 531 855 445 788 338 788 c 0xbe
292 303 m 1
 292 350 l 1
 574 350 l 1
 574 119 l 2
 574 48 580 0 580 0 c 1
 543 0 l 1x7e
 543 0 535 30 527 92 c 1
 485 18 405 -10 320 -10 c 0
 173 -10 62 55 62 330 c 2
 62 356 l 2
 62 631 173 696 320 696 c 0
 449 696 574 645 574 449 c 1
 521 449 l 1
 521 608 422 648 320 648 c 0
 203 648 116 595 116 368 c 2
 116 318 l 2
 116 91 203 38 320 38 c 0
 425 38 524 79 524 251 c 2
 524 303 l 1
 292 303 l 1
EndSplineSet
EndChar

StartChar: Gcommaaccent
Encoding: 290 290 33
Width: 677
GlyphClass: 2
Flags: MW
HStem: -149 69<305 329 305 370> -10 48<261.5 362.5> 0 21G<543 580 543 543> 303 47<292 574 292 524> 648 48<261.5 371>
VStem: 62 54<330 356 356 368 204.5 493.5> 305 65<-138 -80 -138 -80 -138 -80> 524 50<251 303 303 303>
AnchorPoint: "Bottom" 339 0 basechar 0
LayerCount: 2
Fore
SplineSet
292 303 m 1xdf
 292 350 l 1
 574 350 l 1
 574 119 l 2
 574 48 580 0 580 0 c 1
 543 0 l 1xbf
 543 0 535 30 527 92 c 1
 485 18 405 -10 320 -10 c 0
 173 -10 62 55 62 330 c 2
 62 356 l 2
 62 631 173 696 320 696 c 0
 449 696 574 645 574 449 c 1
 521 449 l 1
 521 608 422 648 320 648 c 0
 203 648 116 595 116 368 c 2
 116 318 l 2
 116 91 203 38 320 38 c 0
 425 38 524 79 524 251 c 2
 524 303 l 1
 292 303 l 1xdf
340 -250 m 1
 306 -250 l 2
 307 -250 329 -149 329 -149 c 1
 305 -149 l 1
 305 -80 l 1
 370 -80 l 1
 370 -138 l 1
 340 -250 l 1
EndSplineSet
EndChar

StartChar: H
Encoding: 72 72 34
Width: 693
GlyphClass: 2
Flags: MW
HStem: 0 21G<92 146 92 92 517 517 517 571> 326 48<146 517 146 517> 666 20G<92 146 146 146 517 571 571 571>
VStem: 92 54<0 326 0 374 374 686> 517 54<0 326 326 326 374 686 0 686>
LayerCount: 2
Fore
SplineSet
517 326 m 1
 146 326 l 1
 146 0 l 1
 92 0 l 1
 92 686 l 1
 146 686 l 1
 146 374 l 1
 517 374 l 1
 517 686 l 1
 571 686 l 1
 571 0 l 1
 517 0 l 1
 517 326 l 1
EndSplineSet
Position2: "'cpsp' Capital Spacing lookup 0 subtable" dx=5 dy=0 dh=10 dv=0
EndChar

StartChar: I
Encoding: 73 73 35
Width: 364
GlyphClass: 2
Flags: MW
HStem: 0 49<53 132 186 265 53 132> 637 49<53 132 53 265 186 265 186 186>
VStem: 132 54<49 637 49 637>
LayerCount: 2
Fore
SplineSet
265 686 m 1
 265 637 l 1
 186 637 l 1
 186 49 l 1
 265 49 l 1
 265 0 l 1
 53 0 l 1
 53 49 l 1
 132 49 l 1
 132 637 l 1
 53 637 l 1
 53 686 l 1
 265 686 l 1
EndSplineSet
Position2: "'cpsp' Capital Spacing lookup 0 subtable" dx=5 dy=0 dh=10 dv=0
EndChar

StartChar: Iacute
Encoding: 205 205 36
Width: 364
GlyphClass: 2
Flags: MW
HStem: 0 49<53 132 186 265 53 132> 637 49<53 132 53 265 186 265 186 186> 750 145<135 296 135 296>
VStem: 132 54<49 637 49 637>
LayerCount: 2
Fore
SplineSet
231 895 m 1
 296 895 l 1
 296 892 l 1
 185 750 l 1
 135 750 l 1
 231 895 l 1
265 686 m 1
 265 637 l 1
 186 637 l 1
 186 49 l 1
 265 49 l 1
 265 0 l 1
 53 0 l 1
 53 49 l 1
 132 49 l 1
 132 637 l 1
 53 637 l 1
 53 686 l 1
 265 686 l 1
EndSplineSet
Position2: "'cpsp' Capital Spacing lookup 0 subtable" dx=5 dy=0 dh=10 dv=0
EndChar

StartChar: Icircumflex
Encoding: 206 206 37
Width: 364
GlyphClass: 2
Flags: MW
HStem: 0 49<30 109 163 242 30 109> 637 49<30 109 30 242 163 242 163 163> 750 145<-27 165 -27 165 107 299 107 239>
VStem: 109 54<49 637 49 637>
LayerCount: 2
Fore
SplineSet
165 895 m 1
 299 750 l 1
 239 750 l 1
 136 847 l 1
 33 750 l 1
 -27 750 l 1
 107 895 l 1
 165 895 l 1
242 686 m 1
 242 637 l 1
 163 637 l 1
 163 49 l 1
 242 49 l 1
 242 0 l 1
 30 0 l 1
 30 49 l 1
 109 49 l 1
 109 637 l 1
 30 637 l 1
 30 686 l 1
 242 686 l 1
EndSplineSet
Position2: "'cpsp' Capital Spacing lookup 0 subtable" dx=5 dy=0 dh=10 dv=0
EndChar

StartChar: Idieresis
Encoding: 207 207 38
Width: 364
GlyphClass: 2
Flags: MW
HStem: 0 49<43 122 176 255 43 122> 637 49<43 122 43 255 176 255 176 176> 751 69<29 94 29 94 205 270>
VStem: 29 65<751 820 751 820> 122 54<49 637 49 637> 205 65<751 820 751 820>
LayerCount: 2
Fore
SplineSet
94 820 m 1
 94 751 l 1
 29 751 l 1
 29 820 l 1
 94 820 l 1
270 820 m 1
 270 751 l 1
 205 751 l 1
 205 820 l 1
 270 820 l 1
255 686 m 1
 255 637 l 1xec
 176 637 l 1
 176 49 l 1
 255 49 l 1
 255 0 l 1xe8
 43 0 l 1
 43 49 l 1xf8
 122 49 l 1
 122 637 l 1xe8
 43 637 l 1
 43 686 l 1
 255 686 l 1
EndSplineSet
Position2: "'cpsp' Capital Spacing lookup 0 subtable" dx=5 dy=0 dh=10 dv=0
EndChar

StartChar: Idotaccent
Encoding: 304 304 39
Width: 364
GlyphClass: 2
Flags: MW
HStem: 0 49<53 132 186 265 53 132> 637 49<53 132 53 265 186 265 186 186> 779 132<140.5 176.5>
VStem: 93 132<827 863 826 863.5> 132 54<49 637 49 637>
LayerCount: 2
Fore
SplineSet
225 845 m 0xf0
 225 807 195 779 158 779 c 0
 123 779 93 809 93 845 c 0
 93 882 122 911 159 911 c 0
 196 911 225 881 225 845 c 0xf0
265 686 m 1
 265 637 l 1
 186 637 l 1
 186 49 l 1
 265 49 l 1
 265 0 l 1
 53 0 l 1
 53 49 l 1
 132 49 l 1
 132 637 l 1
 53 637 l 1
 53 686 l 1xc8
 265 686 l 1
EndSplineSet
EndChar

StartChar: Igrave
Encoding: 204 204 40
Width: 364
GlyphClass: 2
Flags: MW
HStem: 0 49<32 111 165 244 32 111> 637 49<32 111 32 244 165 244 165 165> 750 145<10 171 10 121>
VStem: 111 54<49 637 49 637>
LayerCount: 2
Fore
SplineSet
10 892 m 1
 10 895 l 1
 75 895 l 1
 171 750 l 1
 121 750 l 1
 10 892 l 1
244 686 m 1
 244 637 l 1
 165 637 l 1
 165 49 l 1
 244 49 l 1
 244 0 l 1
 32 0 l 1
 32 49 l 1
 111 49 l 1
 111 637 l 1
 32 637 l 1
 32 686 l 1
 244 686 l 1
EndSplineSet
Position2: "'cpsp' Capital Spacing lookup 0 subtable" dx=5 dy=0 dh=10 dv=0
EndChar

StartChar: Imacron
Encoding: 298 298 41
Width: 364
GlyphClass: 2
Flags: MW
HStem: 0 49<53 132 186 265 53 132> 637 49<53 132 53 265 186 265 186 186> 867 44<0 318 0 318>
VStem: 132 54<49 637 49 637>
LayerCount: 2
Fore
SplineSet
0 911 m 1
 318 911 l 1
 318 867 l 1
 0 867 l 1
 0 911 l 1
265 686 m 1
 265 637 l 1
 186 637 l 1
 186 49 l 1
 265 49 l 1
 265 0 l 1
 53 0 l 1
 53 49 l 1
 132 49 l 1
 132 637 l 1
 53 637 l 1
 53 686 l 1
 265 686 l 1
EndSplineSet
EndChar

StartChar: Iogonek
Encoding: 302 302 42
Width: 364
GlyphClass: 2
Flags: MW
HStem: -143 43<232.5 253.5> 0 49<53 132 186 196 53 132 246 246 246 265> 637 49<53 132 53 265 186 186 186 265>
VStem: 132 54<49 637 49 637> 142 57<-75.5 -55>
LayerCount: 2
Fore
SplineSet
310 -86 m 1xf0
 323 -119 l 1
 297 -135 268 -143 239 -143 c 0
 193 -143 142 -126 142 -71 c 0
 142 -39 172 -16 196 0 c 1
 53 0 l 1
 53 49 l 1xe8
 132 49 l 1
 132 637 l 1
 53 637 l 1
 53 686 l 1
 265 686 l 1
 265 637 l 1
 186 637 l 1
 186 49 l 1
 265 49 l 1
 265 0 l 1xf0
 246 0 l 1
 243 -2 l 2
 223 -16 199 -33 199 -60 c 0
 199 -91 222 -100 243 -100 c 0xe8
 267 -100 289 -93 310 -86 c 1xf0
EndSplineSet
EndChar

StartChar: J
Encoding: 74 74 43
Width: 526
GlyphClass: 2
Flags: MW
HStem: -10 48<179.5 256.5 179.5 271.5> 666 20G<357 411 411 411>
VStem: 29 50<166 172 172 185 124.5 185> 357 54<172 686>
LayerCount: 2
Fore
SplineSet
79 185 m 1
 79 172 l 2
 79 77 141 38 218 38 c 0
 295 38 357 78 357 172 c 2
 357 686 l 1
 411 686 l 1
 411 166 l 2
 411 50 325 -10 218 -10 c 0
 111 -10 29 50 29 166 c 2
 29 185 l 1
 79 185 l 1
EndSplineSet
Position2: "'cpsp' Capital Spacing lookup 0 subtable" dx=5 dy=0 dh=10 dv=0
EndChar

StartChar: K
Encoding: 75 75 44
Width: 623
GlyphClass: 2
Flags: MW
HStem: 0 21G<92 146 92 92 513 581 513 513> 666 20G<92 146 146 146 509 573 573 573>
VStem: 92 54<0 208 279 686>
AnchorPoint: "Bottom" 312 0 basechar 0
LayerCount: 2
Fore
SplineSet
146 686 m 1
 146 279 l 1
 509 686 l 1
 573 686 l 1
 306 387 l 1
 581 0 l 1
 513 0 l 1
 269 346 l 1
 146 208 l 1
 146 0 l 1
 92 0 l 1
 92 686 l 1
 146 686 l 1
EndSplineSet
Position2: "'cpsp' Capital Spacing lookup 0 subtable" dx=5 dy=0 dh=10 dv=0
EndChar

StartChar: Kcommaaccent
Encoding: 310 310 45
Width: 623
GlyphClass: 2
Flags: MW
HStem: -149 69<278 302 278 343> 0 21G<92 146 92 92 513 581 513 513> 666 20G<92 146 146 146 509 573 573 573>
VStem: 92 54<0 208 279 686> 278 65<-138 -80 -138 -80 -138 -80>
AnchorPoint: "Bottom" 312 0 basechar 0
LayerCount: 2
Fore
SplineSet
146 686 m 1
 146 279 l 1
 509 686 l 1
 573 686 l 1
 306 387 l 1
 581 0 l 1
 513 0 l 1
 269 346 l 1
 146 208 l 1
 146 0 l 1
 92 0 l 1
 92 686 l 1
 146 686 l 1
313 -250 m 1
 279 -250 l 2
 280 -250 302 -149 302 -149 c 1
 278 -149 l 1
 278 -80 l 1
 343 -80 l 1
 343 -138 l 1
 313 -250 l 1
EndSplineSet
EndChar

StartChar: L
Encoding: 76 76 46
Width: 536
GlyphClass: 2
Flags: MW
HStem: 0 48<146 486 146 498> 666 20G<92 146 146 146>
VStem: 92 54<48 686 48 686 48 686>
AnchorPoint: "Bottom" 268 0 basechar 0
LayerCount: 2
Fore
SplineSet
92 686 m 1
 146 686 l 1
 146 48 l 1
 486 48 l 1
 498 0 l 1
 92 0 l 1
 92 686 l 1
EndSplineSet
Position2: "'cpsp' Capital Spacing lookup 0 subtable" dx=5 dy=0 dh=10 dv=0
EndChar

StartChar: Lacute
Encoding: 313 313 47
Width: 536
GlyphClass: 2
Flags: MW
HStem: 0 48<146 486 146 498> 666 20G<92 146 146 146> 750 145<88 249 88 249>
VStem: 92 54<48 686 48 686 48 686>
AnchorPoint: "Bottom" 268 0 basechar 0
LayerCount: 2
Fore
SplineSet
184 895 m 1
 249 895 l 1
 249 892 l 1
 138 750 l 1
 88 750 l 1
 184 895 l 1
92 686 m 1
 146 686 l 1
 146 48 l 1
 486 48 l 1
 498 0 l 1
 92 0 l 1
 92 686 l 1
EndSplineSet
EndChar

StartChar: Lcaron
Encoding: 317 317 48
Width: 536
GlyphClass: 2
Flags: MW
HStem: 0 48<146 486 146 498> 496 20G<486 520 486 486.5> 516 170<486 520 486 486.5> 617 69<485 509>
VStem: 92 54<48 686 48 686 48 686> 485 65<628 686 628 686 628 686>
AnchorPoint: "Bottom" 268 0 basechar 0
LayerCount: 2
Fore
SplineSet
92 686 m 1xdc
 146 686 l 1
 146 48 l 1
 486 48 l 1
 498 0 l 1
 92 0 l 1
 92 686 l 1xdc
520 516 m 1xac
 486 516 l 2
 487 516 509 617 509 617 c 1
 485 617 l 1
 485 686 l 1
 550 686 l 1
 550 628 l 1xdc
 520 516 l 1xac
EndSplineSet
EndChar

StartChar: Lcommaaccent
Encoding: 315 315 49
Width: 536
GlyphClass: 2
Flags: MW
HStem: -149 69<234 258 234 299> 0 48<146 486 146 498> 666 20G<92 146 146 146>
VStem: 92 54<48 686 48 686 48 686> 234 65<-138 -80 -138 -80 -138 -80>
AnchorPoint: "Bottom" 268 0 basechar 0
LayerCount: 2
Fore
SplineSet
92 686 m 1
 146 686 l 1
 146 48 l 1
 486 48 l 1
 498 0 l 1
 92 0 l 1
 92 686 l 1
269 -250 m 1
 235 -250 l 2
 236 -250 258 -149 258 -149 c 1
 234 -149 l 1
 234 -80 l 1
 299 -80 l 1
 299 -138 l 1
 269 -250 l 1
EndSplineSet
EndChar

StartChar: Lslash
Encoding: 321 321 50
Width: 539
GlyphClass: 2
Flags: MW
HStem: 0 48<161 501 161 513> 666 20G<107 161 161 161>
VStem: 107 54<48 331 331 331 48 402 402 686>
LayerCount: 2
Fore
SplineSet
161 358 m 1
 161 48 l 1
 501 48 l 1
 513 0 l 1
 107 0 l 1
 107 331 l 1
 33 294 l 1
 33 338 l 1
 107 375 l 1
 107 686 l 1
 161 686 l 1
 161 402 l 1
 313 479 l 1
 313 435 l 1
 161 358 l 1
EndSplineSet
Position2: "'cpsp' Capital Spacing lookup 0 subtable" dx=5 dy=0 dh=10 dv=0
EndChar

StartChar: M
Encoding: 77 77 51
Width: 938
GlyphClass: 2
Flags: MW
HStem: 0 21G<92 140 92 92 418 469 418 418 749 749 749 803> 0 69<446 447 446 469 418 447> 625 61<140 145 140 140 744 749 744 744>
VStem: 92 48<0 625 0 686> 749 54<0 625 625 625>
LayerCount: 2
Fore
SplineSet
749 625 m 1xb8
 744 625 l 1xb8
 469 0 l 1
 418 0 l 1
 145 625 l 1
 140 625 l 1
 140 0 l 1
 92 0 l 1
 92 686 l 1
 178 686 l 1
 446 69 l 1
 447 69 l 1x78
 718 686 l 1
 803 686 l 1
 803 0 l 1
 749 0 l 1
 749 625 l 1xb8
EndSplineSet
Position2: "'cpsp' Capital Spacing lookup 0 subtable" dx=5 dy=0 dh=10 dv=0
EndChar

StartChar: N
Encoding: 78 78 52
Width: 694
GlyphClass: 2
Flags: MW
HStem: 0 21G<92 140 92 92 523 523 523 571> 666 20G<92 138 138 138 523 571 571 571>
VStem: 92 48<0 583 0 686> 523 48<0 686 103 686 0 686>
AnchorPoint: "Bottom" 347 0 basechar 0
LayerCount: 2
Fore
SplineSet
143 583 m 1
 140 583 l 1
 140 0 l 1
 92 0 l 1
 92 686 l 1
 138 686 l 1
 520 103 l 1
 523 103 l 1
 523 686 l 1
 571 686 l 1
 571 0 l 1
 523 0 l 1
 143 583 l 1
EndSplineSet
Position2: "'cpsp' Capital Spacing lookup 0 subtable" dx=5 dy=0 dh=10 dv=0
EndChar

StartChar: Nacute
Encoding: 323 323 53
Width: 694
GlyphClass: 2
Flags: MW
HStem: 0 21G<92 140 92 92 523 523 523 571> 666 20G<92 138 138 138 523 571 571 571> 750 145<316 477 316 477>
VStem: 92 48<0 583 0 686> 523 48<0 686 103 686 0 686>
AnchorPoint: "Bottom" 347 0 basechar 0
LayerCount: 2
Fore
SplineSet
412 895 m 1
 477 895 l 1
 477 892 l 1
 366 750 l 1
 316 750 l 1
 412 895 l 1
143 583 m 1
 140 583 l 1
 140 0 l 1
 92 0 l 1
 92 686 l 1
 138 686 l 1
 520 103 l 1
 523 103 l 1
 523 686 l 1
 571 686 l 1
 571 0 l 1
 523 0 l 1
 143 583 l 1
EndSplineSet
EndChar

StartChar: Ncaron
Encoding: 327 327 54
Width: 694
GlyphClass: 2
Flags: MW
HStem: 0 21G<92 140 92 92 523 523 523 571> 666 20G<92 138 138 138 523 571 571 571> 750 145<184 376 184 318>
VStem: 92 48<0 583 0 686> 523 48<0 686 103 686 0 686>
AnchorPoint: "Bottom" 347 0 basechar 0
LayerCount: 2
Fore
SplineSet
244 895 m 1
 347 798 l 1
 450 895 l 1
 510 895 l 1
 376 750 l 1
 318 750 l 1
 184 895 l 1
 244 895 l 1
143 583 m 1
 140 583 l 1
 140 0 l 1
 92 0 l 1
 92 686 l 1
 138 686 l 1
 520 103 l 1
 523 103 l 1
 523 686 l 1
 571 686 l 1
 571 0 l 1
 523 0 l 1
 143 583 l 1
EndSplineSet
EndChar

StartChar: Ncommaaccent
Encoding: 325 325 55
Width: 694
GlyphClass: 2
Flags: MW
HStem: -149 69<313 337 313 378> 0 21G<92 140 92 92 523 523 523 571> 666 20G<92 138 138 138 523 571 571 571>
VStem: 92 48<0 583 0 686> 313 65<-138 -80 -138 -80 -138 -80> 523 48<0 686 103 686 0 686>
AnchorPoint: "Bottom" 347 0 basechar 0
LayerCount: 2
Fore
SplineSet
143 583 m 1
 140 583 l 1
 140 0 l 1
 92 0 l 1
 92 686 l 1
 138 686 l 1
 520 103 l 1
 523 103 l 1
 523 686 l 1
 571 686 l 1
 571 0 l 1
 523 0 l 1
 143 583 l 1
348 -250 m 1
 314 -250 l 2
 315 -250 337 -149 337 -149 c 1
 313 -149 l 1
 313 -80 l 1
 378 -80 l 1
 378 -138 l 1
 348 -250 l 1
EndSplineSet
EndChar

StartChar: Ntilde
Encoding: 209 209 56
Width: 694
GlyphClass: 2
Flags: MW
HStem: 0 21G<92 140 92 92 523 523 523 571> 666 20G<92 138 138 138 523 571 571 571> 750 50<400 443.5 400 459.5> 782 50<236.5 280>
VStem: 92 48<0 583 0 686> 523 48<0 686 103 686 0 686>
LayerCount: 2
Fore
SplineSet
484 832 m 1xec
 521 832 l 1
 521 800 499 750 420 750 c 0xec
 356 750 307 782 253 782 c 0
 220 782 203 773 196 750 c 1
 159 750 l 1
 159 782 182 832 260 832 c 0xdc
 324 832 373 800 427 800 c 0
 460 800 477 809 484 832 c 1xec
143 583 m 1
 140 583 l 1
 140 0 l 1
 92 0 l 1
 92 686 l 1
 138 686 l 1
 520 103 l 1
 523 103 l 1
 523 686 l 1
 571 686 l 1
 571 0 l 1
 523 0 l 1
 143 583 l 1
EndSplineSet
Position2: "'cpsp' Capital Spacing lookup 0 subtable" dx=5 dy=0 dh=10 dv=0
EndChar

StartChar: O
Encoding: 79 79 57
Width: 690
GlyphClass: 2
Flags: MW
HStem: -10 48<268.5 385.5 268.5 400.5> 648 48<268.5 385.5>
VStem: 61 54<330 356 356 368 204.5 493.5> 539 54<318 330 330 356 192.5 368 192.5 481.5>
LayerCount: 2
Fore
SplineSet
327 -10 m 0
 180 -10 61 55 61 330 c 2
 61 356 l 2
 61 631 180 696 327 696 c 0
 474 696 593 631 593 356 c 2
 593 330 l 2
 593 55 474 -10 327 -10 c 0
327 38 m 0
 444 38 539 91 539 318 c 2
 539 368 l 2
 539 595 444 648 327 648 c 0
 210 648 115 595 115 368 c 2
 115 318 l 2
 115 91 210 38 327 38 c 0
EndSplineSet
Substitution2: "Single Substitution lookup 5 subtable" ordmasculine
Substitution2: "'aalt' Access All Alternates lookup 0 subtable" ordmasculine
Position2: "'cpsp' Capital Spacing lookup 0 subtable" dx=5 dy=0 dh=10 dv=0
EndChar

StartChar: Oacute
Encoding: 211 211 58
Width: 690
GlyphClass: 2
Flags: MW
HStem: -10 48<268.5 385.5 268.5 400.5> 648 48<268.5 385.5> 750 145<305 466 305 466>
VStem: 61 54<330 356 356 368 204.5 493.5> 539 54<318 330 330 356 192.5 368 192.5 481.5>
LayerCount: 2
Fore
SplineSet
401 895 m 1
 466 895 l 1
 466 892 l 1
 355 750 l 1
 305 750 l 1
 401 895 l 1
327 -10 m 0
 180 -10 61 55 61 330 c 2
 61 356 l 2
 61 631 180 696 327 696 c 0
 474 696 593 631 593 356 c 2
 593 330 l 2
 593 55 474 -10 327 -10 c 0
327 38 m 0
 444 38 539 91 539 318 c 2
 539 368 l 2
 539 595 444 648 327 648 c 0
 210 648 115 595 115 368 c 2
 115 318 l 2
 115 91 210 38 327 38 c 0
EndSplineSet
Position2: "'cpsp' Capital Spacing lookup 0 subtable" dx=5 dy=0 dh=10 dv=0
EndChar

StartChar: Ocircumflex
Encoding: 212 212 59
Width: 690
GlyphClass: 2
Flags: MW
HStem: -10 48<268.5 385.5 268.5 400.5> 648 48<268.5 385.5> 750 145<169 361 169 361 303 495 303 435>
VStem: 61 54<330 356 356 368 204.5 493.5> 539 54<318 330 330 356 192.5 368 192.5 481.5>
LayerCount: 2
Fore
SplineSet
361 895 m 1
 495 750 l 1
 435 750 l 1
 332 847 l 1
 229 750 l 1
 169 750 l 1
 303 895 l 1
 361 895 l 1
327 -10 m 0
 180 -10 61 55 61 330 c 2
 61 356 l 2
 61 631 180 696 327 696 c 0
 474 696 593 631 593 356 c 2
 593 330 l 2
 593 55 474 -10 327 -10 c 0
327 38 m 0
 444 38 539 91 539 318 c 2
 539 368 l 2
 539 595 444 648 327 648 c 0
 210 648 115 595 115 368 c 2
 115 318 l 2
 115 91 210 38 327 38 c 0
EndSplineSet
Position2: "'cpsp' Capital Spacing lookup 0 subtable" dx=5 dy=0 dh=10 dv=0
EndChar

StartChar: Odieresis
Encoding: 214 214 60
Width: 690
GlyphClass: 2
Flags: MW
HStem: -10 48<268.5 385.5 268.5 400.5> 648 48<268.5 385.5> 751 69<207 272 207 272 383 448>
VStem: 61 54<330 356 356 368 204.5 493.5> 207 65<751 820 751 820> 383 65<751 820 751 820> 539 54<318 330 330 356 192.5 368 192.5 481.5>
LayerCount: 2
Fore
SplineSet
272 820 m 1
 272 751 l 1
 207 751 l 1
 207 820 l 1
 272 820 l 1
448 820 m 1
 448 751 l 1
 383 751 l 1
 383 820 l 1
 448 820 l 1
327 -10 m 0
 180 -10 61 55 61 330 c 2
 61 356 l 2
 61 631 180 696 327 696 c 0
 474 696 593 631 593 356 c 2
 593 330 l 2
 593 55 474 -10 327 -10 c 0
327 38 m 0
 444 38 539 91 539 318 c 2
 539 368 l 2
 539 595 444 648 327 648 c 0
 210 648 115 595 115 368 c 2
 115 318 l 2
 115 91 210 38 327 38 c 0
EndSplineSet
Position2: "'cpsp' Capital Spacing lookup 0 subtable" dx=5 dy=0 dh=10 dv=0
EndChar

StartChar: Ograve
Encoding: 210 210 61
Width: 690
GlyphClass: 2
Flags: MW
HStem: -10 48<268.5 385.5 268.5 400.5> 648 48<268.5 385.5> 750 145<198 359 198 309>
VStem: 61 54<330 356 356 368 204.5 493.5> 539 54<318 330 330 356 192.5 368 192.5 481.5>
LayerCount: 2
Fore
SplineSet
198 892 m 1
 198 895 l 1
 263 895 l 1
 359 750 l 1
 309 750 l 1
 198 892 l 1
327 -10 m 0
 180 -10 61 55 61 330 c 2
 61 356 l 2
 61 631 180 696 327 696 c 0
 474 696 593 631 593 356 c 2
 593 330 l 2
 593 55 474 -10 327 -10 c 0
327 38 m 0
 444 38 539 91 539 318 c 2
 539 368 l 2
 539 595 444 648 327 648 c 0
 210 648 115 595 115 368 c 2
 115 318 l 2
 115 91 210 38 327 38 c 0
EndSplineSet
Position2: "'cpsp' Capital Spacing lookup 0 subtable" dx=5 dy=0 dh=10 dv=0
EndChar

StartChar: Ohungarumlaut
Encoding: 336 336 62
Width: 690
GlyphClass: 2
Flags: MW
HStem: -10 48<268.5 385.5 268.5 400.5> 648 48<268.5 385.5> 750 145<242 402 242 402 367 367 367 402 338 417>
VStem: 61 54<330 356 356 368 204.5 493.5> 539 54<318 330 330 356 192.5 368 192.5 481.5>
LayerCount: 2
Fore
SplineSet
338 895 m 1
 402 895 l 1
 403 892 l 1
 292 750 l 1
 242 750 l 1
 338 895 l 1
463 895 m 1
 527 895 l 1
 528 892 l 1
 417 750 l 1
 367 750 l 1
 463 895 l 1
327 -10 m 0
 180 -10 61 55 61 330 c 2
 61 356 l 2
 61 631 180 696 327 696 c 0
 474 696 593 631 593 356 c 2
 593 330 l 2
 593 55 474 -10 327 -10 c 0
327 38 m 0
 444 38 539 91 539 318 c 2
 539 368 l 2
 539 595 444 648 327 648 c 0
 210 648 115 595 115 368 c 2
 115 318 l 2
 115 91 210 38 327 38 c 0
EndSplineSet
EndChar

StartChar: Omacron
Encoding: 332 332 63
Width: 690
GlyphClass: 2
Flags: MW
HStem: -10 48<268.5 385.5 268.5 400.5> 648 48<268.5 385.5> 867 44<166 484 166 484>
VStem: 61 54<330 356 356 368 204.5 493.5> 539 54<318 330 330 356 192.5 368 192.5 481.5>
LayerCount: 2
Fore
SplineSet
166 911 m 1
 484 911 l 1
 484 867 l 1
 166 867 l 1
 166 911 l 1
327 -10 m 0
 180 -10 61 55 61 330 c 2
 61 356 l 2
 61 631 180 696 327 696 c 0
 474 696 593 631 593 356 c 2
 593 330 l 2
 593 55 474 -10 327 -10 c 0
327 38 m 0
 444 38 539 91 539 318 c 2
 539 368 l 2
 539 595 444 648 327 648 c 0
 210 648 115 595 115 368 c 2
 115 318 l 2
 115 91 210 38 327 38 c 0
EndSplineSet
EndChar

StartChar: Oslash
Encoding: 216 216 64
Width: 690
GlyphClass: 2
Flags: MW
HStem: -10 48<301 385.5 301 400.5> 648 48<268.5 352.5>
VStem: 61 54<330 356 356 368 267.5 493.5> 539 54<318 330 330 356 192.5 368 192.5 418.5>
LayerCount: 2
Fore
SplineSet
594 754 m 1
 517 626 l 1
 564 575 593 491 593 356 c 2
 593 330 l 2
 593 55 474 -10 327 -10 c 0
 266 -10 210 1 165 34 c 1
 106 -65 l 1
 61 -65 l 1
 136 60 l 1
 90 111 61 195 61 330 c 2
 61 356 l 2
 61 631 180 696 327 696 c 0
 388 696 444 684 489 652 c 1
 550 754 l 1
 594 754 l 1
115 368 m 2
 115 318 l 2
 115 217 133 151 164 108 c 1
 462 607 l 1
 425 638 378 648 327 648 c 0
 210 648 115 595 115 368 c 2
327 38 m 0
 444 38 539 91 539 318 c 2
 539 368 l 2
 539 469 520 535 489 578 c 1
 191 79 l 1
 228 48 275 38 327 38 c 0
EndSplineSet
Position2: "'cpsp' Capital Spacing lookup 0 subtable" dx=5 dy=0 dh=10 dv=0
EndChar

StartChar: Otilde
Encoding: 213 213 65
Width: 690
GlyphClass: 2
Flags: MW
HStem: -10 48<268.5 385.5 268.5 400.5> 648 48<268.5 385.5> 751 50<393 436.5 393 452.5> 783 50<229.5 273>
VStem: 61 54<330 356 356 368 204.5 493.5> 539 54<318 330 330 356 192.5 368 192.5 481.5>
LayerCount: 2
Fore
SplineSet
477 833 m 1xec
 514 833 l 1
 514 801 492 751 413 751 c 0xec
 349 751 300 783 246 783 c 0
 213 783 196 774 189 751 c 1
 152 751 l 1
 152 783 175 833 253 833 c 0xdc
 317 833 366 801 420 801 c 0
 453 801 470 810 477 833 c 1xec
327 -10 m 0
 180 -10 61 55 61 330 c 2
 61 356 l 2
 61 631 180 696 327 696 c 0
 474 696 593 631 593 356 c 2
 593 330 l 2
 593 55 474 -10 327 -10 c 0
327 38 m 0
 444 38 539 91 539 318 c 2
 539 368 l 2
 539 595 444 648 327 648 c 0
 210 648 115 595 115 368 c 2
 115 318 l 2
 115 91 210 38 327 38 c 0
EndSplineSet
Position2: "'cpsp' Capital Spacing lookup 0 subtable" dx=5 dy=0 dh=10 dv=0
EndChar

StartChar: OE
Encoding: 338 338 66
Width: 1032
GlyphClass: 2
Flags: MW
HStem: -10 48<268.5 370> 0 48<593 962 593 973> 326 48<593 912 593 912> 638 48<593 953 593 593> 648 48<268.5 370 253.5 385.5>
VStem: 61 54<330 356 356 368 204.5 493.5> 539 54<48 87 87 87 318 326 48 368 374 481.5 598 638>
LayerCount: 2
Fore
SplineSet
539 0 m 1x76
 539 87 l 1
 490 12 413 -10 327 -10 c 0
 180 -10 61 55 61 330 c 2
 61 356 l 2
 61 631 180 696 327 696 c 0
 413 696 490 673 539 598 c 1xae
 539 686 l 1
 963 686 l 1
 953 638 l 1
 593 638 l 1
 593 374 l 1
 912 374 l 1
 912 326 l 1
 593 326 l 1
 593 48 l 1
 962 48 l 1
 973 0 l 1
 539 0 l 1x76
327 38 m 0
 444 38 539 91 539 318 c 2
 539 368 l 2
 539 595 444 648 327 648 c 0
 210 648 115 595 115 368 c 2
 115 318 l 2
 115 91 210 38 327 38 c 0
EndSplineSet
Position2: "'cpsp' Capital Spacing lookup 0 subtable" dx=5 dy=0 dh=10 dv=0
EndChar

StartChar: P
Encoding: 80 80 67
Width: 624
GlyphClass: 2
Flags: MW
HStem: 0 21G<92 146 92 92> 312 47<146 366 366 373 146 366> 638 48<146 366 146 146>
VStem: 92 54<0 312 359 638> 508 52<460 538>
LayerCount: 2
Fore
SplineSet
92 686 m 1
 373 686 l 2
 476 686 560 602 560 499 c 0
 560 396 476 312 373 312 c 2
 146 312 l 1
 146 0 l 1
 92 0 l 1
 92 686 l 1
146 359 m 1
 366 359 l 2
 444 359 508 421 508 499 c 0
 508 577 444 638 366 638 c 2
 146 638 l 1
 146 359 l 1
EndSplineSet
Position2: "'cpsp' Capital Spacing lookup 0 subtable" dx=5 dy=0 dh=10 dv=0
EndChar

StartChar: Thorn
Encoding: 222 222 68
Width: 633
GlyphClass: 2
Flags: MW
HStem: 0 21G<92 146 92 92> 177 47<146 366 366 373 146 366> 503 48<146 366 146 373> 503 183<92 366 92 146>
VStem: 92 54<0 177 224 503 551 686> 508 52<325 403>
LayerCount: 2
Fore
SplineSet
92 686 m 1xdc
 146 686 l 1xdc
 146 551 l 1
 373 551 l 2xec
 476 551 560 467 560 364 c 0
 560 261 476 177 373 177 c 2
 146 177 l 1
 146 0 l 1
 92 0 l 1
 92 686 l 1xdc
146 224 m 1
 366 224 l 2
 444 224 508 286 508 364 c 0
 508 442 444 503 366 503 c 2
 146 503 l 1xec
 146 224 l 1
EndSplineSet
Position2: "'cpsp' Capital Spacing lookup 0 subtable" dx=5 dy=0 dh=10 dv=0
EndChar

StartChar: Q
Encoding: 81 81 69
Width: 690
GlyphClass: 2
Flags: MW
HStem: -137 47<425.5 486.5 425.5 495.5> -9 47 648 48<268.5 385.5>
VStem: 61 54<330 356 356 368 204.5 493.5> 539 54<318 330 330 356 201.5 368 201.5 481.5>
LayerCount: 2
Fore
SplineSet
593 356 m 2
 593 330 l 2
 593 73 489 0 355 -9 c 1
 362 -46 388 -90 463 -90 c 0
 510 -90 577 -62 577 -61 c 2
 577 -110 l 1
 577 -110 527 -137 464 -137 c 0
 345 -137 313 -66 305 -9 c 1
 168 -3 61 68 61 330 c 2
 61 356 l 2
 61 631 180 696 327 696 c 0
 474 696 593 631 593 356 c 2
327 38 m 0
 444 38 539 91 539 318 c 2
 539 368 l 2
 539 595 444 648 327 648 c 0
 210 648 115 595 115 368 c 2
 115 318 l 2
 115 91 210 38 327 38 c 0
EndSplineSet
Position2: "'cpsp' Capital Spacing lookup 0 subtable" dx=5 dy=0 dh=10 dv=0
EndChar

StartChar: R
Encoding: 82 82 70
Width: 670
GlyphClass: 2
Flags: MW
HStem: -3 21G<558.5 581> 0 20 326 48<146 367 146 374> 638 48<146 371 371 374 146 146>
VStem: 92 54<0 326 374 638> 496 52<91.5 220> 508 53<479.5 544>
AnchorPoint: "Bottom" 335 0 basechar 0
LayerCount: 2
Fore
SplineSet
599 20 m 1x7c
 599 1 l 1
 599 1 588 -3 574 -3 c 0
 543 -3 496 15 496 127 c 0xbc
 496 313 399 326 367 326 c 2
 146 326 l 1
 146 0 l 1
 92 0 l 1
 92 686 l 1
 371 686 l 2
 468 686 561 619 561 516 c 0x7a
 561 443 508 367 438 354 c 1
 438 349 l 1
 438 349 548 332 548 153 c 0
 548 30 574 32 599 20 c 1x7c
146 374 m 1
 374 374 l 2
 448 374 508 433 508 507 c 0x7a
 508 581 448 638 374 638 c 2
 146 638 l 1
 146 374 l 1
EndSplineSet
Position2: "'cpsp' Capital Spacing lookup 0 subtable" dx=5 dy=0 dh=10 dv=0
EndChar

StartChar: Racute
Encoding: 340 340 71
Width: 670
GlyphClass: 2
Flags: MW
HStem: -3 21G<558.5 581> 0 20 326 48<146 367 146 374> 638 48<146 371 371 374 146 146> 750 145<274 435 274 435>
VStem: 92 54<0 326 374 638> 496 52<91.5 220> 508 53<479.5 544>
AnchorPoint: "Bottom" 335 0 basechar 0
LayerCount: 2
Fore
SplineSet
370 895 m 1x7e
 435 895 l 1
 435 892 l 1
 324 750 l 1
 274 750 l 1
 370 895 l 1x7e
599 20 m 1
 599 1 l 1
 599 1 588 -3 574 -3 c 0
 543 -3 496 15 496 127 c 0xbe
 496 313 399 326 367 326 c 2
 146 326 l 1
 146 0 l 1
 92 0 l 1
 92 686 l 1
 371 686 l 2
 468 686 561 619 561 516 c 0x7d
 561 443 508 367 438 354 c 1
 438 349 l 1
 438 349 548 332 548 153 c 0
 548 30 574 32 599 20 c 1
146 374 m 1
 374 374 l 2
 448 374 508 433 508 507 c 0x7d
 508 581 448 638 374 638 c 2
 146 638 l 1
 146 374 l 1
EndSplineSet
EndChar

StartChar: Rcaron
Encoding: 344 344 72
Width: 670
GlyphClass: 2
Flags: MW
HStem: -3 21G<558.5 581> 0 20 326 48<146 367 146 374> 638 48<146 371 371 374 146 146> 750 145<142 334 142 276>
VStem: 92 54<0 326 374 638> 496 52<91.5 220> 508 53<479.5 544>
AnchorPoint: "Bottom" 335 0 basechar 0
LayerCount: 2
Fore
SplineSet
202 895 m 1x7e
 305 798 l 1
 408 895 l 1
 468 895 l 1
 334 750 l 1
 276 750 l 1
 142 895 l 1
 202 895 l 1x7e
599 20 m 1
 599 1 l 1
 599 1 588 -3 574 -3 c 0
 543 -3 496 15 496 127 c 0xbe
 496 313 399 326 367 326 c 2
 146 326 l 1
 146 0 l 1
 92 0 l 1
 92 686 l 1
 371 686 l 2
 468 686 561 619 561 516 c 0x7d
 561 443 508 367 438 354 c 1
 438 349 l 1
 438 349 548 332 548 153 c 0
 548 30 574 32 599 20 c 1
146 374 m 1
 374 374 l 2
 448 374 508 433 508 507 c 0x7d
 508 581 448 638 374 638 c 2
 146 638 l 1
 146 374 l 1
EndSplineSet
EndChar

StartChar: Rcommaaccent
Encoding: 342 342 73
Width: 670
GlyphClass: 2
Flags: MW
HStem: -149 69<301 325 301 366> -3 21G<558.5 581> 0 20 326 48<146 367 146 374> 638 48<146 371 371 374 146 146>
VStem: 92 54<0 326 374 638> 301 65<-138 -80 -138 -80 -138 -80> 496 52<91.5 220> 508 53<479.5 544>
AnchorPoint: "Bottom" 335 0 basechar 0
LayerCount: 2
Fore
SplineSet
599 20 m 1xbf
 599 1 l 1
 599 1 588 -3 574 -3 c 0
 543 -3 496 15 496 127 c 0xdf
 496 313 399 326 367 326 c 2
 146 326 l 1
 146 0 l 1
 92 0 l 1
 92 686 l 1
 371 686 l 2
 468 686 561 619 561 516 c 0xbe80
 561 443 508 367 438 354 c 1
 438 349 l 1
 438 349 548 332 548 153 c 0
 548 30 574 32 599 20 c 1xbf
146 374 m 1
 374 374 l 2
 448 374 508 433 508 507 c 0xbe80
 508 581 448 638 374 638 c 2
 146 638 l 1
 146 374 l 1
336 -250 m 1
 302 -250 l 2
 303 -250 325 -149 325 -149 c 1
 301 -149 l 1
 301 -80 l 1
 366 -80 l 1
 366 -138 l 1
 336 -250 l 1
EndSplineSet
EndChar

StartChar: S
Encoding: 83 83 74
Width: 627
GlyphClass: 2
Flags: MW
HStem: -10 48<242.5 349.5 242.5 366> 648 48<248.5 345.5>
VStem: 52 51<126 178 126 190> 69 53<428.5 570 428.5 587> 473 50<503 516 503 525 503 566.5> 490 53<128.5 290.5>
AnchorPoint: "Bottom" 314 0 basechar 0
LayerCount: 2
Fore
SplineSet
473 503 m 1xd8
 473 525 l 2xe8
 473 608 394 648 297 648 c 0
 200 648 122 615 122 525 c 0xd4
 122 332 543 447 543 188 c 0
 543 42 432 -10 300 -10 c 0
 164 -10 52 39 52 187 c 0
 52 193 53 205 53 205 c 1
 104 205 l 1
 103 178 l 2xe4
 103 74 189 38 296 38 c 0
 403 38 490 72 490 185 c 0xd4
 490 396 69 277 69 528 c 0
 69 646 175 696 296 696 c 0
 421 696 523 646 523 516 c 2
 523 503 l 1
 473 503 l 1xd8
EndSplineSet
Position2: "'cpsp' Capital Spacing lookup 0 subtable" dx=5 dy=0 dh=10 dv=0
EndChar

StartChar: Sacute
Encoding: 346 346 75
Width: 627
GlyphClass: 2
Flags: MW
HStem: -10 48<242.5 349.5 242.5 366> 648 48<248.5 345.5> 750 145<263 424 263 424>
VStem: 52 51<126 178 126 190> 69 53<428.5 570 428.5 587> 473 50<503 516 503 525 503 566.5> 490 53<128.5 290.5>
AnchorPoint: "Bottom" 314 0 basechar 0
LayerCount: 2
Fore
SplineSet
359 895 m 1xf2
 424 895 l 1
 424 892 l 1
 313 750 l 1
 263 750 l 1
 359 895 l 1xf2
473 503 m 1xec
 473 525 l 2xf4
 473 608 394 648 297 648 c 0
 200 648 122 615 122 525 c 0xea
 122 332 543 447 543 188 c 0
 543 42 432 -10 300 -10 c 0
 164 -10 52 39 52 187 c 0
 52 193 53 205 53 205 c 1
 104 205 l 1
 103 178 l 2xf2
 103 74 189 38 296 38 c 0
 403 38 490 72 490 185 c 0xea
 490 396 69 277 69 528 c 0
 69 646 175 696 296 696 c 0
 421 696 523 646 523 516 c 2
 523 503 l 1
 473 503 l 1xec
EndSplineSet
EndChar

StartChar: Scaron
Encoding: 352 352 76
Width: 627
GlyphClass: 2
Flags: MW
HStem: -10 48<242.5 349.5 242.5 366> 648 48<248.5 345.5> 750 145<139 331 139 273>
VStem: 52 51<126 178 126 190> 69 53<428.5 570 428.5 587> 473 50<503 516 503 525 503 566.5> 490 53<128.5 290.5>
LayerCount: 2
Fore
SplineSet
199 895 m 1xf2
 302 798 l 1
 405 895 l 1
 465 895 l 1
 331 750 l 1
 273 750 l 1
 139 895 l 1
 199 895 l 1xf2
473 503 m 1xec
 473 525 l 2xf4
 473 608 394 648 297 648 c 0
 200 648 122 615 122 525 c 0xea
 122 332 543 447 543 188 c 0
 543 42 432 -10 300 -10 c 0
 164 -10 52 39 52 187 c 0
 52 193 53 205 53 205 c 1
 104 205 l 1
 103 178 l 2xf2
 103 74 189 38 296 38 c 0
 403 38 490 72 490 185 c 0xea
 490 396 69 277 69 528 c 0
 69 646 175 696 296 696 c 0
 421 696 523 646 523 516 c 2
 523 503 l 1
 473 503 l 1xec
EndSplineSet
Position2: "'cpsp' Capital Spacing lookup 0 subtable" dx=5 dy=0 dh=10 dv=0
EndChar

StartChar: Scedilla
Encoding: 350 350 77
Width: 627
GlyphClass: 2
Flags: MW
HStem: -197 46<281.5 303.5 268.5 317> -184 21G<216 216> -51 34<281 303 281 306> -10 48<242.5 349.5 242.5 366> 648 48<248.5 345.5>
VStem: 52 51<126 178 126 190> 69 53<428.5 570 428.5 587> 361 51<-118.5 -81.5> 473 50<503 516 503 525 503 566.5> 490 53<128.5 290.5>
AnchorPoint: "Bottom" 314 0 basechar 0
LayerCount: 2
Fore
SplineSet
473 503 m 1x9b80
 473 525 l 2x5d80
 473 608 394 648 297 648 c 0
 200 648 122 615 122 525 c 0x9b40
 122 332 543 447 543 188 c 0
 543 42 432 -10 300 -10 c 0
 164 -10 52 39 52 187 c 0
 52 193 53 205 53 205 c 1
 104 205 l 1
 103 178 l 2x9d40
 103 74 189 38 296 38 c 0
 403 38 490 72 490 185 c 0x9b40
 490 396 69 277 69 528 c 0
 69 646 175 696 296 696 c 0
 421 696 523 646 523 516 c 2
 523 503 l 1
 473 503 l 1x9b80
216 -184 m 1
 216 -138 l 1
 229 -145 252 -151 285 -151 c 0
 322 -151 361 -140 361 -97 c 0
 361 -66 330 -51 303 -51 c 2
 281 -51 l 1
 281 -17 l 1
 306 -17 l 2
 360 -17 412 -37 412 -106 c 0
 412 -179 340 -197 294 -197 c 0xad40
 269 -197 240 -193 216 -184 c 1
EndSplineSet
EndChar

StartChar: Scommaaccent
Encoding: 536 536 78
Width: 627
GlyphClass: 2
Flags: MW
HStem: -149 69<280 304 280 345> -10 48<242.5 349.5 242.5 366> 648 48<248.5 345.5>
VStem: 52 51<126 178 126 190> 69 53<428.5 570 428.5 587> 280 65<-138 -80 -138 -80 -138 -80> 473 50<503 516 503 525 503 566.5> 490 53<128.5 290.5>
AnchorPoint: "Bottom" 314 0 basechar 0
LayerCount: 2
Fore
SplineSet
473 503 m 1xee
 473 525 l 2xf6
 473 608 394 648 297 648 c 0
 200 648 122 615 122 525 c 0xed
 122 332 543 447 543 188 c 0
 543 42 432 -10 300 -10 c 0
 164 -10 52 39 52 187 c 0
 52 193 53 205 53 205 c 1
 104 205 l 1
 103 178 l 2xf5
 103 74 189 38 296 38 c 0
 403 38 490 72 490 185 c 0xed
 490 396 69 277 69 528 c 0
 69 646 175 696 296 696 c 0
 421 696 523 646 523 516 c 2
 523 503 l 1
 473 503 l 1xee
315 -250 m 1
 281 -250 l 2
 282 -250 304 -149 304 -149 c 1
 280 -149 l 1
 280 -80 l 1
 345 -80 l 1
 345 -138 l 1
 315 -250 l 1
EndSplineSet
EndChar

StartChar: T
Encoding: 84 84 79
Width: 578
GlyphClass: 2
Flags: MW
HStem: 0 21G<257 309 257 257> 638 48<25 257 25 541 309 309 309 541>
VStem: 257 52<0 638>
AnchorPoint: "Bottom" 283 0 basechar 0
LayerCount: 2
Fore
SplineSet
309 0 m 1
 257 0 l 1
 257 638 l 1
 25 638 l 1
 25 686 l 1
 541 686 l 1
 541 638 l 1
 309 638 l 1
 309 0 l 1
EndSplineSet
Position2: "'cpsp' Capital Spacing lookup 0 subtable" dx=5 dy=0 dh=10 dv=0
EndChar

StartChar: Tcaron
Encoding: 356 356 80
Width: 578
GlyphClass: 2
Flags: MW
HStem: 0 21G<257 309 257 257> 638 48<25 257 25 541 309 309 309 541> 750 145<120 312 120 254>
VStem: 257 52<0 638>
AnchorPoint: "Bottom" 283 0 basechar 0
LayerCount: 2
Fore
SplineSet
180 895 m 1
 283 798 l 1
 386 895 l 1
 446 895 l 1
 312 750 l 1
 254 750 l 1
 120 895 l 1
 180 895 l 1
309 0 m 1
 257 0 l 1
 257 638 l 1
 25 638 l 1
 25 686 l 1
 541 686 l 1
 541 638 l 1
 309 638 l 1
 309 0 l 1
EndSplineSet
EndChar

StartChar: Tcedilla
Encoding: 354 354 81
Width: 578
GlyphClass: 2
Flags: MW
HStem: -197 46<250.5 272.5 237.5 286> -184 21G<185 185> -51 34<250 272 250 275> 0 21G<257 309 257 257> 638 48<25 257 25 541 309 309 309 541>
VStem: 257 52<0 638> 330 51<-118.5 -81.5>
AnchorPoint: "Bottom" 283 0 basechar 0
LayerCount: 2
Fore
SplineSet
309 0 m 1x9c
 257 0 l 1
 257 638 l 1
 25 638 l 1
 25 686 l 1
 541 686 l 1
 541 638 l 1
 309 638 l 1
 309 0 l 1x9c
185 -184 m 1x5c
 185 -138 l 1
 198 -145 221 -151 254 -151 c 0
 291 -151 330 -140 330 -97 c 0
 330 -66 299 -51 272 -51 c 2xbe
 250 -51 l 1
 250 -17 l 1xbc
 275 -17 l 2
 329 -17 381 -37 381 -106 c 0
 381 -179 309 -197 263 -197 c 0xbe
 238 -197 209 -193 185 -184 c 1x5c
EndSplineSet
EndChar

StartChar: Tcommaaccent
Encoding: 538 538 82
Width: 578
GlyphClass: 2
Flags: MW
HStem: -149 69<249 273 249 314> 0 21G<257 309 257 257> 638 48<25 257 25 541 309 309 309 541>
VStem: 249 65<-138 -80 -138 -80 -138 -80> 257 52<0 638>
AnchorPoint: "Bottom" 283 0 basechar 0
LayerCount: 2
Fore
SplineSet
309 0 m 1xe8
 257 0 l 1
 257 638 l 1
 25 638 l 1
 25 686 l 1
 541 686 l 1
 541 638 l 1
 309 638 l 1
 309 0 l 1xe8
284 -250 m 1xf0
 250 -250 l 2
 251 -250 273 -149 273 -149 c 1
 249 -149 l 1
 249 -80 l 1
 314 -80 l 1
 314 -138 l 1
 284 -250 l 1xf0
EndSplineSet
EndChar

StartChar: U
Encoding: 85 85 83
Width: 680
GlyphClass: 2
Flags: MW
HStem: -10 48<265 383.5 265 396> 666 20G<86 140 140 140 509 563 563 563>
VStem: 86 54<220 222 222 686> 509 54<222 686>
LayerCount: 2
Fore
SplineSet
563 686 m 1
 563 220 l 2
 563 81 468 -10 324 -10 c 0
 180 -10 86 81 86 220 c 2
 86 686 l 1
 140 686 l 1
 140 222 l 2
 140 111 206 38 324 38 c 0
 443 38 509 114 509 222 c 2
 509 686 l 1
 563 686 l 1
EndSplineSet
Position2: "'cpsp' Capital Spacing lookup 0 subtable" dx=5 dy=0 dh=10 dv=0
EndChar

StartChar: Uacute
Encoding: 218 218 84
Width: 680
GlyphClass: 2
Flags: MW
HStem: -10 48<265 383.5 265 396> 666 20G<86 140 140 140 509 563 563 563> 750 145<298 459 298 459>
VStem: 86 54<220 222 222 686> 509 54<222 686>
LayerCount: 2
Fore
SplineSet
394 895 m 1
 459 895 l 1
 459 892 l 1
 348 750 l 1
 298 750 l 1
 394 895 l 1
563 686 m 1
 563 220 l 2
 563 81 468 -10 324 -10 c 0
 180 -10 86 81 86 220 c 2
 86 686 l 1
 140 686 l 1
 140 222 l 2
 140 111 206 38 324 38 c 0
 443 38 509 114 509 222 c 2
 509 686 l 1
 563 686 l 1
EndSplineSet
Position2: "'cpsp' Capital Spacing lookup 0 subtable" dx=5 dy=0 dh=10 dv=0
EndChar

StartChar: Ucircumflex
Encoding: 219 219 85
Width: 680
GlyphClass: 2
Flags: MW
HStem: -10 48<265 383.5 265 396> 666 20G<86 140 140 140 509 563 563 563> 750 145<162 354 162 354 296 488 296 428>
VStem: 86 54<220 222 222 686> 509 54<222 686>
LayerCount: 2
Fore
SplineSet
354 895 m 1
 488 750 l 1
 428 750 l 1
 325 847 l 1
 222 750 l 1
 162 750 l 1
 296 895 l 1
 354 895 l 1
563 686 m 1
 563 220 l 2
 563 81 468 -10 324 -10 c 0
 180 -10 86 81 86 220 c 2
 86 686 l 1
 140 686 l 1
 140 222 l 2
 140 111 206 38 324 38 c 0
 443 38 509 114 509 222 c 2
 509 686 l 1
 563 686 l 1
EndSplineSet
Position2: "'cpsp' Capital Spacing lookup 0 subtable" dx=5 dy=0 dh=10 dv=0
EndChar

StartChar: Udieresis
Encoding: 220 220 86
Width: 680
GlyphClass: 2
Flags: MW
HStem: -10 48<265 383.5 265 396> 666 20G<86 140 140 140 509 563 563 563> 751 69<204 269 204 269 380 445>
VStem: 86 54<220 222 222 686> 204 65<751 820 751 820> 380 65<751 820 751 820> 509 54<222 686>
LayerCount: 2
Fore
SplineSet
269 820 m 1
 269 751 l 1
 204 751 l 1
 204 820 l 1
 269 820 l 1
445 820 m 1
 445 751 l 1
 380 751 l 1
 380 820 l 1
 445 820 l 1
563 686 m 1
 563 220 l 2
 563 81 468 -10 324 -10 c 0
 180 -10 86 81 86 220 c 2
 86 686 l 1
 140 686 l 1
 140 222 l 2
 140 111 206 38 324 38 c 0
 443 38 509 114 509 222 c 2
 509 686 l 1
 563 686 l 1
EndSplineSet
Position2: "'cpsp' Capital Spacing lookup 0 subtable" dx=5 dy=0 dh=10 dv=0
EndChar

StartChar: Ugrave
Encoding: 217 217 87
Width: 680
GlyphClass: 2
Flags: MW
HStem: -10 48<265 383.5 265 396> 666 20G<86 140 140 140 509 563 563 563> 750 145<195 356 195 306>
VStem: 86 54<220 222 222 686> 509 54<222 686>
LayerCount: 2
Fore
SplineSet
195 892 m 1
 195 895 l 1
 260 895 l 1
 356 750 l 1
 306 750 l 1
 195 892 l 1
563 686 m 1
 563 220 l 2
 563 81 468 -10 324 -10 c 0
 180 -10 86 81 86 220 c 2
 86 686 l 1
 140 686 l 1
 140 222 l 2
 140 111 206 38 324 38 c 0
 443 38 509 114 509 222 c 2
 509 686 l 1
 563 686 l 1
EndSplineSet
Position2: "'cpsp' Capital Spacing lookup 0 subtable" dx=5 dy=0 dh=10 dv=0
EndChar

StartChar: Uhungarumlaut
Encoding: 368 368 88
Width: 680
GlyphClass: 2
Flags: MW
HStem: -10 48<265 383.5 265 396> 666 20G<86 140 140 140 509 563 563 563> 750 145<242 402 242 402 367 367 367 402 338 417>
VStem: 86 54<220 222 222 686> 509 54<222 686>
LayerCount: 2
Fore
SplineSet
338 895 m 1
 402 895 l 1
 403 892 l 1
 292 750 l 1
 242 750 l 1
 338 895 l 1
463 895 m 1
 527 895 l 1
 528 892 l 1
 417 750 l 1
 367 750 l 1
 463 895 l 1
563 686 m 1
 563 220 l 2
 563 81 468 -10 324 -10 c 0
 180 -10 86 81 86 220 c 2
 86 686 l 1
 140 686 l 1
 140 222 l 2
 140 111 206 38 324 38 c 0
 443 38 509 114 509 222 c 2
 509 686 l 1
 563 686 l 1
EndSplineSet
EndChar

StartChar: Umacron
Encoding: 362 362 89
Width: 680
GlyphClass: 2
Flags: MW
HStem: -10 48<265 383.5 265 396> 666 20G<86 140 140 140 509 563 563 563> 867 44<166 484 166 484>
VStem: 86 54<220 222 222 686> 509 54<222 686>
LayerCount: 2
Fore
SplineSet
166 911 m 1
 484 911 l 1
 484 867 l 1
 166 867 l 1
 166 911 l 1
563 686 m 1
 563 220 l 2
 563 81 468 -10 324 -10 c 0
 180 -10 86 81 86 220 c 2
 86 686 l 1
 140 686 l 1
 140 222 l 2
 140 111 206 38 324 38 c 0
 443 38 509 114 509 222 c 2
 509 686 l 1
 563 686 l 1
EndSplineSet
EndChar

StartChar: Uogonek
Encoding: 370 370 90
Width: 680
GlyphClass: 2
Flags: MW
HStem: -143 43<386.5 407.5> -10 48<265 324 324 336> -2 21G<397 397> 666 20G<86 140 140 140 509 563 563 563>
VStem: 86 54<220 222 222 686> 296 57<-75.5 -58> 509 54<222 686>
LayerCount: 2
Fore
SplineSet
563 686 m 1xde
 563 220 l 2
 563 107 500 25 399 -1 c 1
 397 -2 l 2xbe
 377 -16 353 -33 353 -60 c 0
 353 -91 376 -100 397 -100 c 0
 421 -100 443 -93 464 -86 c 1
 477 -119 l 1
 451 -135 422 -143 393 -143 c 0
 347 -143 296 -126 296 -71 c 0
 296 -45 316 -25 336 -10 c 1
 324 -10 l 2
 180 -10 86 81 86 220 c 2
 86 686 l 1
 140 686 l 1
 140 222 l 2
 140 111 206 38 324 38 c 0
 443 38 509 114 509 222 c 2
 509 686 l 1
 563 686 l 1xde
EndSplineSet
EndChar

StartChar: Uring
Encoding: 366 366 91
Width: 680
GlyphClass: 2
Flags: MW
HStem: -10 48<265 383.5 265 396> 666 20G<86 140 140 140 509 563 563 563> 720 36<307.5 343 307.5 353> 885 36<307 342.5>
VStem: 86 54<220 222 222 686> 224 36<802 838 802 848> 390 36<802.5 838.5> 509 54<222 686>
LayerCount: 2
Fore
SplineSet
426 820 m 0
 426 765 381 720 325 720 c 0
 270 720 224 764 224 820 c 0
 224 876 269 921 325 921 c 0
 380 921 426 877 426 820 c 0
390 820 m 0
 390 857 360 885 325 885 c 0
 289 885 260 856 260 820 c 0
 260 784 290 756 325 756 c 0
 361 756 390 785 390 820 c 0
563 686 m 1
 563 220 l 2
 563 81 468 -10 324 -10 c 0
 180 -10 86 81 86 220 c 2
 86 686 l 1
 140 686 l 1
 140 222 l 2
 140 111 206 38 324 38 c 0
 443 38 509 114 509 222 c 2
 509 686 l 1
 563 686 l 1
EndSplineSet
EndChar

StartChar: V
Encoding: 86 86 92
Width: 603
GlyphClass: 2
Flags: MW
HStem: 0 21G<265 313 265 265> 0 86<289 294 289 313 265 294> 666 20G<5 64 64 64 519 572 572 572>
VStem: 5 567<686 686>
LayerCount: 2
Fore
SplineSet
572 686 m 1xb0
 313 0 l 1
 265 0 l 1
 5 686 l 1
 64 686 l 1
 289 86 l 1
 294 86 l 1x70
 519 686 l 1
 572 686 l 1xb0
EndSplineSet
Position2: "'cpsp' Capital Spacing lookup 0 subtable" dx=5 dy=0 dh=10 dv=0
EndChar

StartChar: W
Encoding: 87 87 93
Width: 916
GlyphClass: 2
Flags: MW
HStem: 0 21G<214 260 214 214 602 648 602 602> 0 107<239 243 239 260 214 243 627 631> 581 105<429 433 429 429> 666 20G<14 72 72 72 410 460 460 460 798 848 848 848>
VStem: 14 834<686 686>
LayerCount: 2
Fore
SplineSet
848 686 m 1x98
 648 0 l 1
 602 0 l 1
 433 581 l 1
 429 581 l 1xa8
 260 0 l 1
 214 0 l 1
 14 686 l 1
 72 686 l 1
 239 107 l 1
 243 107 l 1
 410 686 l 1
 460 686 l 1
 627 107 l 1
 631 107 l 1x58
 798 686 l 1
 848 686 l 1x98
EndSplineSet
Position2: "'cpsp' Capital Spacing lookup 0 subtable" dx=5 dy=0 dh=10 dv=0
EndChar

StartChar: X
Encoding: 88 88 94
Width: 631
GlyphClass: 2
Flags: MW
HStem: 0 21G<9 68 9 9 516 581 516 516> 666 20G<32 97 97 97 500 559 559 559>
VStem: 9 572<0 0>
LayerCount: 2
Fore
SplineSet
581 0 m 1
 516 0 l 1
 294 315 l 1
 292 315 l 1
 68 0 l 1
 9 0 l 1
 264 359 l 1
 32 686 l 1
 97 686 l 1
 296 402 l 1
 298 402 l 1
 500 686 l 1
 559 686 l 1
 326 359 l 1
 581 0 l 1
EndSplineSet
Position2: "'cpsp' Capital Spacing lookup 0 subtable" dx=5 dy=0 dh=10 dv=0
EndChar

StartChar: Y
Encoding: 89 89 95
Width: 572
GlyphClass: 2
Flags: MW
HStem: 0 21G<241 295 241 241> 666 20G<-5 58 58 58 486 541 541 541>
VStem: 241 54<0 266>
LayerCount: 2
Fore
SplineSet
295 0 m 1
 241 0 l 1
 241 266 l 1
 -5 686 l 1
 58 686 l 1
 269 321 l 1
 272 321 l 1
 486 686 l 1
 541 686 l 1
 295 266 l 1
 295 0 l 1
EndSplineSet
Position2: "'cpsp' Capital Spacing lookup 0 subtable" dx=5 dy=0 dh=10 dv=0
EndChar

StartChar: Yacute
Encoding: 221 221 96
Width: 572
GlyphClass: 2
Flags: MW
HStem: 0 21G<241 295 241 241> 666 20G<-5 58 58 58 486 541 541 541> 750 145<255 416 255 416>
VStem: 241 54<0 266>
LayerCount: 2
Fore
SplineSet
351 895 m 1
 416 895 l 1
 416 892 l 1
 305 750 l 1
 255 750 l 1
 351 895 l 1
295 0 m 1
 241 0 l 1
 241 266 l 1
 -5 686 l 1
 58 686 l 1
 269 321 l 1
 272 321 l 1
 486 686 l 1
 541 686 l 1
 295 266 l 1
 295 0 l 1
EndSplineSet
Position2: "'cpsp' Capital Spacing lookup 0 subtable" dx=5 dy=0 dh=10 dv=0
EndChar

StartChar: Ydieresis
Encoding: 376 376 97
Width: 572
GlyphClass: 2
Flags: MW
HStem: 0 21G<241 295 241 241> 666 20G<-5 58 58 58 486 541 541 541> 750 69<151 216 151 216 327 392>
VStem: 151 65<750 819 750 819> 241 54<0 266> 327 65<750 819 750 819>
LayerCount: 2
Fore
SplineSet
216 819 m 1
 216 750 l 1
 151 750 l 1
 151 819 l 1
 216 819 l 1
392 819 m 1
 392 750 l 1
 327 750 l 1
 327 819 l 1
 392 819 l 1
295 0 m 1xec
 241 0 l 1
 241 266 l 1
 -5 686 l 1
 58 686 l 1
 269 321 l 1
 272 321 l 1
 486 686 l 1
 541 686 l 1
 295 266 l 1
 295 0 l 1xec
EndSplineSet
Position2: "'cpsp' Capital Spacing lookup 0 subtable" dx=5 dy=0 dh=10 dv=0
EndChar

StartChar: Z
Encoding: 90 90 98
Width: 596
GlyphClass: 2
Flags: MW
HStem: 0 48<113 535 113 535> 638 48<56 445 56 527>
VStem: 32 503<0 25 25 25>
LayerCount: 2
Fore
SplineSet
32 25 m 1
 445 638 l 1
 56 638 l 1
 56 686 l 1
 527 686 l 1
 527 662 l 1
 113 48 l 1
 535 48 l 1
 535 0 l 1
 32 0 l 1
 32 25 l 1
EndSplineSet
Position2: "'cpsp' Capital Spacing lookup 0 subtable" dx=5 dy=0 dh=10 dv=0
EndChar

StartChar: Zacute
Encoding: 377 377 99
Width: 596
GlyphClass: 2
Flags: MW
HStem: 0 48<113 535 113 535> 638 48<56 445 56 527> 750 145<267 428 267 428>
VStem: 32 503<0 25 25 25>
LayerCount: 2
Fore
SplineSet
363 895 m 1
 428 895 l 1
 428 892 l 1
 317 750 l 1
 267 750 l 1
 363 895 l 1
32 25 m 1
 445 638 l 1
 56 638 l 1
 56 686 l 1
 527 686 l 1
 527 662 l 1
 113 48 l 1
 535 48 l 1
 535 0 l 1
 32 0 l 1
 32 25 l 1
EndSplineSet
EndChar

StartChar: Zcaron
Encoding: 381 381 100
Width: 596
GlyphClass: 2
Flags: MW
HStem: 0 48<113 535 113 535> 638 48<56 445 56 527> 750 145<127 319 127 261>
VStem: 32 503<0 25 25 25>
LayerCount: 2
Fore
SplineSet
187 895 m 1
 290 798 l 1
 393 895 l 1
 453 895 l 1
 319 750 l 1
 261 750 l 1
 127 895 l 1
 187 895 l 1
32 25 m 1
 445 638 l 1
 56 638 l 1
 56 686 l 1
 527 686 l 1
 527 662 l 1
 113 48 l 1
 535 48 l 1
 535 0 l 1
 32 0 l 1
 32 25 l 1
EndSplineSet
Position2: "'cpsp' Capital Spacing lookup 0 subtable" dx=5 dy=0 dh=10 dv=0
EndChar

StartChar: Zdotaccent
Encoding: 379 379 101
Width: 596
GlyphClass: 2
Flags: MW
HStem: 0 48<113 535 113 535> 638 48<56 445 56 527> 779 132<279.5 315.5>
VStem: 232 132<827 863 826 863.5>
LayerCount: 2
Fore
SplineSet
364 845 m 0
 364 807 334 779 297 779 c 0
 262 779 232 809 232 845 c 0
 232 882 261 911 298 911 c 0
 335 911 364 881 364 845 c 0
32 25 m 1
 445 638 l 1
 56 638 l 1
 56 686 l 1
 527 686 l 1
 527 662 l 1
 113 48 l 1
 535 48 l 1
 535 0 l 1
 32 0 l 1
 32 25 l 1
EndSplineSet
EndChar

StartChar: a
Encoding: 97 97 102
Width: 585
GlyphClass: 2
Flags: MW
HStem: -10 46<176.5 250 466.5 472> 250 46<306 396> 475 46<222 310.5>
VStem: 48 51<99 187.5 99 207.5> 66 51<355 426> 396 51<61.5 69 69 89 216 250 250 250 296 360 360 370>
LayerCount: 2
Fore
SplineSet
447 370 m 2xf4
 447 69 l 2
 447 45 459 36 474 36 c 0
 489 36 509 43 524 52 c 1
 524 9 l 1
 506 -3 484 -10 460 -10 c 0
 409 -10 396 34 396 89 c 1
 354 19 291 -10 209 -10 c 0
 127 -10 48 20 48 133 c 0xf4
 48 282 194 296 396 296 c 1
 396 360 l 2
 396 447 358 475 263 475 c 0
 181 475 117 446 117 371 c 2
 117 355 l 1
 68 355 l 1
 67 363 66 372 66 381 c 0xec
 66 471 153 521 263 521 c 0
 387 521 447 473 447 370 c 2xf4
396 216 m 2
 396 250 l 1
 216 250 99 243 99 132 c 0
 99 66 134 36 219 36 c 0
 305 36 396 92 396 216 c 2
EndSplineSet
Substitution2: "Single Substitution lookup 5 subtable" ordfeminine
Substitution2: "'aalt' Access All Alternates lookup 0 subtable" ordfeminine
EndChar

StartChar: aacute
Encoding: 225 225 103
Width: 585
GlyphClass: 2
Flags: MW
HStem: -10 46<176.5 250 466.5 472> 250 46<306 396> 475 46<222 310.5> 575 145<251 412 251 412>
VStem: 48 51<99 187.5 99 207.5> 66 51<355 426> 396 51<61.5 69 69 89 216 250 250 250 296 360 360 370>
LayerCount: 2
Fore
SplineSet
347 720 m 1xfa
 412 720 l 1
 412 717 l 1
 301 575 l 1
 251 575 l 1
 347 720 l 1xfa
447 370 m 2
 447 69 l 2
 447 45 459 36 474 36 c 0
 489 36 509 43 524 52 c 1
 524 9 l 1
 506 -3 484 -10 460 -10 c 0
 409 -10 396 34 396 89 c 1
 354 19 291 -10 209 -10 c 0
 127 -10 48 20 48 133 c 0xfa
 48 282 194 296 396 296 c 1
 396 360 l 2
 396 447 358 475 263 475 c 0
 181 475 117 446 117 371 c 2
 117 355 l 1
 68 355 l 1
 67 363 66 372 66 381 c 0xf6
 66 471 153 521 263 521 c 0
 387 521 447 473 447 370 c 2
396 216 m 2
 396 250 l 1
 216 250 99 243 99 132 c 0
 99 66 134 36 219 36 c 0
 305 36 396 92 396 216 c 2
EndSplineSet
EndChar

StartChar: abreve
Encoding: 259 259 104
Width: 585
GlyphClass: 2
Flags: MW
HStem: -10 46<176.5 250 466.5 472> 250 46<306 396> 475 46<222 310.5> 613 49<229.5 294.5 229.5 315.5>
VStem: 48 51<99 187.5 99 207.5> 66 51<355 426> 396 51<61.5 69 69 89 216 250 250 250 296 360 360 370>
LayerCount: 2
Fore
SplineSet
262 613 m 0xfa
 156 613 70 680 70 737 c 1
 126 737 l 1
 142 687 197 662 262 662 c 0
 327 662 382 687 399 737 c 1
 455 737 l 1
 455 680 369 613 262 613 c 0xfa
447 370 m 2
 447 69 l 2
 447 45 459 36 474 36 c 0
 489 36 509 43 524 52 c 1
 524 9 l 1
 506 -3 484 -10 460 -10 c 0
 409 -10 396 34 396 89 c 1
 354 19 291 -10 209 -10 c 0
 127 -10 48 20 48 133 c 0xfa
 48 282 194 296 396 296 c 1
 396 360 l 2
 396 447 358 475 263 475 c 0
 181 475 117 446 117 371 c 2
 117 355 l 1
 68 355 l 1
 67 363 66 372 66 381 c 0xf6
 66 471 153 521 263 521 c 0
 387 521 447 473 447 370 c 2
396 216 m 2
 396 250 l 1
 216 250 99 243 99 132 c 0
 99 66 134 36 219 36 c 0
 305 36 396 92 396 216 c 2
EndSplineSet
EndChar

StartChar: acircumflex
Encoding: 226 226 105
Width: 585
GlyphClass: 2
Flags: MW
HStem: -10 46<176.5 250 466.5 472> 250 46<306 396> 475 46<222 310.5> 575 145<109 301 109 301 243 435 243 375>
VStem: 48 51<99 187.5 99 207.5> 66 51<355 426> 396 51<61.5 69 69 89 216 250 250 250 296 360 360 370>
LayerCount: 2
Fore
SplineSet
301 720 m 1xfa
 435 575 l 1
 375 575 l 1
 272 672 l 1
 169 575 l 1
 109 575 l 1
 243 720 l 1
 301 720 l 1xfa
447 370 m 2
 447 69 l 2
 447 45 459 36 474 36 c 0
 489 36 509 43 524 52 c 1
 524 9 l 1
 506 -3 484 -10 460 -10 c 0
 409 -10 396 34 396 89 c 1
 354 19 291 -10 209 -10 c 0
 127 -10 48 20 48 133 c 0xfa
 48 282 194 296 396 296 c 1
 396 360 l 2
 396 447 358 475 263 475 c 0
 181 475 117 446 117 371 c 2
 117 355 l 1
 68 355 l 1
 67 363 66 372 66 381 c 0xf6
 66 471 153 521 263 521 c 0
 387 521 447 473 447 370 c 2
396 216 m 2
 396 250 l 1
 216 250 99 243 99 132 c 0
 99 66 134 36 219 36 c 0
 305 36 396 92 396 216 c 2
EndSplineSet
EndChar

StartChar: adieresis
Encoding: 228 228 106
Width: 585
GlyphClass: 2
Flags: MW
HStem: -10 46<176.5 250 466.5 472> 250 46<306 396> 475 46<222 310.5> 651 69<143 208 143 208 319 384>
VStem: 48 51<99 187.5 99 207.5> 66 51<355 426> 143 65<651 720 651 720> 319 65<651 720 651 720> 396 51<61.5 69 69 89 216 250 250 250 296 360 360 370>
LayerCount: 2
Fore
SplineSet
208 720 m 1xfa80
 208 651 l 1
 143 651 l 1
 143 720 l 1
 208 720 l 1xfa80
384 720 m 1xfb80
 384 651 l 1
 319 651 l 1
 319 720 l 1
 384 720 l 1xfb80
447 370 m 2xf680
 447 69 l 2
 447 45 459 36 474 36 c 0
 489 36 509 43 524 52 c 1
 524 9 l 1
 506 -3 484 -10 460 -10 c 0
 409 -10 396 34 396 89 c 1
 354 19 291 -10 209 -10 c 0
 127 -10 48 20 48 133 c 0xfa80
 48 282 194 296 396 296 c 1
 396 360 l 2
 396 447 358 475 263 475 c 0
 181 475 117 446 117 371 c 2
 117 355 l 1
 68 355 l 1
 67 363 66 372 66 381 c 0
 66 471 153 521 263 521 c 0
 387 521 447 473 447 370 c 2xf680
396 216 m 2
 396 250 l 1
 216 250 99 243 99 132 c 0
 99 66 134 36 219 36 c 0
 305 36 396 92 396 216 c 2
EndSplineSet
EndChar

StartChar: agrave
Encoding: 224 224 107
Width: 585
GlyphClass: 2
Flags: MW
HStem: -10 46<176.5 250 466.5 472> 250 46<306 396> 475 46<222 310.5> 575 145<139 300 139 250>
VStem: 48 51<99 187.5 99 207.5> 66 51<355 426> 396 51<61.5 69 69 89 216 250 250 250 296 360 360 370>
LayerCount: 2
Fore
SplineSet
139 717 m 1xfa
 139 720 l 1
 204 720 l 1
 300 575 l 1
 250 575 l 1
 139 717 l 1xfa
447 370 m 2
 447 69 l 2
 447 45 459 36 474 36 c 0
 489 36 509 43 524 52 c 1
 524 9 l 1
 506 -3 484 -10 460 -10 c 0
 409 -10 396 34 396 89 c 1
 354 19 291 -10 209 -10 c 0
 127 -10 48 20 48 133 c 0xfa
 48 282 194 296 396 296 c 1
 396 360 l 2
 396 447 358 475 263 475 c 0
 181 475 117 446 117 371 c 2
 117 355 l 1
 68 355 l 1
 67 363 66 372 66 381 c 0xf6
 66 471 153 521 263 521 c 0
 387 521 447 473 447 370 c 2
396 216 m 2
 396 250 l 1
 216 250 99 243 99 132 c 0
 99 66 134 36 219 36 c 0
 305 36 396 92 396 216 c 2
EndSplineSet
EndChar

StartChar: amacron
Encoding: 257 257 108
Width: 585
GlyphClass: 2
Flags: MW
HStem: -10 46<176.5 250 466.5 472> 250 46<306 396> 475 46<222 310.5> 692 44<104 422 104 422>
VStem: 48 51<99 187.5 99 207.5> 66 51<355 426> 396 51<61.5 69 69 89 216 250 250 250 296 360 360 370>
LayerCount: 2
Fore
SplineSet
104 736 m 1xfa
 422 736 l 1
 422 692 l 1
 104 692 l 1
 104 736 l 1xfa
447 370 m 2
 447 69 l 2
 447 45 459 36 474 36 c 0
 489 36 509 43 524 52 c 1
 524 9 l 1
 506 -3 484 -10 460 -10 c 0
 409 -10 396 34 396 89 c 1
 354 19 291 -10 209 -10 c 0
 127 -10 48 20 48 133 c 0xfa
 48 282 194 296 396 296 c 1
 396 360 l 2
 396 447 358 475 263 475 c 0
 181 475 117 446 117 371 c 2
 117 355 l 1
 68 355 l 1
 67 363 66 372 66 381 c 0xf6
 66 471 153 521 263 521 c 0
 387 521 447 473 447 370 c 2
396 216 m 2
 396 250 l 1
 216 250 99 243 99 132 c 0
 99 66 134 36 219 36 c 0
 305 36 396 92 396 216 c 2
EndSplineSet
EndChar

StartChar: aogonek
Encoding: 261 261 109
Width: 585
GlyphClass: 2
Flags: MW
HStem: -143 43<510.5 531.5> -10 46<176.5 250> 0 21G<508 524 524 524> 250 46<306 396> 475 46<222 310.5>
VStem: 48 51<99 187.5 99 207.5> 66 51<355 426> 396 51<61.5 69 69 89 216 250 250 250 296 360 360 370> 420 57<-75.5 -58>
LayerCount: 2
Fore
SplineSet
588 -86 m 1xdd
 601 -119 l 1
 575 -135 546 -143 517 -143 c 0
 471 -143 420 -126 420 -71 c 0xdc80
 420 -45 440 -25 460 -10 c 1
 409 -10 396 34 396 89 c 1
 354 19 291 -10 209 -10 c 0
 127 -10 48 20 48 133 c 0xdd
 48 282 194 296 396 296 c 1
 396 360 l 2
 396 447 358 475 263 475 c 0
 181 475 117 446 117 371 c 2
 117 355 l 1
 68 355 l 1
 67 363 66 372 66 381 c 0
 66 471 153 521 263 521 c 0
 387 521 447 473 447 370 c 2
 447 69 l 2
 447 45 459 36 474 36 c 0
 489 36 509 43 524 52 c 1
 524 9 l 1
 519 6 513 3 508 0 c 2xdb
 524 0 l 1
 521 -2 l 2
 501 -16 477 -33 477 -60 c 0
 477 -91 500 -100 521 -100 c 0xbc80
 545 -100 567 -93 588 -86 c 1xdd
396 216 m 2xdd
 396 250 l 1
 216 250 99 243 99 132 c 0
 99 66 134 36 219 36 c 0
 305 36 396 92 396 216 c 2xdd
EndSplineSet
EndChar

StartChar: aring
Encoding: 229 229 110
Width: 585
GlyphClass: 2
Flags: MW
HStem: -10 46<176.5 250 466.5 472> 250 46<306 396> 475 46<222 310.5> 555 36<246.5 282 246.5 292> 720 36<246 281.5>
VStem: 48 51<99 187.5 99 207.5> 66 51<355 426> 163 36<637 673 637 683> 329 36<637.5 673.5> 396 51<61.5 69 69 89 216 250 250 250 296 360 360 370>
LayerCount: 2
Fore
SplineSet
365 655 m 0xfdc0
 365 600 320 555 264 555 c 0
 209 555 163 599 163 655 c 0
 163 711 208 756 264 756 c 0
 319 756 365 712 365 655 c 0xfdc0
329 655 m 0
 329 692 299 720 264 720 c 0
 228 720 199 691 199 655 c 0
 199 619 229 591 264 591 c 0
 300 591 329 620 329 655 c 0
447 370 m 2
 447 69 l 2
 447 45 459 36 474 36 c 0
 489 36 509 43 524 52 c 1
 524 9 l 1
 506 -3 484 -10 460 -10 c 0
 409 -10 396 34 396 89 c 1
 354 19 291 -10 209 -10 c 0
 127 -10 48 20 48 133 c 0xfdc0
 48 282 194 296 396 296 c 1
 396 360 l 2
 396 447 358 475 263 475 c 0
 181 475 117 446 117 371 c 2
 117 355 l 1
 68 355 l 1
 67 363 66 372 66 381 c 0xfbc0
 66 471 153 521 263 521 c 0
 387 521 447 473 447 370 c 2
396 216 m 2
 396 250 l 1
 216 250 99 243 99 132 c 0
 99 66 134 36 219 36 c 0
 305 36 396 92 396 216 c 2
EndSplineSet
EndChar

StartChar: atilde
Encoding: 227 227 111
Width: 585
GlyphClass: 2
Flags: MW
HStem: -10 46<176.5 250 466.5 472> 250 46<306 396> 475 46<222 310.5> 638 50<322 365.5 322 381.5> 670 50<158.5 202>
VStem: 48 51<99 187.5 99 207.5> 66 51<355 426> 396 51<61.5 69 69 89 216 250 250 250 296 360 360 370>
LayerCount: 2
Fore
SplineSet
406 720 m 1xf5
 443 720 l 1
 443 688 421 638 342 638 c 0xf3
 278 638 229 670 175 670 c 0xed
 142 670 125 661 118 638 c 1
 81 638 l 1
 81 670 104 720 182 720 c 0
 246 720 295 688 349 688 c 0
 382 688 399 697 406 720 c 1xf5
447 370 m 2
 447 69 l 2
 447 45 459 36 474 36 c 0
 489 36 509 43 524 52 c 1
 524 9 l 1
 506 -3 484 -10 460 -10 c 0
 409 -10 396 34 396 89 c 1
 354 19 291 -10 209 -10 c 0
 127 -10 48 20 48 133 c 0xf5
 48 282 194 296 396 296 c 1
 396 360 l 2
 396 447 358 475 263 475 c 0
 181 475 117 446 117 371 c 2
 117 355 l 1
 68 355 l 1
 67 363 66 372 66 381 c 0
 66 471 153 521 263 521 c 0
 387 521 447 473 447 370 c 2
396 216 m 2
 396 250 l 1
 216 250 99 243 99 132 c 0
 99 66 134 36 219 36 c 0
 305 36 396 92 396 216 c 2
EndSplineSet
EndChar

StartChar: ae
Encoding: 230 230 112
Width: 895
GlyphClass: 2
Flags: MW
HStem: -10 46<173.5 247.5 566.5 649.5> 250 46<306 396 448 759> 475 46<222 310.5 572.5 650>
VStem: 48 51<99 187.5 99 207.5> 66 51<355 426> 396 51<216 242 242 250 172.5 250> 759 50<136.5 189 296 314>
LayerCount: 2
Fore
SplineSet
759 189 m 1xf6
 809 189 l 1
 809 61 720 -10 610 -10 c 0
 523 -10 455 34 420 115 c 1
 377 22 286 -10 209 -10 c 0
 119 -10 48 20 48 133 c 0xf6
 48 282 194 296 396 296 c 1
 396 360 l 2
 396 447 358 475 263 475 c 0
 181 475 117 446 117 371 c 2
 117 355 l 1
 68 355 l 1
 67 363 66 372 66 381 c 0xee
 66 471 153 521 263 521 c 0
 359 521 417 492 438 430 c 1
 476 489 536 521 609 521 c 0
 721 521 809 447 809 314 c 2
 809 250 l 1
 447 250 l 1
 447 242 l 2
 447 103 518 36 610 36 c 0
 689 36 759 84 759 189 c 1xf6
609 475 m 0
 523 475 456 416 448 296 c 1
 759 296 l 1
 759 314 l 2
 759 423 691 475 609 475 c 0
396 216 m 2
 396 250 l 1
 216 250 99 243 99 132 c 0
 99 66 128 36 219 36 c 0
 305 36 396 92 396 216 c 2
EndSplineSet
EndChar

StartChar: b
Encoding: 98 98 113
Width: 583
GlyphClass: 2
Flags: MW
HStem: -10 46<258 335.5 249 353> 0 21G<83 104 83 83> 475 46<261 335.5>
VStem: 83 51<440 720 440 720 440 720> 449 51<258 260 260 269 269 271 165 340.5>
LayerCount: 2
Fore
SplineSet
134 720 m 1xb8
 134 440 l 1
 167 490 225 521 297 521 c 0
 409 521 500 433 500 271 c 2
 500 260 l 2
 500 70 409 -10 297 -10 c 0
 219 -10 161 21 123 85 c 1xb8
 104 0 l 1
 83 0 l 1x78
 83 720 l 1
 134 720 l 1xb8
133 269 m 2
 133 257 l 2
 133 88 206 36 292 36 c 0
 379 36 449 92 449 258 c 2
 449 269 l 2
 449 412 379 475 292 475 c 0
 205 475 133 413 133 269 c 2
EndSplineSet
EndChar

StartChar: c
Encoding: 99 99 114
Width: 544
GlyphClass: 2
Flags: MW
HStem: -10 46<219 305.5 219 321> 475 46<218 305>
VStem: 51 51<248 263 263 269 172.5 345.5> 414 50<141.5 197 314 368.5>
AnchorPoint: "Bottom" 272 0 basechar 0
LayerCount: 2
Fore
SplineSet
414 197 m 1
 464 197 l 1
 464 64 377 -10 265 -10 c 0
 139 -10 51 83 51 248 c 2
 51 263 l 2
 51 428 138 521 264 521 c 0
 376 521 464 447 464 314 c 1
 414 314 l 1
 414 423 346 475 264 475 c 0
 172 475 102 408 102 269 c 2
 102 242 l 2
 102 103 173 36 265 36 c 0
 346 36 414 86 414 197 c 1
EndSplineSet
EndChar

StartChar: cacute
Encoding: 263 263 115
Width: 544
GlyphClass: 2
Flags: MW
HStem: -10 46<219 305.5 219 321> 475 46<218 305> 575 145<231 392 231 392>
VStem: 51 51<248 263 263 269 172.5 345.5> 414 50<141.5 197 314 368.5>
AnchorPoint: "Bottom" 272 0 basechar 0
LayerCount: 2
Fore
SplineSet
327 720 m 1
 392 720 l 1
 392 717 l 1
 281 575 l 1
 231 575 l 1
 327 720 l 1
414 197 m 1
 464 197 l 1
 464 64 377 -10 265 -10 c 0
 139 -10 51 83 51 248 c 2
 51 263 l 2
 51 428 138 521 264 521 c 0
 376 521 464 447 464 314 c 1
 414 314 l 1
 414 423 346 475 264 475 c 0
 172 475 102 408 102 269 c 2
 102 242 l 2
 102 103 173 36 265 36 c 0
 346 36 414 86 414 197 c 1
EndSplineSet
EndChar

StartChar: ccaron
Encoding: 269 269 116
Width: 544
GlyphClass: 2
Flags: MW
HStem: -10 46<219 305.5 219 321> 475 46<218 305> 575 145<99 291 99 233>
VStem: 51 51<248 263 263 269 172.5 345.5> 414 50<141.5 197 314 368.5>
AnchorPoint: "Bottom" 272 0 basechar 0
LayerCount: 2
Fore
SplineSet
159 720 m 1
 262 623 l 1
 365 720 l 1
 425 720 l 1
 291 575 l 1
 233 575 l 1
 99 720 l 1
 159 720 l 1
414 197 m 1
 464 197 l 1
 464 64 377 -10 265 -10 c 0
 139 -10 51 83 51 248 c 2
 51 263 l 2
 51 428 138 521 264 521 c 0
 376 521 464 447 464 314 c 1
 414 314 l 1
 414 423 346 475 264 475 c 0
 172 475 102 408 102 269 c 2
 102 242 l 2
 102 103 173 36 265 36 c 0
 346 36 414 86 414 197 c 1
EndSplineSet
EndChar

StartChar: ccedilla
Encoding: 231 231 117
Width: 544
GlyphClass: 2
Flags: MW
HStem: -197 46<231.5 253.5 218.5 267> -184 21G<166 166> -51 34<231 253 231 256> -10 46<219 305.5 219 321> 475 46<218 305>
VStem: 51 51<248 263 263 269 172.5 345.5> 311 51<-118.5 -81.5> 414 50<141.5 197 314 368.5>
LayerCount: 2
Fore
SplineSet
414 197 m 1x9f
 464 197 l 1
 464 64 377 -10 265 -10 c 0
 139 -10 51 83 51 248 c 2
 51 263 l 2
 51 428 138 521 264 521 c 0
 376 521 464 447 464 314 c 1
 414 314 l 1
 414 423 346 475 264 475 c 0
 172 475 102 408 102 269 c 2
 102 242 l 2
 102 103 173 36 265 36 c 0
 346 36 414 86 414 197 c 1x9f
166 -184 m 1x5f
 166 -138 l 1
 179 -145 202 -151 235 -151 c 0
 272 -151 311 -140 311 -97 c 0
 311 -66 280 -51 253 -51 c 2
 231 -51 l 1
 231 -17 l 1
 256 -17 l 2
 310 -17 362 -37 362 -106 c 0
 362 -179 290 -197 244 -197 c 0xaf
 219 -197 190 -193 166 -184 c 1x5f
EndSplineSet
EndChar

StartChar: d
Encoding: 100 100 118
Width: 583
GlyphClass: 2
Flags: MW
HStem: -10 46<216.5 292.5> 0 21G<435 435 435 469> 475 46<216.5 291 199 303.5>
VStem: 52 51<260 269 175 271 175 352> 418 51<440 720 0 720>
LayerCount: 2
Fore
SplineSet
435 0 m 1x78
 424 77 l 1
 386 18 330 -10 255 -10 c 0xb8
 143 -10 52 70 52 260 c 2
 52 271 l 2
 52 433 143 521 255 521 c 0
 327 521 385 490 418 440 c 1
 418 720 l 1
 469 720 l 1
 469 0 l 1
 435 0 l 1x78
419 257 m 2
 419 269 l 2
 419 413 347 475 260 475 c 0
 173 475 103 412 103 269 c 2
 103 258 l 2
 103 92 173 36 260 36 c 0
 346 36 419 88 419 257 c 2
EndSplineSet
EndChar

StartChar: eth
Encoding: 240 240 119
Width: 575
GlyphClass: 2
Flags: MW
HStem: -10 46<222 314 222 331> 475 46<222 281.5 205 314> 668 20G<370 370>
VStem: 52 51<248 263 263 269 172.5 345.5> 433 51<242 248 248 263 165.5 269 165.5 338.5>
LayerCount: 2
Fore
SplineSet
111 707 m 1
 148 724 l 1
 178 705 211 684 243 661 c 1
 347 711 l 1
 370 688 l 1
 271 640 l 1
 387 550 484 422 484 263 c 2
 484 248 l 2
 484 83 394 -10 268 -10 c 0
 142 -10 52 83 52 248 c 2
 52 263 l 2
 52 428 142 521 268 521 c 0
 295 521 320 516 343 508 c 1
 309 549 269 587 230 620 c 1
 128 570 l 1
 102 593 l 1
 203 642 l 1
 168 669 135 691 111 707 c 1
268 36 m 0
 360 36 433 103 433 242 c 2
 433 269 l 2
 433 408 360 475 268 475 c 0
 176 475 103 408 103 269 c 2
 103 242 l 2
 103 103 176 36 268 36 c 0
EndSplineSet
EndChar

StartChar: dcaron
Encoding: 271 271 120
Width: 583
GlyphClass: 2
Flags: MW
HStem: -10 46<216.5 292.5> 0 21G<435 435 435 469> 475 46<216.5 291 199 303.5> 496 20G<533 567 533 533.5> 516 170<533 567 533 533.5> 617 69<532 556 532 597>
VStem: 52 51<260 269 175 271 175 352> 418 51<440 720 0 720> 532 65<628 686 628 686 628 686>
LayerCount: 2
Fore
SplineSet
435 0 m 1x6780
 424 77 l 1
 386 18 330 -10 255 -10 c 0x8b80
 143 -10 52 70 52 260 c 2
 52 271 l 2
 52 433 143 521 255 521 c 0
 327 521 385 490 418 440 c 1
 418 720 l 1
 469 720 l 1
 469 0 l 1
 435 0 l 1x6780
567 516 m 1
 533 516 l 2
 534 516 556 617 556 617 c 1
 532 617 l 1
 532 686 l 1
 597 686 l 1
 597 628 l 1x9780
 567 516 l 1
419 257 m 2
 419 269 l 2
 419 413 347 475 260 475 c 0xa780
 173 475 103 412 103 269 c 2
 103 258 l 2
 103 92 173 36 260 36 c 0
 346 36 419 88 419 257 c 2
EndSplineSet
EndChar

StartChar: dcroat
Encoding: 273 273 121
Width: 583
GlyphClass: 2
Flags: MW
HStem: -10 46<216.5 292.5> 0 21G<435 469 435 435> 475 46<216.5 291 199 303.5> 623 43<241 418 241 418 469 559>
VStem: 52 51<260 269 175 271 175 352> 418 51<440 623 0 623 666 720>
LayerCount: 2
Fore
SplineSet
559 623 m 1xbc
 469 623 l 1
 469 0 l 1
 435 0 l 1x7c
 424 77 l 1
 386 18 330 -10 255 -10 c 0
 143 -10 52 70 52 260 c 2
 52 271 l 2
 52 433 143 521 255 521 c 0
 327 521 385 490 418 440 c 1
 418 623 l 1
 241 623 l 1
 241 666 l 1
 418 666 l 1
 418 720 l 1
 469 720 l 1
 469 666 l 1
 559 666 l 1
 559 623 l 1xbc
419 257 m 2
 419 269 l 2
 419 413 347 475 260 475 c 0
 173 475 103 412 103 269 c 2
 103 258 l 2
 103 92 173 36 260 36 c 0xbc
 346 36 419 88 419 257 c 2
EndSplineSet
EndChar

StartChar: e
Encoding: 101 101 122
Width: 556
GlyphClass: 2
Flags: MW
HStem: -10 46<219 304.5 219 320> 250 46<103 414 103 464 102 414> 475 46<221 305>
VStem: 51 51<248 250 172.5 263 172.5 345.5> 414 50<136.5 189 296 314>
AnchorPoint: "Bottom" 278 0 basechar 0
LayerCount: 2
Fore
SplineSet
414 189 m 1
 464 189 l 1
 464 61 375 -10 265 -10 c 0
 139 -10 51 83 51 248 c 2
 51 263 l 2
 51 428 138 521 264 521 c 0
 376 521 464 447 464 314 c 2
 464 250 l 1
 102 250 l 1
 102 242 l 2
 102 103 173 36 265 36 c 0
 344 36 414 84 414 189 c 1
264 475 m 0
 178 475 111 416 103 296 c 1
 414 296 l 1
 414 314 l 2
 414 423 346 475 264 475 c 0
EndSplineSet
EndChar

StartChar: eacute
Encoding: 233 233 123
Width: 556
GlyphClass: 2
Flags: MW
HStem: -10 46<219 304.5 219 320> 250 46<103 414 103 464 102 414> 475 46<221 305> 575 145<245 406 245 406>
VStem: 51 51<248 250 172.5 263 172.5 345.5> 414 50<136.5 189 296 314>
LayerCount: 2
Fore
SplineSet
341 720 m 1
 406 720 l 1
 406 717 l 1
 295 575 l 1
 245 575 l 1
 341 720 l 1
414 189 m 1
 464 189 l 1
 464 61 375 -10 265 -10 c 0
 139 -10 51 83 51 248 c 2
 51 263 l 2
 51 428 138 521 264 521 c 0
 376 521 464 447 464 314 c 2
 464 250 l 1
 102 250 l 1
 102 242 l 2
 102 103 173 36 265 36 c 0
 344 36 414 84 414 189 c 1
264 475 m 0
 178 475 111 416 103 296 c 1
 414 296 l 1
 414 314 l 2
 414 423 346 475 264 475 c 0
EndSplineSet
EndChar

StartChar: ecaron
Encoding: 283 283 124
Width: 556
GlyphClass: 2
Flags: MW
HStem: -10 46<219 304.5 219 320> 250 46<103 414 103 464 102 414> 475 46<221 305> 575 145<115 307 115 249>
VStem: 51 51<248 250 172.5 263 172.5 345.5> 414 50<136.5 189 296 314>
AnchorPoint: "Bottom" 278 0 basechar 0
LayerCount: 2
Fore
SplineSet
175 720 m 1
 278 623 l 1
 381 720 l 1
 441 720 l 1
 307 575 l 1
 249 575 l 1
 115 720 l 1
 175 720 l 1
414 189 m 1
 464 189 l 1
 464 61 375 -10 265 -10 c 0
 139 -10 51 83 51 248 c 2
 51 263 l 2
 51 428 138 521 264 521 c 0
 376 521 464 447 464 314 c 2
 464 250 l 1
 102 250 l 1
 102 242 l 2
 102 103 173 36 265 36 c 0
 344 36 414 84 414 189 c 1
264 475 m 0
 178 475 111 416 103 296 c 1
 414 296 l 1
 414 314 l 2
 414 423 346 475 264 475 c 0
EndSplineSet
EndChar

StartChar: ecircumflex
Encoding: 234 234 125
Width: 556
GlyphClass: 2
Flags: MW
HStem: -10 46<219 304.5 219 320> 250 46<103 414 103 464 102 414> 475 46<221 305> 575 145<103 295 103 295 237 429 237 369>
VStem: 51 51<248 250 172.5 263 172.5 345.5> 414 50<136.5 189 296 314>
LayerCount: 2
Fore
SplineSet
295 720 m 1
 429 575 l 1
 369 575 l 1
 266 672 l 1
 163 575 l 1
 103 575 l 1
 237 720 l 1
 295 720 l 1
414 189 m 1
 464 189 l 1
 464 61 375 -10 265 -10 c 0
 139 -10 51 83 51 248 c 2
 51 263 l 2
 51 428 138 521 264 521 c 0
 376 521 464 447 464 314 c 2
 464 250 l 1
 102 250 l 1
 102 242 l 2
 102 103 173 36 265 36 c 0
 344 36 414 84 414 189 c 1
264 475 m 0
 178 475 111 416 103 296 c 1
 414 296 l 1
 414 314 l 2
 414 423 346 475 264 475 c 0
EndSplineSet
EndChar

StartChar: edieresis
Encoding: 235 235 126
Width: 556
GlyphClass: 2
Flags: MW
HStem: -10 46<219 304.5 219 320> 250 46<103 414 103 464 102 414> 475 46<221 305> 651 69<150 215 150 215 326 391>
VStem: 51 51<248 250 172.5 263 172.5 345.5> 150 65<651 720 651 720> 326 65<651 720 651 720> 414 50<136.5 189 296 314>
LayerCount: 2
Fore
SplineSet
215 720 m 1
 215 651 l 1
 150 651 l 1
 150 720 l 1
 215 720 l 1
391 720 m 1xff
 391 651 l 1
 326 651 l 1
 326 720 l 1
 391 720 l 1xff
414 189 m 1xfd
 464 189 l 1
 464 61 375 -10 265 -10 c 0
 139 -10 51 83 51 248 c 2
 51 263 l 2
 51 428 138 521 264 521 c 0
 376 521 464 447 464 314 c 2
 464 250 l 1
 102 250 l 1
 102 242 l 2
 102 103 173 36 265 36 c 0
 344 36 414 84 414 189 c 1xfd
264 475 m 0
 178 475 111 416 103 296 c 1
 414 296 l 1
 414 314 l 2
 414 423 346 475 264 475 c 0
EndSplineSet
EndChar

StartChar: edotaccent
Encoding: 279 279 127
Width: 556
GlyphClass: 2
Flags: MW
HStem: -10 46<219 304.5 219 320> 250 46<103 414 103 464 102 414> 475 46<221 305> 604 132<259.5 295.5>
VStem: 51 51<248 250 172.5 263 172.5 345.5> 212 132<652 688 651 688.5> 414 50<136.5 189 296 314>
AnchorPoint: "Bottom" 278 0 basechar 0
LayerCount: 2
Fore
SplineSet
344 670 m 0
 344 632 314 604 277 604 c 0
 242 604 212 634 212 670 c 0
 212 707 241 736 278 736 c 0
 315 736 344 706 344 670 c 0
414 189 m 1
 464 189 l 1
 464 61 375 -10 265 -10 c 0
 139 -10 51 83 51 248 c 2
 51 263 l 2
 51 428 138 521 264 521 c 0
 376 521 464 447 464 314 c 2
 464 250 l 1
 102 250 l 1
 102 242 l 2
 102 103 173 36 265 36 c 0
 344 36 414 84 414 189 c 1
264 475 m 0
 178 475 111 416 103 296 c 1
 414 296 l 1
 414 314 l 2
 414 423 346 475 264 475 c 0
EndSplineSet
EndChar

StartChar: egrave
Encoding: 232 232 128
Width: 556
GlyphClass: 2
Flags: MW
HStem: -10 46<219 304.5 219 320> 250 46<103 414 103 464 102 414> 475 46<221 305> 575 145<134 295 134 245>
VStem: 51 51<248 250 172.5 263 172.5 345.5> 414 50<136.5 189 296 314>
LayerCount: 2
Fore
SplineSet
134 717 m 1
 134 720 l 1
 199 720 l 1
 295 575 l 1
 245 575 l 1
 134 717 l 1
414 189 m 1
 464 189 l 1
 464 61 375 -10 265 -10 c 0
 139 -10 51 83 51 248 c 2
 51 263 l 2
 51 428 138 521 264 521 c 0
 376 521 464 447 464 314 c 2
 464 250 l 1
 102 250 l 1
 102 242 l 2
 102 103 173 36 265 36 c 0
 344 36 414 84 414 189 c 1
264 475 m 0
 178 475 111 416 103 296 c 1
 414 296 l 1
 414 314 l 2
 414 423 346 475 264 475 c 0
EndSplineSet
EndChar

StartChar: emacron
Encoding: 275 275 129
Width: 556
GlyphClass: 2
Flags: MW
HStem: -10 46<219 304.5 219 320> 250 46<103 414 103 464 102 414> 475 46<221 305> 692 44<119 437 119 437>
VStem: 51 51<248 250 172.5 263 172.5 345.5> 414 50<136.5 189 296 314>
AnchorPoint: "Bottom" 278 0 basechar 0
LayerCount: 2
Fore
SplineSet
119 736 m 1
 437 736 l 1
 437 692 l 1
 119 692 l 1
 119 736 l 1
414 189 m 1
 464 189 l 1
 464 61 375 -10 265 -10 c 0
 139 -10 51 83 51 248 c 2
 51 263 l 2
 51 428 138 521 264 521 c 0
 376 521 464 447 464 314 c 2
 464 250 l 1
 102 250 l 1
 102 242 l 2
 102 103 173 36 265 36 c 0
 344 36 414 84 414 189 c 1
264 475 m 0
 178 475 111 416 103 296 c 1
 414 296 l 1
 414 314 l 2
 414 423 346 475 264 475 c 0
EndSplineSet
EndChar

StartChar: eogonek
Encoding: 281 281 130
Width: 556
GlyphClass: 2
Flags: MW
HStem: -143 43<324.5 345.5> -10 46<219 265 265 274> 0 21G<333 338 338 338> 250 46<102 414 103 414 103 464> 475 46<221 305>
VStem: 51 51<248 250 172.5 263 172.5 345.5> 234 57<-75.5 -58> 414 50<139 189 139 189 296 314>
AnchorPoint: "Bottom" 278 0 basechar 0
LayerCount: 2
Fore
SplineSet
102 250 m 1xdf
 102 242 l 2
 102 103 173 36 265 36 c 0xdf
 344 36 414 84 414 189 c 1
 464 189 l 1
 464 89 410 24 333 0 c 1
 338 0 l 1
 335 -2 l 2xbf
 315 -16 291 -33 291 -60 c 0
 291 -91 314 -100 335 -100 c 0
 359 -100 381 -93 402 -86 c 1
 415 -119 l 1
 389 -135 360 -143 331 -143 c 0
 285 -143 234 -126 234 -71 c 0
 234 -45 254 -25 274 -10 c 1
 265 -10 l 2
 139 -10 51 83 51 248 c 2
 51 263 l 2
 51 428 138 521 264 521 c 0
 376 521 464 447 464 314 c 2
 464 250 l 1
 102 250 l 1xdf
264 475 m 0
 178 475 111 416 103 296 c 1
 414 296 l 1
 414 314 l 2
 414 423 346 475 264 475 c 0
EndSplineSet
EndChar

StartChar: f
Encoding: 102 102 131
Width: 338
GlyphClass: 2
Flags: MW
HStem: 0 21G<103 154 103 103> 465 46<47 103 47 103 154 273> 682 46<197 217.5 175.5 218.5>
VStem: 103 51<0 465 0 465 511 615>
LayerCount: 2
Fore
SplineSet
273 711 m 1
 273 666 l 1
 257 673 226 682 211 682 c 0
 183 682 154 674 154 615 c 2
 154 511 l 1
 273 511 l 1
 273 465 l 1
 154 465 l 1
 154 0 l 1
 103 0 l 1
 103 465 l 1
 47 465 l 1
 47 511 l 1
 103 511 l 1
 103 617 l 2
 103 694 146 728 205 728 c 0
 230 728 256 721 273 711 c 1
EndSplineSet
EndChar

StartChar: g
Encoding: 103 103 132
Width: 568
GlyphClass: 2
Flags: MW
HStem: -188 46<125.5 382 166 379> 18 49<144 404 191 400> 200 45<170 319.5 226.5 273> 475 46<226.5 295.5 205 319.5>
VStem: 36 50<-84 -40 -84 -37> 65 51<118 154 112 159> 78 51<335 391.5 328.5 404.5> 417 51<328.5 383 316 391.5> 471 51<-79 -35.5>
LayerCount: 2
Fore
SplineSet
191 67 m 2xf5
 404 67 l 2
 474 67 522 15 522 -52 c 0
 522 -128 462 -188 379 -188 c 2
 162 -188 l 2
 89 -188 36 -126 36 -61 c 0xf880
 36 -13 64 36 110 55 c 1
 80 73 65 101 65 135 c 0xf5
 65 183 97 217 146 236 c 1
 105 266 78 310 78 360 c 0
 78 449 137 521 273 521 c 0
 318 521 355 513 384 499 c 1
 432 512 467 548 474 603 c 1
 522 603 l 1xf280
 522 547 484 486 423 477 c 1
 422 473 l 1
 452 447 468 406 468 360 c 0
 468 272 409 200 273 200 c 2
 191 200 l 2
 149 200 116 175 116 133 c 0
 116 91 149 67 191 67 c 2xf5
417 360 m 0xf3
 417 423 366 475 273 475 c 0
 180 475 129 423 129 360 c 0
 129 297 180 245 273 245 c 0
 366 245 417 297 417 360 c 0xf3
166 -142 m 2xf880
 382 -142 l 2
 430 -142 471 -103 471 -55 c 0
 471 -16 439 18 400 18 c 2
 166 18 l 2
 122 18 86 -18 86 -62 c 0
 86 -106 122 -142 166 -142 c 2xf880
EndSplineSet
EndChar

StartChar: gbreve
Encoding: 287 287 133
Width: 568
GlyphClass: 2
Flags: MW
HStem: -188 46<125.5 382 166 379> 18 49<144 404 191 400> 200 45<170 319.5 226.5 273> 475 46<226.5 295.5 205 319.5> 613 49<250.5 315.5 250.5 336.5>
VStem: 36 50<-84 -40 -84 -37> 65 51<118 154 112 159> 78 51<335 391.5 328.5 404.5> 417 51<328.5 383 316 391.5> 471 51<-79 -35.5>
LayerCount: 2
Fore
SplineSet
283 613 m 0xf980
 177 613 91 680 91 737 c 1
 147 737 l 1
 163 687 218 662 283 662 c 0
 348 662 403 687 420 737 c 1
 476 737 l 1
 476 680 390 613 283 613 c 0xf980
191 67 m 2xfa80
 404 67 l 2
 474 67 522 15 522 -52 c 0
 522 -128 462 -188 379 -188 c 2
 162 -188 l 2
 89 -188 36 -126 36 -61 c 0xfc40
 36 -13 64 36 110 55 c 1
 80 73 65 101 65 135 c 0xfa80
 65 183 97 217 146 236 c 1
 105 266 78 310 78 360 c 0
 78 449 137 521 273 521 c 0
 318 521 355 513 384 499 c 1
 432 512 467 548 474 603 c 1
 522 603 l 1xf940
 522 547 484 486 423 477 c 1
 422 473 l 1
 452 447 468 406 468 360 c 0
 468 272 409 200 273 200 c 2
 191 200 l 2
 149 200 116 175 116 133 c 0
 116 91 149 67 191 67 c 2xfa80
417 360 m 0xf980
 417 423 366 475 273 475 c 0
 180 475 129 423 129 360 c 0
 129 297 180 245 273 245 c 0
 366 245 417 297 417 360 c 0xf980
166 -142 m 2xfc40
 382 -142 l 2
 430 -142 471 -103 471 -55 c 0
 471 -16 439 18 400 18 c 2
 166 18 l 2
 122 18 86 -18 86 -62 c 0
 86 -106 122 -142 166 -142 c 2xfc40
EndSplineSet
EndChar

StartChar: gcommaaccent
Encoding: 291 291 134
Width: 568
GlyphClass: 2
Flags: MW
HStem: -188 46<125.5 382 166 379> 18 49<144 404 191 400> 200 45<170 319.5 226.5 273> 475 46<226.5 295.5 205 319.5> 591 69<294 318 294 318 253 318>
VStem: 36 50<-84 -40 -84 -37> 65 51<118 154 112 159> 78 51<335 391.5 328.5 404.5> 253 65<591 649 649 649> 417 51<328.5 383 316 391.5> 471 51<-79 -35.5>
LayerCount: 2
Fore
SplineSet
283 761 m 1xf9c0
 317 761 l 2
 316 761 294 660 294 660 c 1
 318 660 l 1
 318 591 l 1
 253 591 l 1
 253 649 l 1
 283 761 l 1xf9c0
191 67 m 2xfac0
 404 67 l 2
 474 67 522 15 522 -52 c 0
 522 -128 462 -188 379 -188 c 2
 162 -188 l 2
 89 -188 36 -126 36 -61 c 0xfca0
 36 -13 64 36 110 55 c 1
 80 73 65 101 65 135 c 0xfac0
 65 183 97 217 146 236 c 1
 105 266 78 310 78 360 c 0
 78 449 137 521 273 521 c 0
 318 521 355 513 384 499 c 1
 432 512 467 548 474 603 c 1
 522 603 l 1xf9a0
 522 547 484 486 423 477 c 1
 422 473 l 1
 452 447 468 406 468 360 c 0
 468 272 409 200 273 200 c 2
 191 200 l 2
 149 200 116 175 116 133 c 0
 116 91 149 67 191 67 c 2xfac0
417 360 m 0xf9c0
 417 423 366 475 273 475 c 0
 180 475 129 423 129 360 c 0
 129 297 180 245 273 245 c 0
 366 245 417 297 417 360 c 0xf9c0
166 -142 m 2xfca0
 382 -142 l 2
 430 -142 471 -103 471 -55 c 0
 471 -16 439 18 400 18 c 2
 166 18 l 2
 122 18 86 -18 86 -62 c 0
 86 -106 122 -142 166 -142 c 2xfca0
EndSplineSet
EndChar

StartChar: h
Encoding: 104 104 135
Width: 593
GlyphClass: 2
Flags: MW
HStem: 0 21G<83 134 83 83 435 486 435 435> 475 46<266.5 336>
VStem: 83 51<0 314 439 720> 435 51<0 314 314 329 0 369.5>
LayerCount: 2
Fore
SplineSet
435 0 m 1
 435 314 l 2
 435 425 381 475 291 475 c 0
 201 475 134 406 134 314 c 2
 134 0 l 1
 83 0 l 1
 83 720 l 1
 134 720 l 1
 134 439 l 1
 169 493 237 521 296 521 c 0
 402 521 486 462 486 329 c 2
 486 0 l 1
 435 0 l 1
EndSplineSet
EndChar

StartChar: i
Encoding: 105 105 136
Width: 260
GlyphClass: 2
Flags: MW
HStem: 0 21G<85 136 85 85> 491 20G<85 136 136 136> 666 54<81 140 81 140>
VStem: 81 59<666 720 666 720> 85 51<0 511 0 511>
LayerCount: 2
Fore
SplineSet
140 720 m 1xf0
 140 666 l 1
 81 666 l 1
 81 720 l 1
 140 720 l 1xf0
85 511 m 1xe8
 136 511 l 1
 136 0 l 1
 85 0 l 1
 85 511 l 1xe8
EndSplineSet
EndChar

StartChar: dotlessi
Encoding: 305 305 137
Width: 260
GlyphClass: 2
Flags: MW
HStem: 0 21G<83 134 83 83> 491 20G<83 134 134 134>
VStem: 83 51<0 511 0 511>
LayerCount: 2
Fore
SplineSet
83 511 m 1
 134 511 l 1
 134 0 l 1
 83 0 l 1
 83 511 l 1
EndSplineSet
EndChar

StartChar: iacute
Encoding: 237 237 138
Width: 260
GlyphClass: 2
Flags: MW
HStem: 0 21G<95 146 95 95> 491 20G<95 146 146 146> 575 145<93 254 93 254>
VStem: 95 51<0 511 0 511>
LayerCount: 2
Fore
SplineSet
189 720 m 1
 254 720 l 1
 254 717 l 1
 143 575 l 1
 93 575 l 1
 189 720 l 1
95 511 m 1
 146 511 l 1
 146 0 l 1
 95 0 l 1
 95 511 l 1
EndSplineSet
EndChar

StartChar: icircumflex
Encoding: 238 238 139
Width: 260
GlyphClass: 2
Flags: MW
HStem: 0 21G<108 159 108 108> 491 20G<108 159 159 159> 575 145<-31 161 -31 161 103 295 103 235>
VStem: 108 51<0 511 0 511>
LayerCount: 2
Fore
SplineSet
161 720 m 1
 295 575 l 1
 235 575 l 1
 132 672 l 1
 29 575 l 1
 -31 575 l 1
 103 720 l 1
 161 720 l 1
108 511 m 1
 159 511 l 1
 159 0 l 1
 108 0 l 1
 108 511 l 1
EndSplineSet
EndChar

StartChar: idieresis
Encoding: 239 239 140
Width: 260
GlyphClass: 2
Flags: MW
HStem: 0 21G<106 157 106 106> 491 20G<106 157 157 157> 651 69<11 76 11 76 187 252>
VStem: 11 65<651 720 651 720> 106 51<0 511 0 511> 187 65<651 720 651 720>
LayerCount: 2
Fore
SplineSet
76 720 m 1
 76 651 l 1
 11 651 l 1
 11 720 l 1
 76 720 l 1
252 720 m 1
 252 651 l 1
 187 651 l 1
 187 720 l 1
 252 720 l 1
106 511 m 1xe8
 157 511 l 1
 157 0 l 1
 106 0 l 1
 106 511 l 1xe8
EndSplineSet
EndChar

StartChar: igrave
Encoding: 236 236 141
Width: 260
GlyphClass: 2
Flags: MW
HStem: 0 21G<114 165 114 114> 491 20G<114 165 165 165> 575 145<6 167 6 117>
VStem: 114 51<0 511 0 511>
LayerCount: 2
Fore
SplineSet
6 717 m 1
 6 720 l 1
 71 720 l 1
 167 575 l 1
 117 575 l 1
 6 717 l 1
114 511 m 1
 165 511 l 1
 165 0 l 1
 114 0 l 1
 114 511 l 1
EndSplineSet
EndChar

StartChar: imacron
Encoding: 299 299 142
Width: 260
GlyphClass: 2
Flags: MW
HStem: 0 21G<83 134 83 83> 491 20G<83 134 134 134> 692 44<-50 268 -50 268>
VStem: 83 51<0 511 0 511>
LayerCount: 2
Fore
SplineSet
-50 736 m 1
 268 736 l 1
 268 692 l 1
 -50 692 l 1
 -50 736 l 1
83 511 m 1
 134 511 l 1
 134 0 l 1
 83 0 l 1
 83 511 l 1
EndSplineSet
EndChar

StartChar: iogonek
Encoding: 303 303 143
Width: 260
GlyphClass: 2
Flags: MW
HStem: -143 43<113.5 134.5> 0 21G<77 83 83 83 127 127 127 134> 491 20G<83 134 134 134> 666 54<81 140 81 140>
VStem: 23 57<-75.5 -55> 81 59<666 720 666 720> 83 51<0 511 0 511>
LayerCount: 2
Fore
SplineSet
140 666 m 1xf4
 81 666 l 1
 81 720 l 1
 140 720 l 1
 140 666 l 1xf4
191 -86 m 1
 204 -119 l 1
 178 -135 149 -143 120 -143 c 0
 74 -143 23 -126 23 -71 c 0xf8
 23 -39 53 -16 77 0 c 1
 83 0 l 1
 83 511 l 1
 134 511 l 1xf2
 134 0 l 1
 127 0 l 1
 124 -2 l 2
 104 -16 80 -33 80 -60 c 0
 80 -91 103 -100 124 -100 c 0xf8
 148 -100 170 -93 191 -86 c 1
EndSplineSet
EndChar

StartChar: j
Encoding: 106 106 144
Width: 260
GlyphClass: 2
Flags: MW
HStem: -186 46<21.5 42 20.5 63.5> 491 20G<85 136 136 136> 666 54<81 140 81 140>
VStem: 81 59<666 720 666 720> 85 51<-73 511>
LayerCount: 2
Fore
SplineSet
140 720 m 1xf0
 140 666 l 1
 81 666 l 1
 81 720 l 1
 140 720 l 1xf0
136 511 m 1xe8
 136 -75 l 2
 136 -152 93 -186 34 -186 c 0
 9 -186 -17 -179 -34 -169 c 1
 -34 -124 l 1
 -18 -131 13 -140 28 -140 c 0
 56 -140 85 -132 85 -73 c 2
 85 511 l 1
 136 511 l 1xe8
EndSplineSet
EndChar

StartChar: k
Encoding: 107 107 145
Width: 535
GlyphClass: 2
Flags: MW
HStem: 0 21G<83 134 83 83 438 438 438 504> 491 20G<424 487 487 487>
VStem: 83 51<0 127 186 720>
AnchorPoint: "Bottom" 268 0 basechar 0
LayerCount: 2
Fore
SplineSet
134 127 m 1
 134 0 l 1
 83 0 l 1
 83 720 l 1
 134 720 l 1
 134 186 l 1
 424 511 l 1
 487 511 l 1
 272 270 l 1
 504 0 l 1
 438 0 l 1
 238 232 l 1
 134 127 l 1
EndSplineSet
EndChar

StartChar: kcommaaccent
Encoding: 311 311 146
Width: 535
GlyphClass: 2
Flags: MW
HStem: -149 69<234 258 234 299> 0 21G<83 134 83 83 438 438 438 504> 491 20G<424 487 487 487>
VStem: 83 51<0 127 186 720> 234 65<-138 -80 -138 -80 -138 -80>
AnchorPoint: "Bottom" 268 0 basechar 0
LayerCount: 2
Fore
SplineSet
134 127 m 1
 134 0 l 1
 83 0 l 1
 83 720 l 1
 134 720 l 1
 134 186 l 1
 424 511 l 1
 487 511 l 1
 272 270 l 1
 504 0 l 1
 438 0 l 1
 238 232 l 1
 134 127 l 1
269 -250 m 1
 235 -250 l 2
 236 -250 258 -149 258 -149 c 1
 234 -149 l 1
 234 -80 l 1
 299 -80 l 1
 299 -138 l 1
 269 -250 l 1
EndSplineSet
EndChar

StartChar: l
Encoding: 108 108 147
Width: 268
GlyphClass: 2
Flags: MW
HStem: 0 21G<87 138 87 87>
VStem: 87 51<0 720 0 720>
AnchorPoint: "Bottom" 113 0 basechar 0
LayerCount: 2
Fore
SplineSet
87 720 m 1
 138 720 l 1
 138 0 l 1
 87 0 l 1
 87 720 l 1
EndSplineSet
EndChar

StartChar: lacute
Encoding: 314 314 148
Width: 268
GlyphClass: 2
Flags: MW
HStem: 0 21G<87 138 87 87> 750 145<82 243 82 243>
VStem: 87 51<0 720 0 720>
AnchorPoint: "Bottom" 113 0 basechar 0
LayerCount: 2
Fore
SplineSet
178 895 m 1
 243 895 l 1
 243 892 l 1
 132 750 l 1
 82 750 l 1
 178 895 l 1
87 720 m 1
 138 720 l 1
 138 0 l 1
 87 0 l 1
 87 720 l 1
EndSplineSet
EndChar

StartChar: lcaron
Encoding: 318 318 149
Width: 268
GlyphClass: 2
Flags: MW
HStem: 0 21G<87 138 87 87> 496 20G<218 252 218 218.5> 516 170<218 252 218 218.5> 617 69<217 241 217 282>
VStem: 87 51<0 720 0 720> 217 65<628 686 628 686 628 686>
AnchorPoint: "Bottom" 113 0 basechar 0
LayerCount: 2
Fore
SplineSet
87 720 m 1xdc
 138 720 l 1
 138 0 l 1
 87 0 l 1
 87 720 l 1xdc
252 516 m 1xac
 218 516 l 2
 219 516 241 617 241 617 c 1
 217 617 l 1
 217 686 l 1
 282 686 l 1
 282 628 l 1xdc
 252 516 l 1xac
EndSplineSet
EndChar

StartChar: lcommaaccent
Encoding: 316 316 150
Width: 268
GlyphClass: 2
Flags: MW
HStem: -149 69<79 103 79 144> 0 21G<87 138 87 87>
VStem: 79 65<-138 -80 -138 -80 -138 -80> 87 51<0 720 0 720>
AnchorPoint: "Bottom" 113 0 basechar 0
LayerCount: 2
Fore
SplineSet
87 720 m 1xd0
 138 720 l 1
 138 0 l 1
 87 0 l 1
 87 720 l 1xd0
114 -250 m 1xe0
 80 -250 l 2
 81 -250 103 -149 103 -149 c 1
 79 -149 l 1
 79 -80 l 1
 144 -80 l 1
 144 -138 l 1
 114 -250 l 1xe0
EndSplineSet
EndChar

StartChar: lslash
Encoding: 322 322 151
Width: 298
GlyphClass: 2
Flags: MW
HStem: 0 21G<114 165 114 114>
VStem: 114 51<0 338 338 338 407 720>
LayerCount: 2
Fore
SplineSet
114 338 m 1
 20 291 l 1
 20 335 l 1
 114 382 l 1
 114 720 l 1
 165 720 l 1
 165 407 l 1
 259 455 l 1
 259 411 l 1
 165 363 l 1
 165 0 l 1
 114 0 l 1
 114 338 l 1
EndSplineSet
EndChar

StartChar: m
Encoding: 109 109 152
Width: 867
GlyphClass: 2
Flags: MW
HStem: 0 21G<83 134 83 83 395 446 395 395 707 758 707 707> 475 46<244 307 244 310.5 548 622.5> 491 20G<83 117 117 117>
VStem: 83 51<0 314 0 511> 395 51<0 314 0 369.5> 707 51<0 314 314 329 0 369.5>
LayerCount: 2
Fore
SplineSet
586 521 m 0xdc
 681 521 758 462 758 329 c 2
 758 0 l 1
 707 0 l 1
 707 314 l 2
 707 425 663 475 582 475 c 0
 502 475 446 406 446 314 c 2
 446 0 l 1
 395 0 l 1
 395 314 l 2
 395 425 351 475 270 475 c 0xdc
 190 475 134 406 134 314 c 2
 134 0 l 1
 83 0 l 1
 83 511 l 1
 117 511 l 1xbc
 129 435 l 1
 159 489 214 521 274 521 c 0
 340 521 398 493 428 434 c 1
 455 479 510 521 586 521 c 0xdc
EndSplineSet
EndChar

StartChar: n
Encoding: 110 110 153
Width: 593
GlyphClass: 2
Flags: MW
HStem: 0 21G<83 134 83 83 435 485 435 435> 475 46<262.5 336> 491 20G<83 117 117 117>
VStem: 83 51<0 314 0 511> 435 50<0 314 314 329 0 369.5>
AnchorPoint: "Bottom" 297 0 basechar 0
LayerCount: 2
Fore
SplineSet
435 0 m 1xd8
 435 314 l 2
 435 425 381 475 291 475 c 0xd8
 201 475 134 406 134 314 c 2
 134 0 l 1
 83 0 l 1
 83 511 l 1
 117 511 l 1xb8
 128 435 l 1
 163 489 229 521 296 521 c 0
 402 521 485 462 485 329 c 2
 485 0 l 1
 435 0 l 1xd8
EndSplineSet
EndChar

StartChar: nacute
Encoding: 324 324 154
Width: 593
GlyphClass: 2
Flags: MW
HStem: 0 21G<83 134 83 83 435 485 435 435> 475 46<262.5 336> 491 20G<83 117 117 117> 575 145<266 427 266 427>
VStem: 83 51<0 314 0 511> 435 50<0 314 314 329 0 369.5>
AnchorPoint: "Bottom" 297 0 basechar 0
LayerCount: 2
Fore
SplineSet
362 720 m 1xdc
 427 720 l 1
 427 717 l 1
 316 575 l 1
 266 575 l 1
 362 720 l 1xdc
435 0 m 1
 435 314 l 2
 435 425 381 475 291 475 c 0xdc
 201 475 134 406 134 314 c 2
 134 0 l 1
 83 0 l 1
 83 511 l 1
 117 511 l 1xbc
 128 435 l 1
 163 489 229 521 296 521 c 0
 402 521 485 462 485 329 c 2
 485 0 l 1
 435 0 l 1
EndSplineSet
EndChar

StartChar: ncaron
Encoding: 328 328 155
Width: 593
GlyphClass: 2
Flags: MW
HStem: 0 21G<83 134 83 83 435 485 435 435> 475 46<262.5 336> 491 20G<83 117 117 117> 575 145<134 326 134 268>
VStem: 83 51<0 314 0 511> 435 50<0 314 314 329 0 369.5>
AnchorPoint: "Bottom" 297 0 basechar 0
LayerCount: 2
Fore
SplineSet
194 720 m 1xdc
 297 623 l 1
 400 720 l 1
 460 720 l 1
 326 575 l 1
 268 575 l 1
 134 720 l 1
 194 720 l 1xdc
435 0 m 1
 435 314 l 2
 435 425 381 475 291 475 c 0xdc
 201 475 134 406 134 314 c 2
 134 0 l 1
 83 0 l 1
 83 511 l 1
 117 511 l 1xbc
 128 435 l 1
 163 489 229 521 296 521 c 0
 402 521 485 462 485 329 c 2
 485 0 l 1
 435 0 l 1
EndSplineSet
EndChar

StartChar: ncommaaccent
Encoding: 326 326 156
Width: 593
GlyphClass: 2
Flags: MW
HStem: -149 69<263 287 263 328> 0 21G<83 134 83 83 435 485 435 435> 475 46<262.5 336> 491 20G<83 117 117 117>
VStem: 83 51<0 314 0 511> 263 65<-138 -80 -138 -80 -138 -80> 435 50<0 314 314 329 0 369.5>
AnchorPoint: "Bottom" 297 0 basechar 0
LayerCount: 2
Fore
SplineSet
435 0 m 1xee
 435 314 l 2
 435 425 381 475 291 475 c 0xee
 201 475 134 406 134 314 c 2
 134 0 l 1
 83 0 l 1
 83 511 l 1
 117 511 l 1xde
 128 435 l 1
 163 489 229 521 296 521 c 0
 402 521 485 462 485 329 c 2
 485 0 l 1
 435 0 l 1xee
298 -250 m 1
 264 -250 l 2
 265 -250 287 -149 287 -149 c 1
 263 -149 l 1
 263 -80 l 1
 328 -80 l 1
 328 -138 l 1
 298 -250 l 1
EndSplineSet
EndChar

StartChar: ntilde
Encoding: 241 241 157
Width: 593
GlyphClass: 2
Flags: MW
HStem: 0 21G<83 134 83 83 435 485 435 435> 475 46<262.5 336> 491 20G<83 117 117 117> 637 50<351 394.5 351 410.5> 669 50<187.5 231>
VStem: 83 51<0 314 0 511> 435 50<0 314 314 329 0 369.5>
LayerCount: 2
Fore
SplineSet
435 719 m 1xd6
 472 719 l 1
 472 687 450 637 371 637 c 0xd6
 307 637 258 669 204 669 c 0xce
 171 669 154 660 147 637 c 1
 110 637 l 1
 110 669 133 719 211 719 c 0
 275 719 324 687 378 687 c 0
 411 687 428 696 435 719 c 1xd6
435 0 m 1
 435 314 l 2
 435 425 381 475 291 475 c 0xd6
 201 475 134 406 134 314 c 2
 134 0 l 1
 83 0 l 1
 83 511 l 1
 117 511 l 1xb6
 128 435 l 1
 163 489 229 521 296 521 c 0
 402 521 485 462 485 329 c 2
 485 0 l 1
 435 0 l 1
EndSplineSet
EndChar

StartChar: o
Encoding: 111 111 158
Width: 574
GlyphClass: 2
Flags: MW
HStem: -10 46<222 314 222 331> 475 46<222 314>
VStem: 52 51<248 263 263 269 172.5 345.5> 433 51<242 248 248 263 165.5 269 165.5 338.5>
LayerCount: 2
Fore
SplineSet
268 -10 m 0
 142 -10 52 83 52 248 c 2
 52 263 l 2
 52 428 142 521 268 521 c 0
 394 521 484 428 484 263 c 2
 484 248 l 2
 484 83 394 -10 268 -10 c 0
268 36 m 0
 360 36 433 103 433 242 c 2
 433 269 l 2
 433 408 360 475 268 475 c 0
 176 475 103 408 103 269 c 2
 103 242 l 2
 103 103 176 36 268 36 c 0
EndSplineSet
Substitution2: "Single Substitution lookup 5 subtable" ordmasculine
Substitution2: "'aalt' Access All Alternates lookup 0 subtable" ordmasculine
EndChar

StartChar: oacute
Encoding: 243 243 159
Width: 574
GlyphClass: 2
Flags: MW
HStem: -10 46<222 314 222 331> 475 46<222 314> 575 145<254 415 254 415>
VStem: 52 51<248 263 263 269 172.5 345.5> 433 51<242 248 248 263 165.5 269 165.5 338.5>
LayerCount: 2
Fore
SplineSet
350 720 m 1
 415 720 l 1
 415 717 l 1
 304 575 l 1
 254 575 l 1
 350 720 l 1
268 -10 m 0
 142 -10 52 83 52 248 c 2
 52 263 l 2
 52 428 142 521 268 521 c 0
 394 521 484 428 484 263 c 2
 484 248 l 2
 484 83 394 -10 268 -10 c 0
268 36 m 0
 360 36 433 103 433 242 c 2
 433 269 l 2
 433 408 360 475 268 475 c 0
 176 475 103 408 103 269 c 2
 103 242 l 2
 103 103 176 36 268 36 c 0
EndSplineSet
EndChar

StartChar: ocircumflex
Encoding: 244 244 160
Width: 574
GlyphClass: 2
Flags: MW
HStem: -10 46<222 314 222 331> 475 46<222 314> 575 145<108 300 108 300 242 434 242 374>
VStem: 52 51<248 263 263 269 172.5 345.5> 433 51<242 248 248 263 165.5 269 165.5 338.5>
LayerCount: 2
Fore
SplineSet
300 720 m 1
 434 575 l 1
 374 575 l 1
 271 672 l 1
 168 575 l 1
 108 575 l 1
 242 720 l 1
 300 720 l 1
268 -10 m 0
 142 -10 52 83 52 248 c 2
 52 263 l 2
 52 428 142 521 268 521 c 0
 394 521 484 428 484 263 c 2
 484 248 l 2
 484 83 394 -10 268 -10 c 0
268 36 m 0
 360 36 433 103 433 242 c 2
 433 269 l 2
 433 408 360 475 268 475 c 0
 176 475 103 408 103 269 c 2
 103 242 l 2
 103 103 176 36 268 36 c 0
EndSplineSet
EndChar

StartChar: odieresis
Encoding: 246 246 161
Width: 574
GlyphClass: 2
Flags: MW
HStem: -10 46<222 314 222 331> 475 46<222 314> 651 69<148 213 148 213 324 389>
VStem: 52 51<248 263 263 269 172.5 345.5> 148 65<651 720 651 720> 324 65<651 720 651 720> 433 51<242 248 248 263 165.5 269 165.5 338.5>
LayerCount: 2
Fore
SplineSet
213 720 m 1
 213 651 l 1
 148 651 l 1
 148 720 l 1
 213 720 l 1
389 720 m 1
 389 651 l 1
 324 651 l 1
 324 720 l 1
 389 720 l 1
268 -10 m 0
 142 -10 52 83 52 248 c 2
 52 263 l 2
 52 428 142 521 268 521 c 0
 394 521 484 428 484 263 c 2
 484 248 l 2
 484 83 394 -10 268 -10 c 0
268 36 m 0
 360 36 433 103 433 242 c 2
 433 269 l 2
 433 408 360 475 268 475 c 0
 176 475 103 408 103 269 c 2
 103 242 l 2
 103 103 176 36 268 36 c 0
EndSplineSet
EndChar

StartChar: ograve
Encoding: 242 242 162
Width: 574
GlyphClass: 2
Flags: MW
HStem: -10 46<222 314 222 331> 475 46<222 314> 575 145<141 302 141 252>
VStem: 52 51<248 263 263 269 172.5 345.5> 433 51<242 248 248 263 165.5 269 165.5 338.5>
LayerCount: 2
Fore
SplineSet
141 717 m 1
 141 720 l 1
 206 720 l 1
 302 575 l 1
 252 575 l 1
 141 717 l 1
268 -10 m 0
 142 -10 52 83 52 248 c 2
 52 263 l 2
 52 428 142 521 268 521 c 0
 394 521 484 428 484 263 c 2
 484 248 l 2
 484 83 394 -10 268 -10 c 0
268 36 m 0
 360 36 433 103 433 242 c 2
 433 269 l 2
 433 408 360 475 268 475 c 0
 176 475 103 408 103 269 c 2
 103 242 l 2
 103 103 176 36 268 36 c 0
EndSplineSet
EndChar

StartChar: ohungarumlaut
Encoding: 337 337 163
Width: 574
GlyphClass: 2
Flags: MW
HStem: -10 46<222 314 222 331> 475 46<222 314> 575 145<184 344 184 344 309 309 309 344 280 359>
VStem: 52 51<248 263 263 269 172.5 345.5> 433 51<242 248 248 263 165.5 269 165.5 338.5>
LayerCount: 2
Fore
SplineSet
280 720 m 1
 344 720 l 1
 345 717 l 1
 234 575 l 1
 184 575 l 1
 280 720 l 1
405 720 m 1
 469 720 l 1
 470 717 l 1
 359 575 l 1
 309 575 l 1
 405 720 l 1
268 -10 m 0
 142 -10 52 83 52 248 c 2
 52 263 l 2
 52 428 142 521 268 521 c 0
 394 521 484 428 484 263 c 2
 484 248 l 2
 484 83 394 -10 268 -10 c 0
268 36 m 0
 360 36 433 103 433 242 c 2
 433 269 l 2
 433 408 360 475 268 475 c 0
 176 475 103 408 103 269 c 2
 103 242 l 2
 103 103 176 36 268 36 c 0
EndSplineSet
EndChar

StartChar: omacron
Encoding: 333 333 164
Width: 574
GlyphClass: 2
Flags: MW
HStem: -10 46<222 314 222 331> 475 46<222 314> 692 44<108 426 108 426>
VStem: 52 51<248 263 263 269 172.5 345.5> 433 51<242 248 248 263 165.5 269 165.5 338.5>
LayerCount: 2
Fore
SplineSet
108 736 m 1
 426 736 l 1
 426 692 l 1
 108 692 l 1
 108 736 l 1
268 -10 m 0
 142 -10 52 83 52 248 c 2
 52 263 l 2
 52 428 142 521 268 521 c 0
 394 521 484 428 484 263 c 2
 484 248 l 2
 484 83 394 -10 268 -10 c 0
268 36 m 0
 360 36 433 103 433 242 c 2
 433 269 l 2
 433 408 360 475 268 475 c 0
 176 475 103 408 103 269 c 2
 103 242 l 2
 103 103 176 36 268 36 c 0
EndSplineSet
EndChar

StartChar: oslash
Encoding: 248 248 165
Width: 574
GlyphClass: 2
Flags: MW
HStem: -10 46<250 314 250 331> 475 46<222 285.5>
VStem: 52 51<248 263 263 269 209.5 345.5> 433 51<242 248 248 263 165.5 269 165.5 301.5>
LayerCount: 2
Fore
SplineSet
52 -55 m 1
 118 51 l 1
 76 95 52 161 52 248 c 2
 52 263 l 2
 52 428 142 521 268 521 c 0
 313 521 354 508 387 485 c 1
 439 569 l 1
 484 569 l 1
 417 461 l 1
 459 417 484 350 484 263 c 2
 484 248 l 2
 484 83 394 -10 268 -10 c 0
 222 -10 181 2 147 26 c 1
 97 -55 l 1
 52 -55 l 1
103 269 m 2
 103 242 l 2
 103 177 119 128 145 94 c 1
 362 445 l 1
 336 465 303 475 268 475 c 0
 176 475 103 408 103 269 c 2
268 36 m 0
 360 36 433 103 433 242 c 2
 433 269 l 2
 433 334 417 384 390 418 c 1
 172 66 l 1
 199 46 232 36 268 36 c 0
EndSplineSet
EndChar

StartChar: otilde
Encoding: 245 245 166
Width: 574
GlyphClass: 2
Flags: MW
HStem: -10 46<222 314 222 331> 475 46<222 314> 638 50<330 373.5 330 389.5> 670 50<166.5 210>
VStem: 52 51<248 263 263 269 172.5 345.5> 433 51<242 248 248 263 165.5 269 165.5 338.5>
LayerCount: 2
Fore
SplineSet
414 720 m 1xec
 451 720 l 1
 451 688 429 638 350 638 c 0xec
 286 638 237 670 183 670 c 0xdc
 150 670 133 661 126 638 c 1
 89 638 l 1
 89 670 112 720 190 720 c 0
 254 720 303 688 357 688 c 0
 390 688 407 697 414 720 c 1xec
268 -10 m 0
 142 -10 52 83 52 248 c 2
 52 263 l 2
 52 428 142 521 268 521 c 0
 394 521 484 428 484 263 c 2
 484 248 l 2
 484 83 394 -10 268 -10 c 0
268 36 m 0
 360 36 433 103 433 242 c 2
 433 269 l 2
 433 408 360 475 268 475 c 0
 176 475 103 408 103 269 c 2
 103 242 l 2
 103 103 176 36 268 36 c 0
EndSplineSet
EndChar

StartChar: oe
Encoding: 339 339 167
Width: 933
GlyphClass: 2
Flags: MW
HStem: -10 46<222 310.5 604 686.5> 250 46<485 796 485 846 484 796> 475 46<222 310.5 205 314 603 687>
VStem: 52 51<248 263 263 269 172.5 345.5> 433 51<242 250 236 269 236 338.5> 796 50<136.5 189 296 314>
LayerCount: 2
Fore
SplineSet
796 189 m 1
 846 189 l 1
 846 61 757 -10 647 -10 c 0
 561 -10 493 33 458 112 c 1
 422 33 353 -10 268 -10 c 0
 142 -10 52 83 52 248 c 2
 52 263 l 2
 52 428 142 521 268 521 c 0
 353 521 422 478 458 398 c 1
 492 478 560 521 646 521 c 0
 758 521 846 447 846 314 c 2
 846 250 l 1
 484 250 l 1
 484 236 l 2
 486 101 556 36 647 36 c 0
 726 36 796 84 796 189 c 1
268 36 m 0
 360 36 433 103 433 242 c 2
 433 269 l 2
 433 408 360 475 268 475 c 0
 176 475 103 408 103 269 c 2
 103 242 l 2
 103 103 176 36 268 36 c 0
646 475 m 0
 560 475 493 416 485 296 c 1
 796 296 l 1
 796 314 l 2
 796 423 728 475 646 475 c 0
EndSplineSet
EndChar

StartChar: p
Encoding: 112 112 168
Width: 583
GlyphClass: 2
Flags: MW
HStem: -181 21G<83 134 83 83> -10 46<261 335.5 248.5 353> 475 46<259.5 335.5> 491 20G<83 117 117 117>
VStem: 83 51<-181 71 -181 511> 449 51<242 251 159 253 159 336>
LayerCount: 2
Fore
SplineSet
117 511 m 1xdc
 128 434 l 1
 166 493 222 521 297 521 c 0xec
 409 521 500 441 500 251 c 2
 500 240 l 2
 500 78 409 -10 297 -10 c 0
 225 -10 167 21 134 71 c 1
 134 -181 l 1
 83 -181 l 1
 83 511 l 1
 117 511 l 1xdc
133 254 m 2
 133 242 l 2
 133 98 205 36 292 36 c 0
 379 36 449 99 449 242 c 2
 449 253 l 2
 449 419 379 475 292 475 c 0
 206 475 133 423 133 254 c 2
EndSplineSet
EndChar

StartChar: thorn
Encoding: 254 254 169
Width: 583
GlyphClass: 2
Flags: MW
HStem: -181 21G<83 134 83 83> -10 46<261 335.5 248.5 353> 475 46<261 335.5>
VStem: 83 51<-181 71 -181 720> 449 51<242 251 159 253 159 336>
LayerCount: 2
Fore
SplineSet
133 720 m 1
 133 441 l 1
 171 495 225 521 297 521 c 0
 409 521 500 441 500 251 c 2
 500 240 l 2
 500 78 409 -10 297 -10 c 0
 225 -10 167 21 134 71 c 1
 134 -181 l 1
 83 -181 l 1
 83 720 l 1
 133 720 l 1
133 254 m 2
 133 242 l 2
 133 98 205 36 292 36 c 0
 379 36 449 99 449 242 c 2
 449 253 l 2
 449 419 379 475 292 475 c 0
 206 475 133 423 133 254 c 2
EndSplineSet
EndChar

StartChar: q
Encoding: 113 113 170
Width: 583
GlyphClass: 2
Flags: MW
HStem: -180 21G<418 418 418 469> -10 46<216.5 291> 475 46<216.5 294 199 303> 491 20G<448 469 469 469>
VStem: 52 51<240 242 242 251 251 253 170.5 346> 418 51<-180 71 71 71>
LayerCount: 2
Fore
SplineSet
418 -180 m 1xec
 418 71 l 1
 385 21 327 -10 255 -10 c 0
 143 -10 52 78 52 240 c 2
 52 251 l 2
 52 441 143 521 255 521 c 0
 333 521 391 490 429 426 c 1xec
 448 511 l 1
 469 511 l 1xdc
 469 -180 l 1
 418 -180 l 1xec
419 242 m 2
 419 254 l 2
 419 423 346 475 260 475 c 0
 173 475 103 419 103 253 c 2
 103 242 l 2
 103 99 173 36 260 36 c 0
 347 36 419 98 419 242 c 2
EndSplineSet
EndChar

StartChar: r
Encoding: 114 114 171
Width: 490
GlyphClass: 2
Flags: MW
HStem: 0 21G<83 134 83 83> 475 46<217.5 312.5> 491 20G<83 117 117 117>
VStem: 83 51<0 324 0 511> 388 49<328 397 345 370.5>
AnchorPoint: "Bottom" 109 0 basechar 0
LayerCount: 2
Fore
SplineSet
388 328 m 1xd8
 388 344 l 2
 388 397 362 475 263 475 c 0xd8
 164 475 134 379 134 324 c 2
 134 0 l 1
 83 0 l 1
 83 511 l 1
 117 511 l 1xb8
 128 435 l 1
 128 435 162 521 273 521 c 0
 384 521 437 442 437 352 c 0
 437 338 435 328 435 328 c 1
 388 328 l 1xd8
EndSplineSet
EndChar

StartChar: racute
Encoding: 341 341 172
Width: 490
GlyphClass: 2
Flags: MW
HStem: 0 21G<83 134 83 83> 475 46<217.5 312.5> 491 20G<83 117 117 117> 575 145<78 239 78 239>
VStem: 83 51<0 324 0 511> 388 49<328 397 345 370.5>
AnchorPoint: "Bottom" 109 0 basechar 0
LayerCount: 2
Fore
SplineSet
174 720 m 1xdc
 239 720 l 1
 239 717 l 1
 128 575 l 1
 78 575 l 1
 174 720 l 1xdc
388 328 m 1
 388 344 l 2
 388 397 362 475 263 475 c 0xdc
 164 475 134 379 134 324 c 2
 134 0 l 1
 83 0 l 1
 83 511 l 1
 117 511 l 1xbc
 128 435 l 1
 128 435 162 521 273 521 c 0
 384 521 437 442 437 352 c 0
 437 338 435 328 435 328 c 1
 388 328 l 1
EndSplineSet
EndChar

StartChar: rcaron
Encoding: 345 345 173
Width: 490
GlyphClass: 2
Flags: MW
HStem: 0 21G<83 134 83 83> 475 46<217.5 312.5> 491 20G<83 117 117 117> 575 145<-54 138 -54 80>
VStem: 83 51<0 324 0 511> 388 49<328 397 345 370.5>
AnchorPoint: "Bottom" 109 0 basechar 0
LayerCount: 2
Fore
SplineSet
6 720 m 1xdc
 109 623 l 1
 212 720 l 1
 272 720 l 1
 138 575 l 1
 80 575 l 1
 -54 720 l 1
 6 720 l 1xdc
388 328 m 1
 388 344 l 2
 388 397 362 475 263 475 c 0xdc
 164 475 134 379 134 324 c 2
 134 0 l 1
 83 0 l 1
 83 511 l 1
 117 511 l 1xbc
 128 435 l 1
 128 435 162 521 273 521 c 0
 384 521 437 442 437 352 c 0
 437 338 435 328 435 328 c 1
 388 328 l 1
EndSplineSet
EndChar

StartChar: rcommaaccent
Encoding: 343 343 174
Width: 490
GlyphClass: 2
Flags: MW
HStem: -149 69<75 99 75 140> 0 21G<83 134 83 83> 475 46<217.5 312.5> 491 20G<83 117 117 117>
VStem: 75 65<-138 -80 -138 -80 -138 -80> 83 51<0 324 0 511> 388 49<328 397 345 370.5>
AnchorPoint: "Bottom" 109 0 basechar 0
LayerCount: 2
Fore
SplineSet
388 328 m 1xe6
 388 344 l 2
 388 397 362 475 263 475 c 0xe6
 164 475 134 379 134 324 c 2
 134 0 l 1
 83 0 l 1
 83 511 l 1
 117 511 l 1xd6
 128 435 l 1
 128 435 162 521 273 521 c 0
 384 521 437 442 437 352 c 0
 437 338 435 328 435 328 c 1
 388 328 l 1xe6
110 -250 m 1xea
 76 -250 l 2
 77 -250 99 -149 99 -149 c 1
 75 -149 l 1
 75 -80 l 1
 140 -80 l 1
 140 -138 l 1
 110 -250 l 1xea
EndSplineSet
EndChar

StartChar: s
Encoding: 115 115 175
Width: 534
GlyphClass: 2
Flags: MW
HStem: -10 46<210 307.5> 241.44 45.37 475 46<189.5 317>
VStem: 45 50<108.5 141.5> 60 51<314.5 395.5 314.5 419.5> 394 51<380 382 382 393.5> 406 51<107 214.5>
AnchorPoint: "Bottom" 267 0 basechar 0
LayerCount: 2
Fore
SplineSet
46 157 m 1xf2
 96 157 l 1
 95 152 95 148 95 143 c 0xf2
 95 74 159 36 261 36 c 0
 355 36 406 78 406 136 c 0xea
 406 293 60 187 60 381 c 0
 60 458 121 521 258 521 c 0
 394 521 445 443 445 383 c 0
 445 377 444 369 444 369 c 1
 394 369 l 1
 394 382 l 2xec
 394 405 385 475 249 475 c 0
 117 475 111 408 111 383 c 0xea
 111 246 457 334 457 146 c 0
 457 30 367 -10 248 -10 c 0
 90 -10 45 80 45 132 c 0
 45 151 46 157 46 157 c 1xf2
EndSplineSet
EndChar

StartChar: sacute
Encoding: 347 347 176
Width: 534
GlyphClass: 2
Flags: MW
HStem: -10 46<210 307.5> 241.44 45.37 475 46<189.5 317> 575 145<216 377 216 377>
VStem: 45 50<108.5 141.5> 60 51<314.5 395.5 314.5 419.5> 394 51<380 382 382 393.5> 406 51<107 214.5>
AnchorPoint: "Bottom" 267 0 basechar 0
LayerCount: 2
Fore
SplineSet
312 720 m 1xf5
 377 720 l 1
 377 717 l 1
 266 575 l 1
 216 575 l 1
 312 720 l 1xf5
46 157 m 1xf9
 96 157 l 1
 95 152 95 148 95 143 c 0xf9
 95 74 159 36 261 36 c 0
 355 36 406 78 406 136 c 0xf5
 406 293 60 187 60 381 c 0
 60 458 121 521 258 521 c 0
 394 521 445 443 445 383 c 0
 445 377 444 369 444 369 c 1
 394 369 l 1
 394 382 l 2xf6
 394 405 385 475 249 475 c 0
 117 475 111 408 111 383 c 0xf5
 111 246 457 334 457 146 c 0
 457 30 367 -10 248 -10 c 0
 90 -10 45 80 45 132 c 0
 45 151 46 157 46 157 c 1xf9
EndSplineSet
EndChar

StartChar: scaron
Encoding: 353 353 177
Width: 534
GlyphClass: 2
Flags: MW
HStem: -10 46<210 307.5> 241.44 45.37 475 46<189.5 317> 575 145<92 284 92 226>
VStem: 45 50<108.5 141.5> 60 51<314.5 395.5 314.5 419.5> 394 51<380 382 382 393.5> 406 51<107 214.5>
LayerCount: 2
Fore
SplineSet
152 720 m 1xf5
 255 623 l 1
 358 720 l 1
 418 720 l 1
 284 575 l 1
 226 575 l 1
 92 720 l 1
 152 720 l 1xf5
46 157 m 1xf9
 96 157 l 1
 95 152 95 148 95 143 c 0xf9
 95 74 159 36 261 36 c 0
 355 36 406 78 406 136 c 0xf5
 406 293 60 187 60 381 c 0
 60 458 121 521 258 521 c 0
 394 521 445 443 445 383 c 0
 445 377 444 369 444 369 c 1
 394 369 l 1
 394 382 l 2xf6
 394 405 385 475 249 475 c 0
 117 475 111 408 111 383 c 0xf5
 111 246 457 334 457 146 c 0
 457 30 367 -10 248 -10 c 0
 90 -10 45 80 45 132 c 0
 45 151 46 157 46 157 c 1xf9
EndSplineSet
EndChar

StartChar: scedilla
Encoding: 351 351 178
Width: 534
GlyphClass: 2
Flags: MW
HStem: -197 46<234.5 256.5 221.5 270> -184 21G<169 169> -51 34<234 256 234 259> -10 46<210 307.5> 241.44 45.37 475 46<189.5 317>
VStem: 45 50<108.5 141.5> 60 51<314.5 395.5 314.5 419.5> 314 51<-118.5 -81.5> 394 51<380 382 382 393.5> 406 51<107 214.5>
AnchorPoint: "Bottom" 267 0 basechar 0
LayerCount: 2
Fore
SplineSet
46 157 m 1x9ea0
 96 157 l 1
 95 152 95 148 95 143 c 0x5ea0
 95 74 159 36 261 36 c 0
 355 36 406 78 406 136 c 0x9da0
 406 293 60 187 60 381 c 0
 60 458 121 521 258 521 c 0
 394 521 445 443 445 383 c 0
 445 377 444 369 444 369 c 1
 394 369 l 1
 394 382 l 2x9dc0
 394 405 385 475 249 475 c 0
 117 475 111 408 111 383 c 0x9da0
 111 246 457 334 457 146 c 0
 457 30 367 -10 248 -10 c 0
 90 -10 45 80 45 132 c 0
 45 151 46 157 46 157 c 1x9ea0
169 -184 m 1
 169 -138 l 1
 182 -145 205 -151 238 -151 c 0
 275 -151 314 -140 314 -97 c 0
 314 -66 283 -51 256 -51 c 2
 234 -51 l 1
 234 -17 l 1
 259 -17 l 2
 313 -17 365 -37 365 -106 c 0
 365 -179 293 -197 247 -197 c 0xada0
 222 -197 193 -193 169 -184 c 1
EndSplineSet
EndChar

StartChar: scommaaccent
Encoding: 537 537 179
Width: 534
GlyphClass: 2
Flags: MW
HStem: -149 69<233 257 233 298> -10 46<210 307.5> 241.44 45.37 475 46<189.5 317>
VStem: 45 50<108.5 141.5> 60 51<314.5 395.5 314.5 419.5> 233 65<-138 -80 -138 -80 -138 -80> 394 51<380 382 382 393.5> 406 51<107 214.5>
AnchorPoint: "Bottom" 267 0 basechar 0
LayerCount: 2
Fore
SplineSet
46 157 m 1xfa80
 96 157 l 1
 95 152 95 148 95 143 c 0xfa80
 95 74 159 36 261 36 c 0
 355 36 406 78 406 136 c 0xf680
 406 293 60 187 60 381 c 0
 60 458 121 521 258 521 c 0
 394 521 445 443 445 383 c 0
 445 377 444 369 444 369 c 1
 394 369 l 1
 394 382 l 2xf7
 394 405 385 475 249 475 c 0
 117 475 111 408 111 383 c 0xf680
 111 246 457 334 457 146 c 0
 457 30 367 -10 248 -10 c 0
 90 -10 45 80 45 132 c 0
 45 151 46 157 46 157 c 1xfa80
268 -250 m 1
 234 -250 l 2
 235 -250 257 -149 257 -149 c 1
 233 -149 l 1
 233 -80 l 1
 298 -80 l 1
 298 -138 l 1
 268 -250 l 1
EndSplineSet
EndChar

StartChar: germandbls
Encoding: 223 223 180
Width: 614
GlyphClass: 2
Flags: MW
HStem: 0 46<224 316 224 316> 361 46<224 305 305 316 224 305> 465 46<46 102 46 102> 682 46<265 358>
VStem: 102 51<-66 465 465 465 511 514 -66 577> 458 51<510.5 582> 480 51<159.5 243 146.5 246.5>
LayerCount: 2
Fore
SplineSet
407 388 m 1xfa
 409 385 l 1
 480 358 531 283 531 203 c 0
 531 90 435 0 316 0 c 2
 224 0 l 1
 224 46 l 1
 316 46 l 2
 407 46 480 116 480 203 c 0xfa
 480 290 407 361 316 361 c 2
 224 361 l 1
 224 407 l 1
 305 407 l 2
 389 407 458 468 458 544 c 0
 458 620 401 682 315 682 c 0
 215 682 153 614 153 514 c 2
 153 -66 l 1
 102 -66 l 1
 102 465 l 1
 46 465 l 1
 46 511 l 1
 102 511 l 1
 102 643 189 728 315 728 c 0
 429 728 509 646 509 544 c 0xfc
 509 477 464 410 407 388 c 1xfa
EndSplineSet
EndChar

StartChar: t
Encoding: 116 116 181
Width: 346
GlyphClass: 2
Flags: MW
HStem: -10 46<193 213.5> 465 46<43 99 43 99 150 269>
VStem: 99 51<101 103 103 465>
AnchorPoint: "Bottom" 173 0 basechar 0
LayerCount: 2
Fore
SplineSet
269 52 m 1
 269 7 l 1
 252 -3 226 -10 201 -10 c 0
 142 -10 99 24 99 101 c 2
 99 465 l 1
 43 465 l 1
 43 511 l 1
 99 511 l 1
 117 674 l 1
 150 674 l 1
 150 511 l 1
 269 511 l 1
 269 465 l 1
 150 465 l 1
 150 103 l 2
 150 44 179 36 207 36 c 0
 222 36 253 45 269 52 c 1
EndSplineSet
EndChar

StartChar: tcaron
Encoding: 357 357 182
Width: 346
GlyphClass: 2
Flags: MW
HStem: -10 46<193 213.5> 465 46<43 99 43 99 150 269> 496 20G<303 337 303 303.5> 516 170<303 337 303 303.5> 617 69<302 326 302 367>
VStem: 99 51<101 103 103 465> 302 65<628 686 628 686 628 686>
AnchorPoint: "Bottom" 173 0 basechar 0
LayerCount: 2
Fore
SplineSet
337 516 m 1x96
 303 516 l 2
 304 516 326 617 326 617 c 1
 302 617 l 1
 302 686 l 1
 367 686 l 1
 367 628 l 1xae
 337 516 l 1x96
269 52 m 1
 269 7 l 1
 252 -3 226 -10 201 -10 c 0
 142 -10 99 24 99 101 c 2
 99 465 l 1
 43 465 l 1
 43 511 l 1
 99 511 l 1
 117 674 l 1
 150 674 l 1
 150 511 l 1
 269 511 l 1
 269 465 l 1
 150 465 l 1xce
 150 103 l 2
 150 44 179 36 207 36 c 0
 222 36 253 45 269 52 c 1
EndSplineSet
EndChar

StartChar: tcedilla
Encoding: 355 355 183
Width: 346
GlyphClass: 2
Flags: MW
HStem: -197 46<140.5 162.5 127.5 176> -184 21G<75 75> -51 34<140 162 140 165> -10 46<193 213.5> 465 46<43 99 43 99 150 269>
VStem: 99 51<101 103 103 465> 220 51<-118.5 -81.5>
AnchorPoint: "Bottom" 173 0 basechar 0
LayerCount: 2
Fore
SplineSet
269 52 m 1x9e
 269 7 l 1
 252 -3 226 -10 201 -10 c 0
 142 -10 99 24 99 101 c 2
 99 465 l 1
 43 465 l 1
 43 511 l 1
 99 511 l 1
 117 674 l 1
 150 674 l 1
 150 511 l 1
 269 511 l 1
 269 465 l 1
 150 465 l 1
 150 103 l 2
 150 44 179 36 207 36 c 0
 222 36 253 45 269 52 c 1x9e
75 -184 m 1x5e
 75 -138 l 1
 88 -145 111 -151 144 -151 c 0
 181 -151 220 -140 220 -97 c 0
 220 -66 189 -51 162 -51 c 2
 140 -51 l 1
 140 -17 l 1
 165 -17 l 2
 219 -17 271 -37 271 -106 c 0
 271 -179 199 -197 153 -197 c 0xae
 128 -197 99 -193 75 -184 c 1x5e
EndSplineSet
EndChar

StartChar: tcommaaccent
Encoding: 539 539 184
Width: 346
GlyphClass: 2
Flags: MW
HStem: -149 69<139 163 139 204> -10 46<193 213.5> 465 46<43 99 43 99 150 269>
VStem: 99 51<101 103 103 465> 139 65<-138 -80 -138 -80 -138 -80>
AnchorPoint: "Bottom" 173 0 basechar 0
LayerCount: 2
Fore
SplineSet
269 52 m 1xf0
 269 7 l 1
 252 -3 226 -10 201 -10 c 0
 142 -10 99 24 99 101 c 2
 99 465 l 1
 43 465 l 1
 43 511 l 1
 99 511 l 1
 117 674 l 1
 150 674 l 1
 150 511 l 1
 269 511 l 1
 269 465 l 1
 150 465 l 1
 150 103 l 2
 150 44 179 36 207 36 c 0
 222 36 253 45 269 52 c 1xf0
174 -250 m 1xe8
 140 -250 l 2
 141 -250 163 -149 163 -149 c 1
 139 -149 l 1
 139 -80 l 1
 204 -80 l 1
 204 -138 l 1
 174 -250 l 1xe8
EndSplineSet
EndChar

StartChar: u
Encoding: 117 117 185
Width: 618
GlyphClass: 2
Flags: MW
HStem: -10 46<228 298.5 500.5 506> 491 20G<78 129 129 129 430 481 481 481>
VStem: 78 51<182 197 197 511> 430 51<57 69 69 76 197 511>
LayerCount: 2
Fore
SplineSet
430 76 m 1
 395 22 332 -10 265 -10 c 0
 159 -10 78 49 78 182 c 2
 78 511 l 1
 129 511 l 1
 129 197 l 2
 129 86 183 36 273 36 c 0
 363 36 430 105 430 197 c 2
 430 511 l 1
 481 511 l 1
 481 69 l 2
 481 45 493 36 508 36 c 0
 523 36 543 43 558 52 c 1
 558 9 l 1
 540 -3 518 -10 494 -10 c 0
 445 -10 430 36 430 76 c 1
EndSplineSet
EndChar

StartChar: uacute
Encoding: 250 250 186
Width: 618
GlyphClass: 2
Flags: MW
HStem: -10 46<228 298.5 500.5 506> 491 20G<78 129 129 129 430 481 481 481> 575 145<257 418 257 418>
VStem: 78 51<182 197 197 511> 430 51<57 69 69 76 197 511>
LayerCount: 2
Fore
SplineSet
353 720 m 1
 418 720 l 1
 418 717 l 1
 307 575 l 1
 257 575 l 1
 353 720 l 1
430 76 m 1
 395 22 332 -10 265 -10 c 0
 159 -10 78 49 78 182 c 2
 78 511 l 1
 129 511 l 1
 129 197 l 2
 129 86 183 36 273 36 c 0
 363 36 430 105 430 197 c 2
 430 511 l 1
 481 511 l 1
 481 69 l 2
 481 45 493 36 508 36 c 0
 523 36 543 43 558 52 c 1
 558 9 l 1
 540 -3 518 -10 494 -10 c 0
 445 -10 430 36 430 76 c 1
EndSplineSet
EndChar

StartChar: ucircumflex
Encoding: 251 251 187
Width: 618
GlyphClass: 2
Flags: MW
HStem: -10 46<228 298.5 500.5 506> 491 20G<78 129 129 129 430 481 481 481> 575 145<117 309 117 309 251 443 251 383>
VStem: 78 51<182 197 197 511> 430 51<57 69 69 76 197 511>
LayerCount: 2
Fore
SplineSet
309 720 m 1
 443 575 l 1
 383 575 l 1
 280 672 l 1
 177 575 l 1
 117 575 l 1
 251 720 l 1
 309 720 l 1
430 76 m 1
 395 22 332 -10 265 -10 c 0
 159 -10 78 49 78 182 c 2
 78 511 l 1
 129 511 l 1
 129 197 l 2
 129 86 183 36 273 36 c 0
 363 36 430 105 430 197 c 2
 430 511 l 1
 481 511 l 1
 481 69 l 2
 481 45 493 36 508 36 c 0
 523 36 543 43 558 52 c 1
 558 9 l 1
 540 -3 518 -10 494 -10 c 0
 445 -10 430 36 430 76 c 1
EndSplineSet
EndChar

StartChar: udieresis
Encoding: 252 252 188
Width: 618
GlyphClass: 2
Flags: MW
HStem: -10 46<228 298.5 500.5 506> 491 20G<78 129 129 129 430 481 481 481> 651 69<156 221 156 221 332 397>
VStem: 78 51<182 197 197 511> 156 65<651 720 651 720> 332 65<651 720 651 720> 430 51<57 69 69 76 197 511>
LayerCount: 2
Fore
SplineSet
221 720 m 1
 221 651 l 1
 156 651 l 1
 156 720 l 1
 221 720 l 1
397 720 m 1
 397 651 l 1
 332 651 l 1
 332 720 l 1
 397 720 l 1
430 76 m 1
 395 22 332 -10 265 -10 c 0
 159 -10 78 49 78 182 c 2
 78 511 l 1
 129 511 l 1
 129 197 l 2xf6
 129 86 183 36 273 36 c 0
 363 36 430 105 430 197 c 2
 430 511 l 1
 481 511 l 1
 481 69 l 2
 481 45 493 36 508 36 c 0
 523 36 543 43 558 52 c 1
 558 9 l 1
 540 -3 518 -10 494 -10 c 0
 445 -10 430 36 430 76 c 1
EndSplineSet
EndChar

StartChar: ugrave
Encoding: 249 249 189
Width: 618
GlyphClass: 2
Flags: MW
HStem: -10 46<228 298.5 500.5 506> 491 20G<78 129 129 129 430 481 481 481> 575 145<151 312 151 262>
VStem: 78 51<182 197 197 511> 430 51<57 69 69 76 197 511>
LayerCount: 2
Fore
SplineSet
151 717 m 1
 151 720 l 1
 216 720 l 1
 312 575 l 1
 262 575 l 1
 151 717 l 1
430 76 m 1
 395 22 332 -10 265 -10 c 0
 159 -10 78 49 78 182 c 2
 78 511 l 1
 129 511 l 1
 129 197 l 2
 129 86 183 36 273 36 c 0
 363 36 430 105 430 197 c 2
 430 511 l 1
 481 511 l 1
 481 69 l 2
 481 45 493 36 508 36 c 0
 523 36 543 43 558 52 c 1
 558 9 l 1
 540 -3 518 -10 494 -10 c 0
 445 -10 430 36 430 76 c 1
EndSplineSet
EndChar

StartChar: uhungarumlaut
Encoding: 369 369 190
Width: 618
GlyphClass: 2
Flags: MW
HStem: -10 46<228 298.5 500.5 506> 491 20G<78 129 129 129 430 481 481 481> 575 145<197 357 197 357 322 322 322 357 293 372>
VStem: 78 51<182 197 197 511> 430 51<57 69 69 76 197 511>
LayerCount: 2
Fore
SplineSet
293 720 m 1
 357 720 l 1
 358 717 l 1
 247 575 l 1
 197 575 l 1
 293 720 l 1
418 720 m 1
 482 720 l 1
 483 717 l 1
 372 575 l 1
 322 575 l 1
 418 720 l 1
430 76 m 1
 395 22 332 -10 265 -10 c 0
 159 -10 78 49 78 182 c 2
 78 511 l 1
 129 511 l 1
 129 197 l 2
 129 86 183 36 273 36 c 0
 363 36 430 105 430 197 c 2
 430 511 l 1
 481 511 l 1
 481 69 l 2
 481 45 493 36 508 36 c 0
 523 36 543 43 558 52 c 1
 558 9 l 1
 540 -3 518 -10 494 -10 c 0
 445 -10 430 36 430 76 c 1
EndSplineSet
EndChar

StartChar: umacron
Encoding: 363 363 191
Width: 618
GlyphClass: 2
Flags: MW
HStem: -10 46<228 298.5 500.5 506> 491 20G<78 129 129 129 430 481 481 481> 692 44<121 439 121 439>
VStem: 78 51<182 197 197 511> 430 51<57 69 69 76 197 511>
LayerCount: 2
Fore
SplineSet
121 736 m 1
 439 736 l 1
 439 692 l 1
 121 692 l 1
 121 736 l 1
430 76 m 1
 395 22 332 -10 265 -10 c 0
 159 -10 78 49 78 182 c 2
 78 511 l 1
 129 511 l 1
 129 197 l 2
 129 86 183 36 273 36 c 0
 363 36 430 105 430 197 c 2
 430 511 l 1
 481 511 l 1
 481 69 l 2
 481 45 493 36 508 36 c 0
 523 36 543 43 558 52 c 1
 558 9 l 1
 540 -3 518 -10 494 -10 c 0
 445 -10 430 36 430 76 c 1
EndSplineSet
EndChar

StartChar: uogonek
Encoding: 371 371 192
Width: 618
GlyphClass: 2
Flags: MW
HStem: -143 43<540.5 561.5> -10 46<228 298.5> 0 21G<542 554 554 554> 491 20G<78 129 129 129 430 481 481 481>
VStem: 78 51<182 197 197 511> 430 51<57 69 69 76 197 511> 450 57<-75.5 -58>
LayerCount: 2
Fore
SplineSet
618 -86 m 1xdc
 631 -119 l 1
 605 -135 576 -143 547 -143 c 0
 501 -143 450 -126 450 -71 c 0xda
 450 -45 470 -25 490 -10 c 1
 444 -7 430 37 430 76 c 1
 395 22 332 -10 265 -10 c 0
 159 -10 78 49 78 182 c 2
 78 511 l 1
 129 511 l 1
 129 197 l 2
 129 86 183 36 273 36 c 0
 363 36 430 105 430 197 c 2
 430 511 l 1
 481 511 l 1
 481 69 l 2
 481 45 493 36 508 36 c 0
 523 36 543 43 558 52 c 1
 558 9 l 1
 553 6 547 3 542 0 c 2xdc
 554 0 l 1
 551 -2 l 2
 531 -16 507 -33 507 -60 c 0
 507 -91 530 -100 551 -100 c 0xba
 575 -100 597 -93 618 -86 c 1xdc
EndSplineSet
EndChar

StartChar: uring
Encoding: 367 367 193
Width: 618
GlyphClass: 2
Flags: MW
HStem: -10 46<228 298.5 500.5 506> 491 20G<78 129 129 129 430 481 481 481> 545 36<262.5 298 262.5 308> 710 36<262 297.5>
VStem: 78 51<182 197 197 511> 179 36<627 663 627 673> 345 36<627.5 663.5> 430 51<57 69 69 76 197 511>
LayerCount: 2
Fore
SplineSet
381 645 m 0
 381 590 336 545 280 545 c 0
 225 545 179 589 179 645 c 0
 179 701 224 746 280 746 c 0
 335 746 381 702 381 645 c 0
345 645 m 0
 345 682 315 710 280 710 c 0
 244 710 215 681 215 645 c 0
 215 609 245 581 280 581 c 0
 316 581 345 610 345 645 c 0
430 76 m 1
 395 22 332 -10 265 -10 c 0
 159 -10 78 49 78 182 c 2
 78 511 l 1
 129 511 l 1
 129 197 l 2
 129 86 183 36 273 36 c 0
 363 36 430 105 430 197 c 2
 430 511 l 1
 481 511 l 1
 481 69 l 2
 481 45 493 36 508 36 c 0
 523 36 543 43 558 52 c 1
 558 9 l 1
 540 -3 518 -10 494 -10 c 0
 445 -10 430 36 430 76 c 1
EndSplineSet
EndChar

StartChar: v
Encoding: 118 118 194
Width: 512
GlyphClass: 2
Flags: MW
HStem: 0 21G<218 218 218 263> 0 74<218 244 242 244 242 263> 491 20G<12 67 67 67 420 470 470 470>
VStem: 12 458<511 511>
LayerCount: 2
Fore
SplineSet
218 0 m 1xb0
 12 511 l 1
 67 511 l 1
 242 74 l 1
 244 74 l 1x70
 420 511 l 1
 470 511 l 1
 263 0 l 1
 218 0 l 1xb0
EndSplineSet
EndChar

StartChar: w
Encoding: 119 119 195
Width: 811
GlyphClass: 2
Flags: MW
HStem: 0 21G<197 197 197 237 549 549 549 589> 0 93<197 221 218 221 218 237 570 573> 446 65<392 394 392 392> 491 20G<20 73 73 73 366 425 425 425 718 767 767 767>
VStem: 20 747<511 511>
LayerCount: 2
Fore
SplineSet
197 0 m 1x98
 20 511 l 1
 73 511 l 1
 218 93 l 1
 221 93 l 1
 366 511 l 1
 425 511 l 1
 570 93 l 1
 573 93 l 1x58
 718 511 l 1
 767 511 l 1
 589 0 l 1
 549 0 l 1
 394 446 l 1
 392 446 l 1xa8
 237 0 l 1
 197 0 l 1x98
EndSplineSet
EndChar

StartChar: x
Encoding: 120 120 196
Width: 519
GlyphClass: 2
Flags: MW
HStem: 0 21G<18 76 18 18 393 393 393 456> 491 20G<26 90 90 90 389 447 447 447>
VStem: 18 438<0 0>
LayerCount: 2
Fore
SplineSet
236 221 m 1
 235 221 l 1
 76 0 l 1
 18 0 l 1
 208 262 l 1
 26 511 l 1
 90 511 l 1
 238 303 l 1
 239 303 l 1
 389 511 l 1
 447 511 l 1
 266 262 l 1
 456 0 l 1
 393 0 l 1
 236 221 l 1
EndSplineSet
EndChar

StartChar: y
Encoding: 121 121 197
Width: 512
GlyphClass: 2
Flags: MW
HStem: -186 46<99 129.5 92 155.5> 491 20G<12 67 67 67 420 470 470 470>
VStem: 12 458<511 511>
LayerCount: 2
Fore
SplineSet
470 511 m 1
 268 13 l 2
 225 -94 201 -186 110 -186 c 0
 88 -186 69 -182 47 -172 c 1
 47 -126 l 1
 61 -132 83 -140 101 -140 c 0
 158 -140 179 -81 195 -41 c 2
 215 8 l 1
 12 511 l 1
 67 511 l 1
 241 76 l 1
 245 76 l 1
 420 511 l 1
 470 511 l 1
EndSplineSet
EndChar

StartChar: yacute
Encoding: 253 253 198
Width: 512
GlyphClass: 2
Flags: MW
HStem: -186 46<99 129.5 92 155.5> 491 20G<12 67 67 67 420 470 470 470> 575 145<221 382 221 382>
VStem: 12 458<511 511>
LayerCount: 2
Fore
SplineSet
317 720 m 1
 382 720 l 1
 382 717 l 1
 271 575 l 1
 221 575 l 1
 317 720 l 1
470 511 m 1
 268 13 l 2
 225 -94 201 -186 110 -186 c 0
 88 -186 69 -182 47 -172 c 1
 47 -126 l 1
 61 -132 83 -140 101 -140 c 0
 158 -140 179 -81 195 -41 c 2
 215 8 l 1
 12 511 l 1
 67 511 l 1
 241 76 l 1
 245 76 l 1
 420 511 l 1
 470 511 l 1
EndSplineSet
EndChar

StartChar: ydieresis
Encoding: 255 255 199
Width: 512
GlyphClass: 2
Flags: MW
HStem: -186 46<99 129.5 92 155.5> 491 20G<12 67 67 67 420 470 470 470> 651 69<124 189 124 189 300 365>
VStem: 124 65<651 720 651 720> 300 65<651 720 651 720>
LayerCount: 2
Fore
SplineSet
189 720 m 1
 189 651 l 1
 124 651 l 1
 124 720 l 1
 189 720 l 1
365 720 m 1
 365 651 l 1
 300 651 l 1
 300 720 l 1
 365 720 l 1
470 511 m 1
 268 13 l 2
 225 -94 201 -186 110 -186 c 0
 88 -186 69 -182 47 -172 c 1
 47 -126 l 1
 61 -132 83 -140 101 -140 c 0
 158 -140 179 -81 195 -41 c 2
 215 8 l 1
 12 511 l 1
 67 511 l 1
 241 76 l 1
 245 76 l 1
 420 511 l 1
 470 511 l 1
EndSplineSet
EndChar

StartChar: z
Encoding: 122 122 200
Width: 463
GlyphClass: 2
Flags: MW
HStem: 0 46<110 396 110 396> 465 46<53 313 53 388>
VStem: 36 360<0 24 24 24>
LayerCount: 2
Fore
SplineSet
36 24 m 1
 313 465 l 1
 53 465 l 1
 53 511 l 1
 388 511 l 1
 388 487 l 1
 110 46 l 1
 396 46 l 1
 396 0 l 1
 36 0 l 1
 36 24 l 1
EndSplineSet
EndChar

StartChar: zacute
Encoding: 378 378 201
Width: 463
GlyphClass: 2
Flags: MW
HStem: 0 46<110 396 110 396> 465 46<53 313 53 388> 575 145<181 342 181 342>
VStem: 36 360<0 24 24 24>
LayerCount: 2
Fore
SplineSet
277 720 m 1
 342 720 l 1
 342 717 l 1
 231 575 l 1
 181 575 l 1
 277 720 l 1
36 24 m 1
 313 465 l 1
 53 465 l 1
 53 511 l 1
 388 511 l 1
 388 487 l 1
 110 46 l 1
 396 46 l 1
 396 0 l 1
 36 0 l 1
 36 24 l 1
EndSplineSet
EndChar

StartChar: zcaron
Encoding: 382 382 202
Width: 463
GlyphClass: 2
Flags: MW
HStem: 0 46<110 396 110 396> 465 46<53 313 53 388> 575 145<59 251 59 193>
VStem: 36 360<0 24 24 24>
LayerCount: 2
Fore
SplineSet
119 720 m 1
 222 623 l 1
 325 720 l 1
 385 720 l 1
 251 575 l 1
 193 575 l 1
 59 720 l 1
 119 720 l 1
36 24 m 1
 313 465 l 1
 53 465 l 1
 53 511 l 1
 388 511 l 1
 388 487 l 1
 110 46 l 1
 396 46 l 1
 396 0 l 1
 36 0 l 1
 36 24 l 1
EndSplineSet
EndChar

StartChar: zdotaccent
Encoding: 380 380 203
Width: 463
GlyphClass: 2
Flags: MW
HStem: 0 46<110 396 110 396> 465 46<53 313 53 388> 604 132<193.5 229.5>
VStem: 146 132<652 688 651 688.5>
LayerCount: 2
Fore
SplineSet
278 670 m 0
 278 632 248 604 211 604 c 0
 176 604 146 634 146 670 c 0
 146 707 175 736 212 736 c 0
 249 736 278 706 278 670 c 0
36 24 m 1
 313 465 l 1
 53 465 l 1
 53 511 l 1
 388 511 l 1
 388 487 l 1
 110 46 l 1
 396 46 l 1
 396 0 l 1
 36 0 l 1
 36 24 l 1
EndSplineSet
EndChar

StartChar: fi
Encoding: 64257 64257 204
Width: 601
GlyphClass: 3
Flags: MW
HStem: 0 21G<103 154 103 103 396 396 396 447> 465 46<47 103 47 103 154 273> 666 54<392 451 392 451> 682 46<197 217.5 175.5 218.5>
VStem: 103 51<0 465 0 465 511 615> 392 59<666 720 666 720> 396 51<0 511 0 511>
LayerCount: 2
Fore
SplineSet
273 711 m 1xda
 273 666 l 1
 257 673 226 682 211 682 c 0
 183 682 154 674 154 615 c 2
 154 511 l 1
 273 511 l 1
 273 465 l 1
 154 465 l 1
 154 0 l 1
 103 0 l 1
 103 465 l 1
 47 465 l 1
 47 511 l 1
 103 511 l 1
 103 617 l 2
 103 694 146 728 205 728 c 0
 230 728 256 721 273 711 c 1xda
451 720 m 1xec
 451 666 l 1
 392 666 l 1
 392 720 l 1
 451 720 l 1xec
396 511 m 1xda
 447 511 l 1
 447 0 l 1
 396 0 l 1
 396 511 l 1xda
EndSplineSet
Ligature2: "'liga' Standard Ligatures lookup 4 subtable" f i
EndChar

StartChar: fl
Encoding: 64258 64258 205
Width: 607
GlyphClass: 3
Flags: MW
HStem: 0 21G<103 154 103 103 398 398 398 449> 465 46<47 103 47 103 154 273> 682 46<197 217.5 175.5 218.5>
VStem: 103 51<0 465 0 465 511 615> 398 51<0 720 0 720>
LayerCount: 2
Fore
SplineSet
273 711 m 1
 273 666 l 1
 257 673 226 682 211 682 c 0
 183 682 154 674 154 615 c 2
 154 511 l 1
 273 511 l 1
 273 465 l 1
 154 465 l 1
 154 0 l 1
 103 0 l 1
 103 465 l 1
 47 465 l 1
 47 511 l 1
 103 511 l 1
 103 617 l 2
 103 694 146 728 205 728 c 0
 230 728 256 721 273 711 c 1
398 720 m 1
 449 720 l 1
 449 0 l 1
 398 0 l 1
 398 720 l 1
EndSplineSet
Ligature2: "'liga' Standard Ligatures lookup 4 subtable" f l
EndChar

StartChar: ordfeminine
Encoding: 170 170 206
Width: 415
GlyphClass: 2
Flags: MW
HStem: 373 37<138 178 309 312> 527 37<210.5 261> 660 37<164 213>
VStem: 55 40<444 492 444 508.5> 66 40<594 637.5> 261 40<512 527 527 527 564 597 597 603>
LayerCount: 2
Fore
SplineSet
301 603 m 2xf4
 301 425 l 2
 301 414 306 410 312 410 c 0
 320 410 334 416 347 424 c 1
 347 387 l 1
 335 378 320 373 304 373 c 0
 275 373 264 392 261 421 c 1
 235 388 201 373 155 373 c 0
 104 373 55 391 55 463 c 0xf4
 55 554 142 564 261 564 c 1
 261 597 l 2
 261 644 239 660 187 660 c 0
 141 660 106 644 106 603 c 2
 106 594 l 1
 68 594 l 1
 66 598 66 607 66 609 c 0xec
 66 666 119 697 187 697 c 0
 264 697 301 667 301 603 c 2xf4
261 512 m 2
 261 527 l 1
 160 527 95 522 95 462 c 0
 95 426 115 410 161 410 c 0
 210 410 261 441 261 512 c 2
EndSplineSet
EndChar

StartChar: ordmasculine
Encoding: 186 186 207
Width: 392
GlyphClass: 2
Flags: MW
HStem: 377 36<158.5 210 158.5 223> 661 37<158.5 210>
VStem: 53 40<533 542 542 545 490 592> 276 41<530 533 533 542 483 545 483 584.5>
LayerCount: 2
Fore
SplineSet
184 377 m 0
 108 377 53 433 53 533 c 2
 53 542 l 2
 53 642 108 698 184 698 c 0
 262 698 317 642 317 542 c 2
 317 533 l 2
 317 433 262 377 184 377 c 0
184 413 m 0
 236 413 276 450 276 530 c 2
 276 545 l 2
 276 624 236 661 184 661 c 0
 133 661 93 624 93 545 c 2
 93 530 l 2
 93 450 133 413 184 413 c 0
EndSplineSet
EndChar

StartChar: Delta
Encoding: 916 916 208
Width: 701
GlyphClass: 2
Flags: MW
HStem: 0 55<131 569 131 634> 639 47<350 350>
VStem: 67 567<0 48 0 48>
LayerCount: 2
Fore
SplineSet
306 686 m 1
 394 686 l 1
 634 48 l 1
 634 0 l 1
 67 0 l 1
 67 48 l 1
 306 686 l 1
569 55 m 1
 350 639 l 1
 131 55 l 1
 569 55 l 1
EndSplineSet
Position2: "'cpsp' Capital Spacing lookup 0 subtable" dx=5 dy=0 dh=10 dv=0
EndChar

StartChar: Omega
Encoding: 937 937 209
Width: 699
GlyphClass: 2
Flags: MW
HStem: 0 48<45 90 45 292 45 90 576 621> 648 48<275.5 392.5>
VStem: 45 247<0 29 0 48 0 48> 68 54<330 356 356 368> 374 247<0 29 29 29> 546 54<306 330 330 356 256 368 256 481.5>
LayerCount: 2
Fore
SplineSet
600 356 m 2xd4
 600 330 l 2
 600 182 563 94 505 44 c 1
 576 48 l 1xd4
 621 48 l 1
 621 0 l 1
 374 0 l 1xd8
 374 29 l 1
 472 41 546 106 546 306 c 2
 546 368 l 2
 546 595 451 648 334 648 c 0
 217 648 122 595 122 368 c 2
 122 306 l 2xd4
 122 106 195 42 292 29 c 1
 292 0 l 1
 45 0 l 1
 45 48 l 1
 90 48 l 1xe4
 163 44 l 1
 105 94 68 182 68 330 c 2
 68 356 l 2
 68 631 187 696 334 696 c 0
 481 696 600 631 600 356 c 2xd4
EndSplineSet
Position2: "'cpsp' Capital Spacing lookup 0 subtable" dx=5 dy=0 dh=10 dv=0
EndChar

StartChar: mu
Encoding: 956 956 210
Width: 612
GlyphClass: 2
Flags: MW
HStem: -10 46<244.5 305.5 504.5 510> 491 20G<82 133 133 133 434 485 485 485>
VStem: 82 51<-161 1 138 189 189 511> 434 51<57 69 69 76 197 511>
LayerCount: 2
Fore
SplineSet
277 36 m 0
 367 36 434 105 434 197 c 2
 434 511 l 1
 485 511 l 1
 485 69 l 2
 485 45 497 36 512 36 c 0
 527 36 547 43 562 52 c 1
 562 9 l 1
 544 -3 522 -10 498 -10 c 0
 449 -10 434 36 434 76 c 1
 399 22 339 -10 272 -10 c 0
 217 -10 159 9 127 51 c 1
 127 51 133 22 133 1 c 2
 133 -161 l 1
 82 -161 l 1
 82 511 l 1
 133 511 l 1
 133 189 l 2
 133 87 189 36 277 36 c 0
EndSplineSet
EndChar

StartChar: pi
Encoding: 960 960 211
Width: 628
GlyphClass: 2
Flags: MW
HStem: 0 21G<80 129 80 80 425 473 425 425> 465 45<118.5 555 203 408 203 203 458 548 458 458>
VStem: 153 50<465 465> 408 50<137 145 145 465>
LayerCount: 2
Fore
SplineSet
458 465 m 1
 458 145 l 2
 458 61 464 26 473 0 c 1
 425 0 l 1
 416 15 408 55 408 137 c 2
 408 465 l 1
 203 465 l 1
 197 336 166 90 129 0 c 1
 80 0 l 1
 118 103 148 331 153 465 c 1
 84 465 53 460 31 452 c 1
 20 484 l 1
 45 499 85 510 160 510 c 2
 555 510 l 1
 548 465 l 1
 458 465 l 1
EndSplineSet
EndChar

StartChar: zero
Encoding: 48 48 212
Width: 615
Flags: MW
HStem: -10 48<244 340 244 355.5> 648 48<244 340>
VStem: 71 54<211 475 475 481> 459 54<205 211 211 475>
LayerCount: 2
Fore
SplineSet
513 475 m 2
 513 211 l 2
 513 77 419 -10 292 -10 c 0
 165 -10 71 77 71 211 c 2
 71 475 l 2
 71 609 165 696 292 696 c 0
 419 696 513 609 513 475 c 2
459 205 m 2
 459 481 l 2
 459 577 388 648 292 648 c 0
 196 648 125 577 125 481 c 2
 125 205 l 2
 125 109 196 38 292 38 c 0
 388 38 459 109 459 205 c 2
EndSplineSet
EndChar

StartChar: one
Encoding: 49 49 213
Width: 615
Flags: MW
HStem: 0 48<97 292 346 541 97 292> 619 34<97 292 97 97> 619 77<97 346>
VStem: 292 54<48 619 619 619>
LayerCount: 2
Fore
SplineSet
97 48 m 1xb0
 292 48 l 1
 292 619 l 1
 97 619 l 1xb0
 97 653 l 1xd0
 152 659 230 665 323 696 c 1
 346 696 l 1
 346 48 l 1
 541 48 l 1
 541 0 l 1
 97 0 l 1
 97 48 l 1xb0
EndSplineSet
Substitution2: "'sups' Superscript lookup 1 subtable" onesuperior
Substitution2: "'aalt' Access All Alternates lookup 0 subtable" onesuperior
EndChar

StartChar: two
Encoding: 50 50 214
Width: 615
Flags: MW
HStem: 0 48<129 524 129 524> 648 48<254 354>
VStem: 70 59<0 49.5 48 49.5 48 66.5> 78 54<472.5 526 472.5 539> 466 54<443.5 529>
LayerCount: 2
Fore
SplineSet
70 0 m 1xe8
 70 23 l 2xe8
 70 110 105 152 173 196 c 2
 375 327 l 2
 420 356 466 406 466 481 c 0
 466 577 406 648 302 648 c 0
 206 648 132 574 132 478 c 0
 132 467 132 462 133 454 c 1
 79 454 l 1
 78 464 78 466 78 472 c 0xd8
 78 606 175 696 302 696 c 0
 436 696 520 603 520 484 c 0
 520 378 461 320 400 281 c 2
 188 144 l 2
 126 104 129 51 129 48 c 2
 524 48 l 1
 524 0 l 1
 70 0 l 1xe8
EndSplineSet
Substitution2: "'sups' Superscript lookup 1 subtable" twosuperior
Substitution2: "'aalt' Access All Alternates lookup 0 subtable" twosuperior
EndChar

StartChar: three
Encoding: 51 51 215
Width: 615
Flags: MW
HStem: -10 46<235 337.5 235 349.5> 327 48<210 282 282 287 210 282> 648 48<241.5 331.5>
VStem: 58 53<182 199 135.5 199> 72 53<497 511 497 570> 449 54<467 558> 464 53<134.5 229 121.5 231>
LayerCount: 2
Fore
SplineSet
111 199 m 1xf2
 111 181 l 2
 111 90 183 36 287 36 c 0
 388 36 464 88 464 181 c 0xf2
 464 281 383 327 287 327 c 2
 210 327 l 1
 210 375 l 1
 282 375 l 2
 371 375 449 419 449 511 c 0
 449 605 376 648 287 648 c 0
 196 648 125 599 125 511 c 2
 125 497 l 1
 72 497 l 1
 72 511 l 2
 72 629 168 696 287 696 c 0
 406 696 503 631 503 511 c 0xec
 503 423 454 387 390 355 c 1
 390 351 l 1
 462 330 517 276 517 182 c 0
 517 61 412 -10 287 -10 c 0
 155 -10 58 65 58 182 c 2
 58 199 l 1
 111 199 l 1xf2
EndSplineSet
Substitution2: "'sups' Superscript lookup 1 subtable" threesuperior
Substitution2: "'aalt' Access All Alternates lookup 0 subtable" threesuperior
EndChar

StartChar: four
Encoding: 52 52 216
Width: 615
Flags: MW
HStem: 0 235<396 396 452 452> 187 48<107 396 50 50 452 534> 676 20G<286 342 342 342>
VStem: 396 56<0 187 0 187 235 492 492 492>
LayerCount: 2
Fore
SplineSet
396 235 m 1x70
 396 492 l 1
 406 512 424 550 433 573 c 1
 452 573 l 1
 452 235 l 1
 534 235 l 1
 534 187 l 1
 452 187 l 1x70
 452 0 l 1
 396 0 l 1xb0
 396 187 l 1
 50 187 l 1
 50 235 l 1
 90 284 226 532 286 696 c 1
 342 696 l 1
 285 521 167 301 107 235 c 1
 396 235 l 1x70
EndSplineSet
EndChar

StartChar: five
Encoding: 53 53 217
Width: 615
Flags: MW
HStem: -10 48<240.5 344 240.5 360> 392 49<272.5 338> 632 54<170 483 170 170>
VStem: 71 54<163.5 211 163.5 211> 459 54<167.5 265.5>
LayerCount: 2
Fore
SplineSet
71 211 m 1
 125 211 l 1
 125 116 189 38 292 38 c 0
 396 38 459 120 459 215 c 0
 459 316 384 392 292 392 c 0
 229 392 169 356 140 303 c 1
 92 310 l 1
 120 686 l 1
 483 686 l 1
 483 632 l 1
 170 632 l 1
 151 382 l 1
 193 421 246 441 299 441 c 0
 425 441 513 349 513 215 c 0
 513 93 428 -10 292 -10 c 0
 154 -10 71 89 71 211 c 1
EndSplineSet
EndChar

StartChar: six
Encoding: 54 54 218
Width: 615
Flags: MW
HStem: -10 48<252 348 252 363.5> 381 48<273 348> 648 48<248 344>
VStem: 79 54<211 214 341 475 475 481> 457 52<475 481 481 529> 467 54<205 214 214 262>
LayerCount: 2
Fore
SplineSet
133 481 m 2xf4
 133 341 l 1
 171 396 238 429 308 429 c 0
 428 429 521 338 521 211 c 0xf4
 521 77 427 -10 300 -10 c 0
 173 -10 79 77 79 211 c 2
 79 475 l 2
 79 609 169 696 296 696 c 0
 423 696 509 609 509 475 c 1
 457 475 l 1
 457 481 l 2xf8
 457 577 392 648 296 648 c 0
 200 648 133 577 133 481 c 2xf4
133 214 m 2
 133 205 l 2
 133 109 204 38 300 38 c 0
 396 38 467 109 467 205 c 2
 467 214 l 2
 467 310 396 381 300 381 c 0
 204 381 133 310 133 214 c 2
EndSplineSet
EndChar

StartChar: seven
Encoding: 55 55 219
Width: 615
Flags: MW
HStem: 0 21G<204 266 204 204> 632 54<73 462 73 544>
VStem: 204 60<36.5 131.5>
LayerCount: 2
Fore
SplineSet
544 686 m 1
 544 656 l 1
 423 521 264 282 264 46 c 0
 264 27 264 26 266 0 c 1
 204 0 l 1
 204 263 346 491 462 632 c 1
 73 632 l 1
 73 686 l 1
 544 686 l 1
EndSplineSet
EndChar

StartChar: eight
Encoding: 56 56 220
Width: 615
Flags: MW
HStem: -10 48<235 354 235 370> 328 48<252.5 335.5 252.5 349.5> 648 48<248 340>
VStem: 67 54<139 227 139 229> 90 54<468.5 555 468.5 569.5> 445 55<468.5 556> 469 54<138.5 227.5>
LayerCount: 2
Fore
SplineSet
400 356 m 1xf2
 400 352 l 1
 473 323 523 278 523 183 c 0
 523 67 445 -10 295 -10 c 0
 160 -10 67 56 67 183 c 0xf2
 67 275 117 328 189 352 c 1
 189 356 l 1
 131 385 90 425 90 512 c 0
 90 627 172 696 295 696 c 0
 418 696 500 627 500 512 c 0xec
 500 425 458 385 400 356 c 1xf2
144 512 m 0xec
 144 425 211 376 294 376 c 0
 377 376 445 423 445 512 c 0
 445 600 386 648 294 648 c 0
 202 648 144 598 144 512 c 0xec
469 183 m 0xf2
 469 272 404 328 295 328 c 0
 186 328 121 271 121 183 c 0
 121 95 175 38 295 38 c 0
 413 38 469 94 469 183 c 0xf2
EndSplineSet
EndChar

StartChar: nine
Encoding: 57 57 221
Width: 615
Flags: MW
HStem: -10 48<238 334 238 349.5> 257 48<236 311> 648 48<236 332>
VStem: 63 54<424 472 472 481 424 542> 71 52<157 205 205 211> 451 54<205 211 211 346 346 346 472 475>
LayerCount: 2
Fore
SplineSet
451 205 m 2xf4
 451 346 l 1
 413 291 346 257 276 257 c 0
 156 257 63 348 63 475 c 0xf4
 63 609 157 696 284 696 c 0
 411 696 505 609 505 475 c 2
 505 211 l 2
 505 77 413 -10 286 -10 c 0
 159 -10 71 77 71 211 c 1
 123 211 l 1
 123 205 l 2xec
 123 109 190 38 286 38 c 0
 382 38 451 109 451 205 c 2xf4
451 472 m 2
 451 481 l 2
 451 577 380 648 284 648 c 0
 188 648 117 577 117 481 c 2
 117 472 l 2
 117 376 188 305 284 305 c 0
 380 305 451 376 451 472 c 2
EndSplineSet
EndChar

StartChar: fraction
Encoding: 8260 8260 222
Width: 476
Flags: MW
HStem: 0 21G<2 2 2 49> 666 20G<422 466 466 466>
VStem: 2 464
LayerCount: 2
Fore
SplineSet
2 0 m 1
 422 686 l 1
 466 686 l 1
 49 0 l 1
 2 0 l 1
EndSplineSet
EndChar

StartChar: onehalf
Encoding: 189 189 223
Width: 726
Flags: MW
HStem: 0 38<485 693 485 693> 311 38<33 135 177 254 33 135> 345 38<544.5 595> 634 29<33 135 33 33> 634 52<33 177>
VStem: 135 42<349 634 634 634> 439 46<0 43 38 41.5> 443 41<258.5 285 258.5 295> 650 41<244 287>
LayerCount: 2
Fore
SplineSet
33 349 m 1xcd80
 135 349 l 1
 135 634 l 1
 33 634 l 1xce80
 33 663 l 1xd580
 75 665 102 669 155 686 c 1
 177 686 l 1
 177 349 l 1
 254 349 l 1
 254 311 l 1
 33 311 l 1
 33 349 l 1xcd80
124 0 m 1
 544 686 l 1
 588 686 l 1
 171 0 l 1
 124 0 l 1
439 0 m 1
 439 19 l 2
 439 64 462 91 498 115 c 2xce80
 605 186 l 2
 627 201 650 225 650 263 c 0
 650 311 621 345 569 345 c 0
 520 345 484 309 484 261 c 0
 484 256 484 249 485 242 c 1
 444 242 l 1
 443 247 443 255 443 257 c 0
 443 333 499 383 569 383 c 0xad80
 645 383 691 331 691 265 c 0
 691 206 657 173 624 151 c 2
 512 76 l 2
 491 62 485 48 485 38 c 1
 693 38 l 1
 693 0 l 1
 439 0 l 1
EndSplineSet
Ligature2: "'frac' Diagonal Fractions lookup 2 subtable" one slash two
EndChar

StartChar: onequarter
Encoding: 188 188 224
Width: 702
Flags: MW
HStem: 0 135<476 608 476 649> 98 37<476 608 476 608 649 692> 311 38<36 138 180 257 36 138> 634 29<36 138 36 36> 634 52<36 180>
VStem: 138 42<349 634 634 634> 608 41<0 98 0 98 135 265 265 265>
LayerCount: 2
Fore
SplineSet
36 349 m 1x6e
 138 349 l 1
 138 634 l 1
 36 634 l 1xae
 36 663 l 1x76
 78 665 105 669 158 686 c 1
 180 686 l 1
 180 349 l 1
 257 349 l 1
 257 311 l 1
 36 311 l 1
 36 349 l 1x6e
127 0 m 1
 547 686 l 1
 591 686 l 1
 174 0 l 1
 127 0 l 1
608 135 m 1x6e
 608 265 l 1
 615 279 623 295 629 311 c 1
 649 311 l 1
 649 135 l 1
 692 135 l 1
 692 98 l 1
 649 98 l 1x6e
 649 0 l 1
 608 0 l 1xae
 608 98 l 1
 427 98 l 1
 427 132 l 1
 448 157 520 287 552 375 c 1
 595 375 l 1
 566 290 510 181 476 135 c 1
 608 135 l 1x6e
EndSplineSet
Ligature2: "'frac' Diagonal Fractions lookup 2 subtable" one slash four
EndChar

StartChar: threequarters
Encoding: 190 190 225
Width: 698
Flags: MW
HStem: 0 135<496 628 496 669> 98 37<496 628 496 628 669 712> 304 36<133 184.5 133 193.5> 484 37<112 156 156 159 112 156> 655 37<136 181> 666 20G<567 611 611 611>
VStem: 31 40<412 427 389 427> 39 40<574 587 574 620.5> 239 41<564.5 610> 247 40<388 435.5 378 436> 628 41<0 98 0 98 135 265 265 265>
LayerCount: 2
Fore
SplineSet
71 427 m 1x7a60
 71 411 l 2
 71 367 107 340 159 340 c 0
 210 340 247 365 247 411 c 0
 247 461 207 484 159 484 c 2xb660
 112 484 l 1
 112 521 l 1
 156 521 l 2
 201 521 239 542 239 587 c 0
 239 633 203 655 159 655 c 0
 113 655 79 630 79 587 c 2
 79 574 l 1
 39 574 l 1
 39 587 l 2
 39 654 92 692 159 692 c 0
 225 692 280 656 280 587 c 0x79a0
 280 541 259 523 228 505 c 1
 262 490 287 459 287 412 c 0
 287 344 228 304 159 304 c 0
 85 304 31 346 31 412 c 2
 31 427 l 1
 71 427 l 1x7a60
147 0 m 1
 567 686 l 1
 611 686 l 1
 194 0 l 1
 147 0 l 1
628 135 m 1x7a60
 628 265 l 1
 635 279 643 295 649 311 c 1
 669 311 l 1
 669 135 l 1
 712 135 l 1
 712 98 l 1
 669 98 l 1x7a60
 669 0 l 1
 628 0 l 1xba60
 628 98 l 1
 447 98 l 1
 447 132 l 1
 468 157 540 287 572 375 c 1
 615 375 l 1
 586 290 530 181 496 135 c 1
 628 135 l 1x7a60
EndSplineSet
Ligature2: "'frac' Diagonal Fractions lookup 2 subtable" three slash four
EndChar

StartChar: onesuperior
Encoding: 185 185 226
Width: 334
Flags: MW
HStem: 422 38<50 152 194 271 50 152> 745 29<50 152 50 50>
VStem: 152 42<460 745 745 745>
LayerCount: 2
Fore
SplineSet
50 460 m 1
 152 460 l 1
 152 745 l 1
 50 745 l 1
 50 774 l 1
 92 776 119 780 172 797 c 1
 194 797 l 1
 194 460 l 1
 271 460 l 1
 271 422 l 1
 50 422 l 1
 50 460 l 1
EndSplineSet
EndChar

StartChar: twosuperior
Encoding: 178 178 227
Width: 384
Flags: MW
HStem: 422 38<107 315 107 315> 767 38<166.5 217>
VStem: 61 46<422 465 460 463.5> 65 41<680.5 707 680.5 717> 272 41<666 709>
LayerCount: 2
Fore
SplineSet
61 422 m 1xe8
 61 441 l 2
 61 486 84 513 120 537 c 2xe8
 227 608 l 2
 249 623 272 647 272 685 c 0
 272 733 243 767 191 767 c 0
 142 767 106 731 106 683 c 0
 106 678 106 671 107 664 c 1
 66 664 l 1
 65 669 65 677 65 679 c 0xd8
 65 755 121 805 191 805 c 0
 267 805 313 753 313 687 c 0
 313 628 279 595 246 573 c 2
 134 498 l 2
 113 484 107 470 107 460 c 1
 315 460 l 1
 315 422 l 1
 61 422 l 1xe8
EndSplineSet
EndChar

StartChar: threesuperior
Encoding: 179 179 228
Width: 363
Flags: MW
HStem: 413 36<144 195.5 144 204.5> 593 37<123 167 167 170 123 167> 764 37<147 192>
VStem: 42 40<521 536 498 536> 50 40<683 696 683 729.5> 250 41<673.5 719> 258 40<497 544.5 487 545>
LayerCount: 2
Fore
SplineSet
82 536 m 1xf2
 82 520 l 2
 82 476 118 449 170 449 c 0
 221 449 258 474 258 520 c 0
 258 570 218 593 170 593 c 2xf2
 123 593 l 1
 123 630 l 1
 167 630 l 2
 212 630 250 651 250 696 c 0
 250 742 214 764 170 764 c 0
 124 764 90 739 90 696 c 2
 90 683 l 1
 50 683 l 1
 50 696 l 2
 50 763 103 801 170 801 c 0
 236 801 291 765 291 696 c 0xec
 291 650 270 632 239 614 c 1
 273 599 298 568 298 521 c 0
 298 453 239 413 170 413 c 0
 96 413 42 455 42 521 c 2
 42 536 l 1
 82 536 l 1xf2
EndSplineSet
EndChar

StartChar: asterisk
Encoding: 42 42 229
Width: 468
Flags: MW
HStem: 490 20G<242 242> 492 20G<210 210> 666 20G<197 259 259 259>
VStem: 29 394<519 524>
LayerCount: 2
Fore
SplineSet
364 347 m 1x70
 315 311 l 1
 223 462 l 1
 133 315 l 1
 83 350 l 1
 199 482 l 1
 29 524 l 1
 49 582 l 1
 210 512 l 1x70
 197 686 l 1
 259 686 l 1
 242 510 l 1
 405 578 l 1
 423 519 l 1
 251 480 l 1xb0
 364 347 l 1x70
EndSplineSet
EndChar

StartChar: backslash
Encoding: 92 92 230
Width: 600
Flags: MW
HStem: 0 21G<407 467 407 407> 666 20G<15 75 75 75>
VStem: 15 452
LayerCount: 2
Fore
SplineSet
15 686 m 1
 75 686 l 1
 467 0 l 1
 407 0 l 1
 15 686 l 1
EndSplineSet
EndChar

StartChar: periodcentered
Encoding: 183 183 231
Width: 235
Flags: MW
HStem: 254 69<85 150 85 150>
VStem: 85 65<254 323 254 323>
LayerCount: 2
Fore
SplineSet
150 323 m 1
 150 254 l 1
 85 254 l 1
 85 323 l 1
 150 323 l 1
EndSplineSet
EndChar

StartChar: bullet
Encoding: 8226 8226 232
Width: 600
Flags: MW
HStem: 203 282<251.5 329>
VStem: 150 282<305.5 383>
LayerCount: 2
Fore
SplineSet
432 344 m 0
 432 267 368 203 290 203 c 0
 213 203 150 267 150 344 c 0
 150 422 213 485 290 485 c 0
 368 485 432 422 432 344 c 0
EndSplineSet
EndChar

StartChar: colon
Encoding: 58 58 233
Width: 239
Flags: MW
HStem: 0 69<69 134 69 134> 442 69<69 134 69 134>
VStem: 69 65<0 69 0 69 442 511>
LayerCount: 2
Fore
SplineSet
134 511 m 1
 134 442 l 1
 69 442 l 1
 69 511 l 1
 134 511 l 1
134 69 m 1
 134 0 l 1
 69 0 l 1
 69 69 l 1
 134 69 l 1
EndSplineSet
EndChar

StartChar: comma
Encoding: 44 44 234
Width: 238
Flags: MW
HStem: -101 170<70 104 70 70.5> 0 69<69 93 69 134>
VStem: 69 65<11 69 11 69 11 69>
LayerCount: 2
Fore
SplineSet
104 -101 m 1xa0
 70 -101 l 2xa0
 71 -101 93 0 93 0 c 1
 69 0 l 1
 69 69 l 1
 134 69 l 1
 134 11 l 1x60
 104 -101 l 1xa0
EndSplineSet
EndChar

StartChar: ellipsis
Encoding: 8230 8230 235
Width: 735
Flags: MW
HStem: 0 69<69 134 69 134 282 347 494 559>
VStem: 69 65<0 69 0 69> 282 65<0 69 0 69> 494 65<0 69 0 69>
LayerCount: 2
Fore
SplineSet
134 69 m 1
 134 0 l 1
 69 0 l 1
 69 69 l 1
 134 69 l 1
347 69 m 1
 347 0 l 1
 282 0 l 1
 282 69 l 1
 347 69 l 1
559 69 m 1
 559 0 l 1
 494 0 l 1
 494 69 l 1
 559 69 l 1
EndSplineSet
EndChar

StartChar: exclam
Encoding: 33 33 236
Width: 269
Flags: MW
HStem: 0 69<78 143 78 143> 666 20G<79 143 143 143>
VStem: 78 65<0 69 0 69> 84.5 58.5
LayerCount: 2
Fore
SplineSet
79 686 m 1xd0
 143 686 l 1
 143 686 135 339 131 141 c 1
 90 141 l 1
 79 686 l 1xd0
143 69 m 1xe0
 143 0 l 1
 78 0 l 1
 78 69 l 1
 143 69 l 1xe0
EndSplineSet
EndChar

StartChar: exclamdown
Encoding: 161 161 237
Width: 254
Flags: MW
HStem: 441 69<70 135 70 135>
VStem: 70 65<441 510> 75.5 54
LayerCount: 2
Fore
SplineSet
135 510 m 1xc0
 135 441 l 1
 70 441 l 1
 70 510 l 1
 135 510 l 1xc0
124 369 m 1xa0
 135 -176 l 1
 69 -176 l 1
 82 369 l 1
 124 369 l 1xa0
EndSplineSet
EndChar

StartChar: numbersign
Encoding: 35 35 238
Width: 643
Flags: MW
HStem: 0 246<103 158 28 161 103 103 327 382 28 385 327 327> 188 58<28 145 28 158 216 369 28 203 440 566> 420 58<67 197 67 210 67 255 268 421 492 605> 676 20G<259 318 318 318 483 542 542 542>
VStem: 28 577<188 478 246 478>
LayerCount: 2
Fore
SplineSet
440 246 m 1x78
 566 246 l 1
 566 188 l 1
 427 188 l 1x78
 385 0 l 1
 327 0 l 1xb8
 369 188 l 1
 203 188 l 1x78
 161 0 l 1
 103 0 l 1xb8
 145 188 l 1
 28 188 l 1
 28 246 l 1
 158 246 l 1
 197 420 l 1
 67 420 l 1
 67 478 l 1
 210 478 l 1
 259 696 l 1
 318 696 l 1
 268 478 l 1
 434 478 l 1
 483 696 l 1
 542 696 l 1
 492 478 l 1
 605 478 l 1
 605 420 l 1
 479 420 l 1
 440 246 l 1x78
382 246 m 1
 421 420 l 1
 255 420 l 1
 216 246 l 1
 382 246 l 1
EndSplineSet
EndChar

StartChar: period
Encoding: 46 46 239
Width: 239
Flags: MW
HStem: 0 69<69 134 69 134>
VStem: 69 65<0 69 0 69>
LayerCount: 2
Fore
SplineSet
134 69 m 1
 134 0 l 1
 69 0 l 1
 69 69 l 1
 134 69 l 1
EndSplineSet
EndChar

StartChar: question
Encoding: 63 63 240
Width: 502
Flags: MW
HStem: 0 69<206 271 206 271> 648 49<162.5 292>
VStem: 26 54<489 511.5 489 513.5> 206 65<0 69 0 69> 212 54<166 231 166 244 166 305> 370 54<439.5 523 426 533.5>
LayerCount: 2
Fore
SplineSet
212 166 m 1xec
 212 244 l 2
 212 366 370 366 370 513 c 0
 370 554 352 648 232 648 c 0
 93 648 80 529 80 494 c 0
 80 484 83 465 83 465 c 1
 29 465 l 1
 29 465 26 474 26 498 c 0
 26 529 42 697 231 697 c 0
 420 697 424 531 424 515 c 0
 424 337 266 347 266 231 c 2
 266 166 l 1
 212 166 l 1xec
271 69 m 1xf4
 271 0 l 1
 206 0 l 1
 206 69 l 1
 271 69 l 1xf4
EndSplineSet
EndChar

StartChar: questiondown
Encoding: 191 191 241
Width: 495
Flags: MW
HStem: -186 49<167 296.5 167 322.5> 442 69<188 253 188 253>
VStem: 35 54<-12 71.5 -22.5 85> 188 65<442 511 442 511> 193 54<280 345> 379 54<-0.5 22>
LayerCount: 2
Fore
SplineSet
188 442 m 1xf4
 188 511 l 1
 253 511 l 1
 253 442 l 1
 188 442 l 1xf4
247 345 m 1xec
 247 267 l 2
 247 145 89 145 89 -2 c 0
 89 -43 107 -137 227 -137 c 0
 366 -137 379 -18 379 17 c 0
 379 27 376 46 376 46 c 1
 430 46 l 1
 430 46 433 37 433 13 c 0
 433 -18 417 -186 228 -186 c 0
 39 -186 35 -20 35 -4 c 0
 35 174 193 164 193 280 c 2
 193 345 l 1
 247 345 l 1xec
EndSplineSet
EndChar

StartChar: quotedbl
Encoding: 34 34 242
Width: 364
Flags: MW
HStem: 414 272<75 105 75 75 208 208 208 238> 666 20G<64 116 116 116 197 249 249 249>
VStem: 64 52<539 686 539 686> 197 52<539 686 539 686>
LayerCount: 2
Fore
SplineSet
64 686 m 1x70
 116 686 l 1
 116 539 l 1
 105 414 l 1
 75 414 l 1xb0
 64 539 l 1
 64 686 l 1x70
197 686 m 1
 249 686 l 1
 249 539 l 1
 238 414 l 1
 208 414 l 1
 197 539 l 1
 197 686 l 1
EndSplineSet
EndChar

StartChar: quotesingle
Encoding: 39 39 243
Width: 210
Flags: MW
HStem: 666 20G<64 116 116 116>
VStem: 64 52<539 686 539 686>
LayerCount: 2
Fore
SplineSet
64 686 m 1
 116 686 l 1
 116 539 l 1
 105 414 l 1
 75 414 l 1
 64 539 l 1
 64 686 l 1
EndSplineSet
EndChar

StartChar: semicolon
Encoding: 59 59 244
Width: 239
Flags: MW
HStem: -101 170<70 104 70 70.5> 0 69<69 93 69 134> 442 69<69 134 69 134>
VStem: 69 65<11 69 11 69 11 69 442 511>
LayerCount: 2
Fore
SplineSet
134 511 m 1x70
 134 442 l 1
 69 442 l 1
 69 511 l 1
 134 511 l 1x70
104 -101 m 1xb0
 70 -101 l 2xb0
 71 -101 93 0 93 0 c 1
 69 0 l 1
 69 69 l 1
 134 69 l 1
 134 11 l 1x70
 104 -101 l 1xb0
EndSplineSet
EndChar

StartChar: slash
Encoding: 47 47 245
Width: 600
Flags: MW
HStem: 666 20G<505 564 564 564>
VStem: 15 549
LayerCount: 2
Fore
SplineSet
15 -171 m 1
 505 686 l 1
 564 686 l 1
 75 -171 l 1
 15 -171 l 1
EndSplineSet
EndChar

StartChar: underscore
Encoding: 95 95 246
Width: 694
Flags: MW
HStem: -122 58<97 597 97 597>
VStem: 97 500<-122 -64 -122 -64>
LayerCount: 2
Fore
SplineSet
97 -64 m 1
 597 -64 l 1
 597 -122 l 1
 97 -122 l 1
 97 -64 l 1
EndSplineSet
EndChar

StartChar: braceleft
Encoding: 123 123 247
Width: 315
Flags: MW
HStem: -159 38<235 249 235 249> 224 35 268 35 648 38<235 249>
VStem: 40 40<259 268 259 303 259 303> 117 49.5
LayerCount: 2
Fore
SplineSet
80 268 m 1
 80 259 l 1
 147 259 161 221 163 156 c 2
 170 -62 l 2
 171 -108 221 -121 249 -121 c 1
 249 -159 l 1
 191 -159 117 -132 117 -47 c 2
 117 167 l 2
 117 208 76 225 40 224 c 1xfc
 40 303 l 1
 76 302 117 319 117 360 c 2
 117 574 l 2
 117 659 191 686 249 686 c 1
 249 648 l 1
 221 648 171 635 170 589 c 2
 163 371 l 2
 161 306 147 268 80 268 c 1
EndSplineSet
EndChar

StartChar: braceright
Encoding: 125 125 248
Width: 315
Flags: MW
HStem: -159 38<40 54 40 69> 224 35 268 35 648 38<40 54>
VStem: 122.5 49.5 209 40<259 268 268 268>
LayerCount: 2
Fore
SplineSet
209 259 m 1
 209 268 l 1
 142 268 128 306 126 371 c 2
 119 589 l 2
 118 635 68 648 40 648 c 1
 40 686 l 1
 98 686 172 659 172 574 c 2
 172 360 l 2
 172 319 213 302 249 303 c 1xbc
 249 224 l 1
 213 225 172 208 172 167 c 2
 172 -47 l 2
 172 -132 98 -159 40 -159 c 1
 40 -121 l 1
 68 -121 118 -108 119 -62 c 2
 126 156 l 2
 128 221 142 259 209 259 c 1
EndSplineSet
EndChar

StartChar: bracketleft
Encoding: 91 91 249
Width: 293
Flags: MW
HStem: -161 38<138 226 138 226> 648 38<138 226 138 138>
VStem: 85 53<-123 648 -123 686 -123 686>
LayerCount: 2
Fore
SplineSet
85 686 m 1
 226 686 l 1
 226 648 l 1
 138 648 l 1
 138 -123 l 1
 226 -123 l 1
 226 -161 l 1
 85 -161 l 1
 85 686 l 1
EndSplineSet
EndChar

StartChar: bracketright
Encoding: 93 93 250
Width: 293
Flags: MW
HStem: -161 38<39 127 39 180 39 127> 648 38<39 127 39 180>
VStem: 127 53<-123 648 648 648>
LayerCount: 2
Fore
SplineSet
39 -123 m 1
 127 -123 l 1
 127 648 l 1
 39 648 l 1
 39 686 l 1
 180 686 l 1
 180 -161 l 1
 39 -161 l 1
 39 -123 l 1
EndSplineSet
EndChar

StartChar: parenleft
Encoding: 40 40 251
Width: 289
Flags: MW
HStem: 666 20G<208 237 237 237>
VStem: 49 52<187.5 342>
LayerCount: 2
Fore
SplineSet
49 265 m 0
 49 419 106 570 208 686 c 1
 237 686 l 1
 162 572 101 422 101 265 c 0
 101 107 162 -43 237 -157 c 1
 208 -157 l 1
 106 -41 49 110 49 265 c 0
EndSplineSet
EndChar

StartChar: parenright
Encoding: 41 41 252
Width: 288
Flags: MW
HStem: 666 20G<29 58 58 58>
VStem: 165 52<187.5 342 187.5 343.5>
LayerCount: 2
Fore
SplineSet
217 265 m 0
 217 110 160 -41 58 -157 c 1
 29 -157 l 1
 104 -43 165 107 165 265 c 0
 165 422 104 572 29 686 c 1
 58 686 l 1
 160 570 217 419 217 265 c 0
EndSplineSet
EndChar

StartChar: emdash
Encoding: 8212 8212 253
Width: 1058
Flags: MW
HStem: 239 57<72 982 72 982>
VStem: 72 910<239 296 239 296>
LayerCount: 2
Fore
SplineSet
72 296 m 1
 982 296 l 1
 982 239 l 1
 72 239 l 1
 72 296 l 1
EndSplineSet
EndChar

StartChar: endash
Encoding: 8211 8211 254
Width: 638
Flags: MW
HStem: 239 58<69 569 69 569>
VStem: 69 500<239 297 239 297>
LayerCount: 2
Fore
SplineSet
69 297 m 1
 569 297 l 1
 569 239 l 1
 69 239 l 1
 69 297 l 1
EndSplineSet
EndChar

StartChar: hyphen
Encoding: 45 45 255
Width: 391
Flags: MW
HStem: 237 62<69 322 69 322>
VStem: 69 253<237 299 237 299>
LayerCount: 2
Fore
SplineSet
322 299 m 1
 322 237 l 1
 69 237 l 1
 69 299 l 1
 322 299 l 1
EndSplineSet
EndChar

StartChar: softhyphen
Encoding: 173 173 256
Width: 391
Flags: MW
HStem: 237 62<69 322 69 322>
VStem: 69 253<237 299 237 299>
LayerCount: 2
Fore
SplineSet
322 299 m 1
 322 237 l 1
 69 237 l 1
 69 299 l 1
 322 299 l 1
EndSplineSet
EndChar

StartChar: guillemetleft
Encoding: 171 171 257
Width: 460
Flags: MW
HStem: 491 20G<172 213 213 213 355 396 396 396>
VStem: 49 347<163 337>
LayerCount: 2
Fore
SplineSet
49 337 m 1
 172 511 l 1
 213 511 l 1
 116 337 l 1
 213 163 l 1
 172 163 l 1
 49 337 l 1
231 337 m 1
 355 511 l 1
 396 511 l 1
 299 337 l 1
 396 163 l 1
 355 163 l 1
 231 337 l 1
EndSplineSet
EndChar

StartChar: guillemetright
Encoding: 187 187 258
Width: 460
Flags: MW
HStem: 491 20G<56 97 97 97 239 280 280 280>
VStem: 56 347<163 337 337 511>
LayerCount: 2
Fore
SplineSet
153 337 m 1
 56 511 l 1
 97 511 l 1
 221 337 l 1
 97 163 l 1
 56 163 l 1
 153 337 l 1
336 337 m 1
 239 511 l 1
 280 511 l 1
 403 337 l 1
 280 163 l 1
 239 163 l 1
 336 337 l 1
EndSplineSet
EndChar

StartChar: guilsinglleft
Encoding: 8249 8249 259
Width: 278
Flags: MW
HStem: 491 20G<172 213 213 213>
VStem: 49 164
LayerCount: 2
Fore
SplineSet
49 337 m 1
 172 511 l 1
 213 511 l 1
 116 337 l 1
 213 163 l 1
 172 163 l 1
 49 337 l 1
EndSplineSet
EndChar

StartChar: guilsinglright
Encoding: 8250 8250 260
Width: 278
Flags: MW
HStem: 491 20G<56 97 97 97>
VStem: 56 164
LayerCount: 2
Fore
SplineSet
153 337 m 1
 56 511 l 1
 97 511 l 1
 220 337 l 1
 97 163 l 1
 56 163 l 1
 153 337 l 1
EndSplineSet
EndChar

StartChar: quotedblbase
Encoding: 8222 8222 261
Width: 380
Flags: MW
HStem: -101 170<70 104 70 70.5 169 169.5 169 203> 0 69<69 93 69 134 69 168 168 192>
VStem: 69 65<11 69 11 69 11 69> 168 65<11 69 11 69 11 69>
LayerCount: 2
Fore
SplineSet
104 -101 m 1xb0
 70 -101 l 2xb0
 71 -101 93 0 93 0 c 1
 69 0 l 1
 69 69 l 1
 134 69 l 1
 134 11 l 1x70
 104 -101 l 1xb0
203 -101 m 1
 169 -101 l 2xb0
 170 -101 192 0 192 0 c 1
 168 0 l 1
 168 69 l 1
 233 69 l 1
 233 11 l 1x70
 203 -101 l 1
EndSplineSet
EndChar

StartChar: quotedblleft
Encoding: 8220 8220 262
Width: 366
Flags: MW
HStem: 516 69<102 126 102 126 61 126 102 160 201 225> 516 170<91 125 91 126 61 125 91 160 190 224 91 225>
VStem: 61 65<516 574 574 574> 160 65<516 574 574 574>
LayerCount: 2
Fore
SplineSet
91 686 m 1x70
 125 686 l 2x70
 124 686 102 585 102 585 c 1
 126 585 l 1xb0
 126 516 l 1
 61 516 l 1
 61 574 l 1
 91 686 l 1x70
190 686 m 1
 224 686 l 2x70
 223 686 201 585 201 585 c 1
 225 585 l 1xb0
 225 516 l 1
 160 516 l 1
 160 574 l 1
 190 686 l 1
EndSplineSet
EndChar

StartChar: quotedblright
Encoding: 8221 8221 263
Width: 361
Flags: MW
HStem: 496 20G<62 96 62 62.5 161 161.5 161 195> 516 170<62 96 62 62.5 161 161.5 161 195> 617 69<61 85 61 126 61 160 160 184>
VStem: 61 65<628 686 628 686 628 686> 160 65<628 686 628 686 628 686>
LayerCount: 2
Fore
SplineSet
96 516 m 1x58
 62 516 l 2
 63 516 85 617 85 617 c 1
 61 617 l 1
 61 686 l 1
 126 686 l 1
 126 628 l 1xb8
 96 516 l 1x58
195 516 m 1x58
 161 516 l 2
 162 516 184 617 184 617 c 1
 160 617 l 1
 160 686 l 1
 225 686 l 1
 225 628 l 1xb8
 195 516 l 1x58
EndSplineSet
EndChar

StartChar: quoteleft
Encoding: 8216 8216 264
Width: 224
Flags: MW
HStem: 516 69<102 126 102 126 61 126> 516 170<91 125 91 126 61 125>
VStem: 61 65<516 574 574 574>
LayerCount: 2
Fore
SplineSet
91 686 m 1x60
 125 686 l 2x60
 124 686 102 585 102 585 c 1
 126 585 l 1xa0
 126 516 l 1
 61 516 l 1
 61 574 l 1
 91 686 l 1x60
EndSplineSet
EndChar

StartChar: quoteright
Encoding: 8217 8217 265
Width: 219
Flags: MW
HStem: 496 20G<62 96 62 62.5> 516 170<62 96 62 62.5> 617 69<61 85 61 126>
VStem: 61 65<628 686 628 686 628 686>
LayerCount: 2
Fore
SplineSet
96 516 m 1x50
 62 516 l 2
 63 516 85 617 85 617 c 1
 61 617 l 1
 61 686 l 1
 126 686 l 1
 126 628 l 1xb0
 96 516 l 1x50
EndSplineSet
EndChar

StartChar: quotesinglbase
Encoding: 8218 8218 266
Width: 238
Flags: MW
HStem: -101 170<70 104 70 70.5> 0 69<69 93 69 134>
VStem: 69 65<11 69 11 69 11 69>
LayerCount: 2
Fore
SplineSet
104 -101 m 1xa0
 70 -101 l 2xa0
 71 -101 93 0 93 0 c 1
 69 0 l 1
 69 69 l 1
 134 69 l 1
 134 11 l 1x60
 104 -101 l 1xa0
EndSplineSet
EndChar

StartChar: cent
Encoding: 162 162 269
Width: 527
Flags: MW
HStem: -6 130<238 288 238 238> 79 45<247 247 278 278> 563 46<247 247 247 302> 563 130<238 288 238 302>
VStem: 48 51<336 351 351 357 260.5 430.5> 242.5 40.5 411 50<229.5 285 402 456.5>
LayerCount: 2
Fore
SplineSet
288 693 m 1x9e
 278 608 l 1
 382 601 461 528 461 402 c 1
 411 402 l 1
 411 511 343 563 261 563 c 0
 169 563 99 496 99 357 c 2
 99 330 l 2
 99 191 170 124 262 124 c 0xae
 343 124 411 174 411 285 c 1
 461 285 l 1
 461 158 382 85 278 79 c 1x6e
 288 -6 l 1
 238 -6 l 1xae
 247 79 l 1
 129 86 48 177 48 336 c 2
 48 351 l 2
 48 510 128 602 247 609 c 1x6e
 238 693 l 1
 288 693 l 1x9e
EndSplineSet
EndChar

StartChar: currency
Encoding: 164 164 270
Width: 624
Flags: MW
HStem: 88 48<284 340> 535 49<284 340 284 366>
VStem: 64 48<308 364> 511 49<308 364 308 391>
LayerCount: 2
Fore
SplineSet
562 544 m 1
 507 490 l 1
 544 448 560 392 560 336 c 0
 560 280 544 224 507 182 c 1
 562 128 l 1
 520 86 l 1
 464 142 l 1
 422 106 368 88 312 88 c 0
 256 88 202 106 160 142 c 1
 104 86 l 1
 62 128 l 1
 117 182 l 1
 80 224 64 280 64 336 c 0
 64 392 80 448 117 490 c 1
 62 544 l 1
 104 586 l 1
 160 530 l 1
 202 566 256 584 312 584 c 0
 368 584 422 566 464 530 c 1
 520 586 l 1
 562 544 l 1
312 535 m 0
 204 535 112 446 112 336 c 0
 112 226 204 136 312 136 c 0
 420 136 511 226 511 336 c 0
 511 446 420 535 312 535 c 0
EndSplineSet
EndChar

StartChar: dollar
Encoding: 36 36 271
Width: 546
Flags: MW
HStem: 19 50<257 257 288 288> 336.72 56.59 625 47<258 258 258 288 258 323.5>
VStem: 31 51<145 197 145 204.5> 48 53<425.5 556.5 425.5 569.5> 253 40 450 50<494 506 494 515 494 553.5> 467 53<147.5 297.5>
LayerCount: 2
Fore
SplineSet
248 -66 m 1xf5
 257 19 l 1
 132 24 31 71 31 202 c 0
 31 207 32 218 32 218 c 1
 83 218 l 1
 83 218 82 201 82 193 c 0xf5
 82 97 167 69 274 69 c 0
 381 69 467 95 467 200 c 0xed
 467 395 48 276 48 517 c 0
 48 622 144 668 258 672 c 1
 248 762 l 1
 298 762 l 1
 288 672 l 1
 406 669 500 622 500 506 c 2
 500 494 l 1
 450 494 l 1
 450 515 l 2xee
 450 592 372 625 275 625 c 0
 178 625 101 598 101 515 c 0xed
 101 336 520 449 520 203 c 0
 520 70 415 21 288 19 c 1
 298 -66 l 1
 248 -66 l 1xf5
EndSplineSet
EndChar

StartChar: euro
Encoding: 8364 8364 272
Width: 562
Flags: MW
HStem: -10 46<384.5 465 384.5 465> 247 48<30 125 30 134 30 125 188 411 188 188> 385 48<30 125 30 132 187 411 30 179> 648 48<383 465> 672 20G<512 512>
VStem: 125 54<295 295>
LayerCount: 2
Fore
SplineSet
30 433 m 1xf4
 132 433 l 1
 165 584 283 696 455 696 c 0xf4
 475 696 494 695 512 692 c 1xec
 512 642 l 1
 494 646 475 648 455 648 c 0
 311 648 217 557 187 433 c 1
 411 433 l 1
 411 385 l 1
 179 385 l 1
 177 371 177 356 177 342 c 0
 177 326 177 310 179 295 c 1
 411 295 l 1
 411 247 l 1
 188 247 l 1
 220 124 314 36 455 36 c 0
 475 36 494 38 512 41 c 1
 512 -5 l 1
 493 -8 475 -10 455 -10 c 0
 284 -10 168 98 134 247 c 1
 30 247 l 1
 30 295 l 1
 125 295 l 1
 124 310 123 326 123 343 c 0
 123 357 123 371 125 385 c 1
 30 385 l 1
 30 433 l 1xf4
EndSplineSet
EndChar

StartChar: florin
Encoding: 402 402 273
Width: 360
Flags: MW
HStem: -184 46<-21.5 0.5 -21.5 14.5> 465 46<78 128 72 134 185 298 78 179> 682 46<251.5 273.5>
VStem: -80 412
LayerCount: 2
Fore
SplineSet
332 711 m 1
 326 666 l 1
 311 673 281 682 266 682 c 0
 237 682 208 674 200 615 c 2
 185 511 l 1
 304 511 l 1
 298 465 l 1
 179 465 l 1
 103 -73 l 2
 92 -150 44 -184 -15 -184 c 0
 -40 -184 -65 -177 -80 -167 c 1
 -74 -122 l 1
 -59 -129 -29 -138 -14 -138 c 0
 15 -138 44 -130 52 -71 c 2
 128 465 l 1
 72 465 l 1
 78 511 l 1
 134 511 l 1
 149 617 l 2
 160 694 208 728 267 728 c 0
 292 728 317 721 332 711 c 1
EndSplineSet
EndChar

StartChar: sterling
Encoding: 163 163 274
Width: 597
Flags: MW
HStem: 0 48<67 168 209 533 67 168> 314 48<29 168 29 168 222 450> 652 48<322.5 399.5>
VStem: 168 54<277 314 277 314 277 314 362 518> 500 50<505 518 518 524 505 565.5>
LayerCount: 2
Fore
SplineSet
168 362 m 1
 168 524 l 2
 168 640 254 700 361 700 c 0
 468 700 550 640 550 524 c 2
 550 505 l 1
 500 505 l 1
 500 518 l 2
 500 613 438 652 361 652 c 0
 284 652 222 612 222 518 c 2
 222 362 l 1
 450 362 l 1
 450 314 l 1
 222 314 l 1
 222 277 l 1
 209 48 l 1
 533 48 l 1
 533 0 l 1
 67 0 l 1
 67 48 l 1
 168 48 l 1
 168 314 l 1
 29 314 l 1
 29 362 l 1
 168 362 l 1
EndSplineSet
EndChar

StartChar: yen
Encoding: 165 165 275
Width: 634
Flags: MW
HStem: 0 21G<272 326 272 272> 248 47<52 255 52 272 52 255 343 546> 384 49<52 174 52 203 52 174 423 546> 666 20G<26 89 89 89 517 572 572 572>
VStem: 272 54<0 248 0 248>
LayerCount: 2
Fore
SplineSet
174 433 m 1
 26 686 l 1
 89 686 l 1
 300 321 l 1
 303 321 l 1
 517 686 l 1
 572 686 l 1
 423 433 l 1
 546 433 l 1
 546 384 l 1
 395 384 l 1
 343 295 l 1
 546 295 l 1
 546 248 l 1
 326 248 l 1
 326 0 l 1
 272 0 l 1
 272 248 l 1
 52 248 l 1
 52 295 l 1
 255 295 l 1
 203 384 l 1
 52 384 l 1
 52 433 l 1
 174 433 l 1
EndSplineSet
EndChar

StartChar: Ohm
Encoding: 8486 8486 276
Width: 699
Flags: MW
HStem: 0 48<45 90 45 292 45 90 576 621> 648 48<275.5 392.5>
VStem: 45 247<0 29 0 48 0 48> 68 54<330 356 356 368> 374 247<0 29 29 29> 546 54<306 330 330 356 256 368 256 481.5>
LayerCount: 2
Fore
SplineSet
600 356 m 2xd4
 600 330 l 2
 600 182 563 94 505 44 c 1
 576 48 l 1xd4
 621 48 l 1
 621 0 l 1
 374 0 l 1xd8
 374 29 l 1
 472 41 546 106 546 306 c 2
 546 368 l 2
 546 595 451 648 334 648 c 0
 217 648 122 595 122 368 c 2
 122 306 l 2xd4
 122 106 195 42 292 29 c 1
 292 0 l 1
 45 0 l 1
 45 48 l 1
 90 48 l 1xe4
 163 44 l 1
 105 94 68 182 68 330 c 2
 68 356 l 2
 68 631 187 696 334 696 c 0
 481 696 600 631 600 356 c 2xd4
EndSplineSet
EndChar

StartChar: approxequal
Encoding: 8776 8776 277
Width: 615
Flags: MW
HStem: 83 60<383.5 473.5> 149 60<140.5 230.5 140.5 232> 285 60<383.5 473.5> 351 60<140.5 230.5 140.5 232>
VStem: 25 564<71 221 131 221 161 333 161 333>
LayerCount: 2
Fore
SplineSet
589 423 m 1
 589 363 l 1
 589 363 521 285 426 285 c 0xa8
 341 285 276 351 188 351 c 0
 93 351 25 273 25 273 c 1
 25 333 l 1
 25 333 93 411 188 411 c 0x58
 273 411 338 345 426 345 c 0
 521 345 589 423 589 423 c 1
589 221 m 1
 589 161 l 1
 589 161 521 83 426 83 c 0x98
 341 83 276 149 188 149 c 0
 93 149 25 71 25 71 c 1
 25 131 l 1
 25 131 93 209 188 209 c 0x58
 273 209 338 143 426 143 c 0
 521 143 589 221 589 221 c 1
EndSplineSet
EndChar

StartChar: asciitilde
Encoding: 126 126 278
Width: 689
Flags: MW
HStem: 236 60<422.5 512.5> 302 60<179.5 269.5 179.5 271>
VStem: 64 564<224 374 284 374>
LayerCount: 2
Fore
SplineSet
628 374 m 1
 628 314 l 1
 628 314 560 236 465 236 c 0xa0
 380 236 315 302 227 302 c 0
 132 302 64 224 64 224 c 1
 64 284 l 1
 64 284 132 362 227 362 c 0x60
 312 362 377 296 465 296 c 0
 560 296 628 374 628 374 c 1
EndSplineSet
EndChar

StartChar: bulletoperator
Encoding: 8729 8729 279
Width: 235
Flags: MW
HStem: 254 69<85 150 85 150>
VStem: 85 65<254 323 254 323>
LayerCount: 2
Fore
SplineSet
150 323 m 1
 150 254 l 1
 85 254 l 1
 85 323 l 1
 150 323 l 1
EndSplineSet
EndChar

StartChar: divide
Encoding: 247 247 280
Width: 615
Flags: MW
HStem: 71 69<274 339 274 339> 226 58<51 563 51 563> 370 69<274 339 274 339>
VStem: 274 65<71 140 71 140 370 439>
LayerCount: 2
Fore
SplineSet
339 439 m 1
 339 370 l 1
 274 370 l 1
 274 439 l 1
 339 439 l 1
51 284 m 1
 563 284 l 1
 563 226 l 1
 51 226 l 1
 51 284 l 1
339 140 m 1
 339 71 l 1
 274 71 l 1
 274 140 l 1
 339 140 l 1
EndSplineSet
EndChar

StartChar: divisionslash
Encoding: 8725 8725 281
Width: 476
Flags: MW
HStem: 0 21G<2 2 2 49> 666 20G<422 466 466 466>
VStem: 2 464
LayerCount: 2
Fore
SplineSet
2 0 m 1
 422 686 l 1
 466 686 l 1
 49 0 l 1
 2 0 l 1
EndSplineSet
EndChar

StartChar: equal
Encoding: 61 61 282
Width: 615
Flags: MW
HStem: 120 58<55 555 55 555> 328 58<55 555 55 555>
VStem: 55 500<120 178 120 178 328 386 120 386>
LayerCount: 2
Fore
SplineSet
55 386 m 1
 555 386 l 1
 555 328 l 1
 55 328 l 1
 55 386 l 1
55 178 m 1
 555 178 l 1
 555 120 l 1
 55 120 l 1
 55 178 l 1
EndSplineSet
EndChar

StartChar: greater
Encoding: 62 62 283
Width: 615
Flags: MW
HStem: 13 482<62 62>
VStem: 524 47<254 254>
LayerCount: 2
Fore
SplineSet
62 13 m 1
 62 75 l 1
 524 254 l 1
 62 433 l 1
 62 495 l 1
 571 298 l 1
 571 210 l 1
 62 13 l 1
EndSplineSet
EndChar

StartChar: greaterequal
Encoding: 8805 8805 284
Width: 615
Flags: MW
HStem: 0 57<56 566 56 566> 501 20G<56 56>
VStem: 518 47<300 300>
LayerCount: 2
Fore
SplineSet
56 79 m 1
 56 141 l 1
 518 300 l 1
 56 459 l 1
 56 521 l 1
 565 344 l 1
 565 256 l 1
 56 79 l 1
56 0 m 1
 56 57 l 1
 566 57 l 1
 566 0 l 1
 56 0 l 1
EndSplineSet
EndChar

StartChar: increment
Encoding: 8710 8710 285
Width: 701
Flags: MW
HStem: 0 55<131 569 131 634> 639 47<350 350>
VStem: 67 567<0 48 0 48>
LayerCount: 2
Fore
SplineSet
306 686 m 1
 394 686 l 1
 634 48 l 1
 634 0 l 1
 67 0 l 1
 67 48 l 1
 306 686 l 1
569 55 m 1
 350 639 l 1
 131 55 l 1
 569 55 l 1
EndSplineSet
EndChar

StartChar: infinity
Encoding: 8734 8734 286
Width: 764
Flags: MW
HStem: 126 43<157.5 222.5 157.5 223.5 530 589> 391 41<151.5 217.5 521 584>
VStem: 37 46<247.5 307 247.5 322.5> 657 46<251.5 313.5>
LayerCount: 2
Fore
SplineSet
703 282 m 0
 703 187 631 126 553 126 c 0
 490 126 441 167 371 245 c 1
 319 185 264 126 183 126 c 0
 104 126 37 193 37 278 c 0
 37 367 102 432 190 432 c 0
 265 432 322 374 374 313 c 1
 382 322 l 2
 432 377 482 432 560 432 c 0
 646 432 703 370 703 282 c 0
190 169 m 0
 255 169 305 233 347 276 c 1
 341 284 l 2
 298 336 252 391 183 391 c 0
 120 391 83 337 83 277 c 0
 83 218 125 169 190 169 c 0
555 391 m 0
 487 391 433 316 397 281 c 1
 464 208 503 169 557 169 c 0
 621 169 657 225 657 278 c 0
 657 349 613 391 555 391 c 0
EndSplineSet
EndChar

StartChar: integral
Encoding: 8747 8747 287
Width: 267
Flags: MW
HStem: -250 38<26 40 26 55> 712 38<201 215>
VStem: 83 73
LayerCount: 2
Fore
SplineSet
83 638 m 0
 83 719 157 750 215 750 c 1
 215 712 l 1
 187 712 127 691 127 646 c 2
 127 646 156 14 156 -138 c 0
 156 -222 84 -250 26 -250 c 1
 26 -212 l 1
 54 -212 111 -191 111 -144 c 2
 111 -144 83 486 83 638 c 0
EndSplineSet
EndChar

StartChar: less
Encoding: 60 60 288
Width: 615
Flags: MW
HStem: 13 482<553 553>
VStem: 44 47<254 254 254 298 254 298>
LayerCount: 2
Fore
SplineSet
553 495 m 1
 553 433 l 1
 91 254 l 1
 553 75 l 1
 553 13 l 1
 44 210 l 1
 44 298 l 1
 553 495 l 1
EndSplineSet
EndChar

StartChar: lessequal
Encoding: 8804 8804 289
Width: 615
Flags: MW
HStem: 0 57<49 559 49 559> 501 20G<559 559>
VStem: 50 47<300 300 300 344 300 344>
LayerCount: 2
Fore
SplineSet
559 521 m 1
 559 459 l 1
 97 300 l 1
 559 141 l 1
 559 79 l 1
 50 256 l 1
 50 344 l 1
 559 521 l 1
559 57 m 1
 559 0 l 1
 49 0 l 1
 49 57 l 1
 559 57 l 1
EndSplineSet
EndChar

StartChar: logicalnot
Encoding: 172 172 290
Width: 617
Flags: MW
HStem: 376 59<37 491 37 549>
VStem: 491 58<184 376 376 376>
LayerCount: 2
Fore
SplineSet
491 184 m 1
 491 376 l 1
 37 376 l 1
 37 435 l 1
 549 435 l 1
 549 184 l 1
 491 184 l 1
EndSplineSet
EndChar

StartChar: micro
Encoding: 181 181 291
Width: 612
Flags: MW
HStem: -10 46<244.5 305.5 504.5 510> 491 20G<82 133 133 133 434 485 485 485>
VStem: 82 51<-161 1 138 189 189 511> 434 51<57 69 69 76 197 511>
LayerCount: 2
Fore
SplineSet
277 36 m 0
 367 36 434 105 434 197 c 2
 434 511 l 1
 485 511 l 1
 485 69 l 2
 485 45 497 36 512 36 c 0
 527 36 547 43 562 52 c 1
 562 9 l 1
 544 -3 522 -10 498 -10 c 0
 449 -10 434 36 434 76 c 1
 399 22 339 -10 272 -10 c 0
 217 -10 159 9 127 51 c 1
 127 51 133 22 133 1 c 2
 133 -161 l 1
 82 -161 l 1
 82 511 l 1
 133 511 l 1
 133 189 l 2
 133 87 189 36 277 36 c 0
EndSplineSet
EndChar

StartChar: minus
Encoding: 8722 8722 292
Width: 615
Flags: MW
HStem: 226 57<51 562 51 562>
VStem: 51 511<226 283 226 283>
LayerCount: 2
Fore
SplineSet
562 283 m 1
 562 226 l 1
 51 226 l 1
 51 283 l 1
 562 283 l 1
EndSplineSet
EndChar

StartChar: multiply
Encoding: 215 215 293
Width: 615
Flags: MW
HStem: 54 403<140 140 140 460>
VStem: 99 403<95 416 416 416>
LayerCount: 2
Fore
SplineSet
461 457 m 1
 502 416 l 1
 341 255 l 1
 501 95 l 1
 460 54 l 1
 300 214 l 1
 140 54 l 1
 99 95 l 1
 259 255 l 1
 99 416 l 1
 140 457 l 1
 300 296 l 1
 461 457 l 1
EndSplineSet
EndChar

StartChar: notequal
Encoding: 8800 8800 294
Width: 615
Flags: MW
HStem: 0 178<98 169 98 98> 120 58<56 180 56 219 289 556 56 250> 328 58<56 322 56 361 430 556 56 391> 328 183<56 515 447 515 447 556 391 515>
VStem: 56 500<120 178 120 178 328 386 120 386>
LayerCount: 2
Fore
SplineSet
556 386 m 1x68
 556 328 l 1
 391 328 l 1
 289 178 l 1
 556 178 l 1
 556 120 l 1
 250 120 l 1x68
 169 0 l 1
 98 0 l 1xa8
 180 120 l 1
 56 120 l 1
 56 178 l 1
 219 178 l 1
 322 328 l 1
 56 328 l 1
 56 386 l 1
 361 386 l 1x68
 447 511 l 1
 515 511 l 1x58
 430 386 l 1
 556 386 l 1x68
EndSplineSet
EndChar

StartChar: partialdiff
Encoding: 8706 8706 295
Width: 565
Flags: MW
HStem: -10 48<201 297 201 312.5> 381 48<201 276 181 297> 648 48<177 257 177 258>
VStem: 28 54<157 205 205 214 157 274.5> 416 54<205 211 211 214 214 262 341 475>
LayerCount: 2
Fore
SplineSet
177 696 m 1
 258 696 l 2
 381 696 470 607 470 475 c 2
 470 211 l 2
 470 77 376 -10 249 -10 c 0
 122 -10 28 77 28 211 c 0
 28 338 121 429 241 429 c 0
 311 429 378 396 416 341 c 1
 416 481 l 2
 416 576 351 648 257 648 c 2
 177 648 l 1
 177 696 l 1
416 205 m 2
 416 214 l 2
 416 310 345 381 249 381 c 0
 153 381 82 310 82 214 c 2
 82 205 l 2
 82 109 153 38 249 38 c 0
 345 38 416 109 416 205 c 2
EndSplineSet
EndChar

StartChar: percent
Encoding: 37 37 296
Width: 699
Flags: MW
HStem: -1 46<518 563 518 577.5> 303 46<518 563> 336 46<128 173 128 187.5> 640 46<128 173>
VStem: 30 50<456 566 566 570> 220 50<452 456 456 566> 420 50<119 229 229 233> 610 50<115 119 119 229>
LayerCount: 2
Fore
SplineSet
270 566 m 2xbf
 270 456 l 2
 270 390 225 336 150 336 c 0
 75 336 30 390 30 456 c 2
 30 566 l 2
 30 632 75 686 150 686 c 0
 225 686 270 632 270 566 c 2xbf
108 0 m 1
 525 686 l 1
 584 686 l 1
 168 0 l 1
 108 0 l 1
220 452 m 2
 220 570 l 2
 220 609 196 640 150 640 c 0
 106 640 80 609 80 570 c 2
 80 452 l 2
 80 413 106 382 150 382 c 0
 196 382 220 413 220 452 c 2
660 229 m 2
 660 119 l 2
 660 53 615 -1 540 -1 c 0
 465 -1 420 53 420 119 c 2
 420 229 l 2
 420 295 465 349 540 349 c 0xdf
 615 349 660 295 660 229 c 2
610 115 m 2
 610 233 l 2
 610 272 586 303 540 303 c 0
 496 303 470 272 470 233 c 2
 470 115 l 2
 470 76 496 45 540 45 c 0
 586 45 610 76 610 115 c 2
EndSplineSet
EndChar

StartChar: perthousand
Encoding: 8240 8240 297
Width: 1033
Flags: MW
HStem: -1 46<521 566 521 580.5 850 895> 303 46<521 566 850 895> 336 46<131 176 131 190.5> 640 46<131 176>
VStem: 33 50<456 566 566 570> 223 50<452 456 456 566> 423 50<119 229 229 233> 613 50<115 119 119 229> 752 50<119 229 229 233> 942 50<115 119 119 229>
LayerCount: 2
Fore
SplineSet
273 566 m 2xdfc0
 273 456 l 2
 273 390 228 336 153 336 c 0xbd
 78 336 33 390 33 456 c 2
 33 566 l 2
 33 632 78 686 153 686 c 0
 228 686 273 632 273 566 c 2xdfc0
111 0 m 1
 528 686 l 1
 587 686 l 1
 171 0 l 1
 111 0 l 1
223 452 m 2
 223 570 l 2
 223 609 199 640 153 640 c 0
 109 640 83 609 83 570 c 2
 83 452 l 2
 83 413 109 382 153 382 c 0
 199 382 223 413 223 452 c 2
663 229 m 2
 663 119 l 2
 663 53 618 -1 543 -1 c 0
 468 -1 423 53 423 119 c 2
 423 229 l 2
 423 295 468 349 543 349 c 0xc3c0
 618 349 663 295 663 229 c 2
992 229 m 2
 992 119 l 2
 992 53 947 -1 872 -1 c 0
 797 -1 752 53 752 119 c 2
 752 229 l 2
 752 295 797 349 872 349 c 0
 947 349 992 295 992 229 c 2
613 115 m 2
 613 233 l 2
 613 272 589 303 543 303 c 0
 499 303 473 272 473 233 c 2
 473 115 l 2
 473 76 499 45 543 45 c 0
 589 45 613 76 613 115 c 2
942 115 m 2
 942 233 l 2
 942 272 918 303 872 303 c 0
 828 303 802 272 802 233 c 2
 802 115 l 2
 802 76 828 45 872 45 c 0
 918 45 942 76 942 115 c 2
EndSplineSet
EndChar

StartChar: plus
Encoding: 43 43 298
Width: 615
Flags: MW
HStem: 0 21G<278 336 278 278> 226 58<51 278 51 278 336 563> 491 20G<278 336 336 336>
VStem: 278 58<0 226 0 226 284 511>
LayerCount: 2
Fore
SplineSet
563 284 m 1
 563 226 l 1
 336 226 l 1
 336 0 l 1
 278 0 l 1
 278 226 l 1
 51 226 l 1
 51 284 l 1
 278 284 l 1
 278 511 l 1
 336 511 l 1
 336 284 l 1
 563 284 l 1
EndSplineSet
EndChar

StartChar: plusminus
Encoding: 177 177 299
Width: 615
Flags: MW
HStem: 0 58<57 557 57 557> 286 58<51 278 51 278 336 563> 286 225<51 336 278 563 278 336>
VStem: 278 58<120 286 120 286 344 511>
LayerCount: 2
Fore
SplineSet
563 344 m 1xd0
 563 286 l 1
 336 286 l 1
 336 120 l 1
 278 120 l 1
 278 286 l 1
 51 286 l 1
 51 344 l 1
 278 344 l 1xd0
 278 511 l 1
 336 511 l 1xb0
 336 344 l 1
 563 344 l 1xd0
57 58 m 1
 557 58 l 1
 557 0 l 1
 57 0 l 1
 57 58 l 1
EndSplineSet
EndChar

StartChar: product
Encoding: 8719 8719 300
Width: 749
Flags: MW
HStem: 647 48<24 138 24 665 194 495 194 194 551 551 551 665>
VStem: 138 56<-96 647 -96 647> 495 56<-96 647>
LayerCount: 2
Fore
SplineSet
551 -96 m 1
 495 -96 l 1
 495 647 l 1
 194 647 l 1
 194 -96 l 1
 138 -96 l 1
 138 647 l 1
 24 647 l 1
 24 695 l 1
 665 695 l 1
 665 647 l 1
 551 647 l 1
 551 -96 l 1
EndSplineSet
EndChar

StartChar: radical
Encoding: 8730 8730 301
Width: 566
Flags: MW
HStem: -146 951<226 508 226 508>
VStem: -23 531<321 805>
LayerCount: 2
Fore
SplineSet
226 -146 m 1
 65 307 l 1
 -9 279 l 1
 -23 321 l 1
 107 371 l 1
 238 0 l 2
 245 -27 251 -50 253 -67 c 1
 457 805 l 1
 508 805 l 1
 287 -146 l 1
 226 -146 l 1
EndSplineSet
EndChar

StartChar: summation
Encoding: 8721 8721 302
Width: 606
Flags: MW
HStem: -96 55<110 533 110 533> 647 48<128 518 128 128>
VStem: 27 506<-96 -65 -65 -65>
LayerCount: 2
Fore
SplineSet
27 -65 m 1
 311 302 l 1
 39 670 l 1
 39 695 l 1
 518 695 l 1
 518 647 l 1
 128 647 l 1
 128 643 l 1
 375 307 l 1
 109 -38 l 1
 110 -41 l 1
 533 -41 l 1
 533 -96 l 1
 27 -96 l 1
 27 -65 l 1
EndSplineSet
EndChar

StartChar: lozenge
Encoding: 9674 9674 303
Width: 490
Flags: MW
HStem: 0 47<235 235 235 279 191 235> 639 47<235 235>
VStem: 29 412<343 343>
LayerCount: 2
Fore
SplineSet
29 343 m 1
 191 686 l 1
 279 686 l 1
 441 343 l 1
 279 0 l 1
 191 0 l 1
 29 343 l 1
235 47 m 1
 379 343 l 1
 235 639 l 1
 91 343 l 1
 235 47 l 1
EndSplineSet
EndChar

StartChar: bar
Encoding: 124 124 305
Width: 248
Flags: MW
HStem: -199 919<84 136 84 136>
VStem: 84 52<-199 720 -199 720>
LayerCount: 2
Fore
SplineSet
84 720 m 1
 136 720 l 1
 136 -199 l 1
 84 -199 l 1
 84 720 l 1
EndSplineSet
EndChar

StartChar: brokenbar
Encoding: 166 166 306
Width: 269
Flags: MW
HStem: 0 21G<90 155 90 90> 0 262<90 155 90 155> 424 262<90 155 90 155> 666 20G<90 155 155 155>
VStem: 90 65<0 262 0 262 424 686>
LayerCount: 2
Fore
SplineSet
155 686 m 1x98
 155 424 l 1
 90 424 l 1x68
 90 686 l 1
 155 686 l 1x98
155 262 m 1
 155 0 l 1
 90 0 l 1
 90 262 l 1
 155 262 l 1
EndSplineSet
EndChar

StartChar: at
Encoding: 64 64 307
Width: 885
Flags: MW
HStem: -153 51<306.5 439.5> 22 43<370 437.5> 267 42<492 579> 478 43<410.5 496> 646 51<341 551.5>
VStem: 38 53<140.5 391 140.5 421> 243 51<124.5 208 124.5 226.5> 260 50<365 431.5> 579 49<91 105 105 115 234 267 267 267 309 370 370 379> 790 53<227 436>
LayerCount: 2
Fore
SplineSet
790 321 m 0xfec0
 790 551 651 646 452 646 c 0
 230 646 91 521 91 261 c 0
 91 20 195 -102 418 -102 c 0
 464 -102 547 -88 583 -70 c 1
 583 -126 l 1
 541 -142 461 -153 418 -153 c 0
 183 -153 38 -27 38 262 c 0
 38 580 229 697 453 697 c 0
 676 697 843 588 843 320 c 0
 843 97 741 23 669 23 c 0
 595 23 579 60 579 115 c 1
 538 49 477 22 398 22 c 0
 323 22 243 50 243 156 c 0xfec0
 243 297 384 309 579 309 c 1
 579 370 l 2
 579 452 542 478 450 478 c 0
 371 478 310 451 310 380 c 2
 310 365 l 1
 262 365 l 1
 261 373 260 381 260 389 c 0xfdc0
 260 474 344 521 450 521 c 0
 570 521 628 476 628 379 c 2
 628 105 l 2
 628 77 639 66 667 66 c 0
 731 66 790 133 790 321 c 0xfec0
579 234 m 2
 579 267 l 1
 405 267 294 260 294 156 c 0
 294 93 332 65 408 65 c 0
 491 65 579 117 579 234 c 2
EndSplineSet
EndChar

StartChar: ampersand
Encoding: 38 38 308
Width: 662
Flags: MW
HStem: 0 46<225.5 424 288 424 288 475> 329 46<240 424 293 424 293 424 475 594> 648 48<243.5 300> 668 20G<356 356>
VStem: 58 53<144.5 239> 72 54<467 558 465 571> 424 51<46 329 0 329 0 375>
LayerCount: 2
Fore
SplineSet
356 688 m 1xda
 356 638 l 1
 335 645 312 648 288 648 c 0
 199 648 126 605 126 511 c 0xe6
 126 419 204 375 293 375 c 2
 424 375 l 1
 442 538 l 1
 475 538 l 1
 475 375 l 1
 594 375 l 1
 594 329 l 1
 475 329 l 1
 475 0 l 1
 288 0 l 2
 163 0 58 71 58 192 c 0xea
 58 286 113 332 186 353 c 1
 186 355 l 1
 122 387 72 423 72 511 c 0
 72 631 169 696 288 696 c 0xe6
 312 696 335 693 356 688 c 1xda
424 329 m 1
 288 329 l 2
 192 329 111 291 111 191 c 0xea
 111 98 187 46 288 46 c 2
 424 46 l 1
 424 329 l 1
EndSplineSet
EndChar

StartChar: paragraph
Encoding: 182 182 309
Width: 524
Flags: MW
HStem: 637 49<264 336 264 264 388 454 388 388>
VStem: 212 52<-174 249 249 249> 336 52<-174 637 -174 637>
LayerCount: 2
Fore
SplineSet
212 -174 m 1
 212 249 l 1
 106 265 25 356 25 466 c 0
 25 601 123 686 244 686 c 2
 454 686 l 1
 454 637 l 1
 388 637 l 1
 388 -174 l 1
 336 -174 l 1
 336 637 l 1
 264 637 l 1
 264 -174 l 1
 212 -174 l 1
EndSplineSet
EndChar

StartChar: copyright
Encoding: 169 169 310
Width: 780
Flags: MW
HStem: -10 26<299.5 480 299.5 487.5> 129 36<360 430 360 438> 522 36<360 427.5> 670 26<299.5 480>
VStem: 36 26<253 434 253 441.5> 231 40<294 393 393 401> 517 36<394 401 401 442.5> 718 26<253 434>
LayerCount: 2
Fore
SplineSet
744 344 m 0
 744 147 585 -10 390 -10 c 0
 194 -10 36 147 36 344 c 0
 36 539 194 696 390 696 c 0
 585 696 744 539 744 344 c 0
718 344 m 0
 718 524 570 670 390 670 c 0
 209 670 62 524 62 344 c 0
 62 162 209 16 390 16 c 0
 570 16 718 162 718 344 c 0
517 394 m 1
 517 401 l 2
 517 484 461 522 394 522 c 0
 326 522 271 484 271 401 c 2
 271 287 l 2
 271 202 326 165 394 165 c 0
 466 165 518 207 518 292 c 1
 553 292 l 1
 553 177 482 129 394 129 c 0
 304 129 231 176 231 294 c 2
 231 393 l 2
 231 510 304 558 394 558 c 0
 482 558 553 509 553 394 c 1
 517 394 l 1
EndSplineSet
EndChar

StartChar: registered
Encoding: 174 174 311
Width: 780
Flags: MW
HStem: -10 26<299.5 480 299.5 487.5> 134 17<532.5 562> 328 35<295 420 295 425> 511 36<295 423 423 425 295 295> 670 26<299.5 480>
VStem: 36 26<253 434 253 441.5> 254 41<135 328 363 511> 493 38<207 267.5> 501 37<419 459> 718 26<253 434>
LayerCount: 2
Fore
SplineSet
744 344 m 0xff40
 744 147 585 -10 390 -10 c 0
 194 -10 36 147 36 344 c 0
 36 539 194 696 390 696 c 0
 585 696 744 539 744 344 c 0xff40
718 344 m 0
 718 524 570 670 390 670 c 0
 209 670 62 524 62 344 c 0
 62 162 209 16 390 16 c 0
 570 16 718 162 718 344 c 0
562 151 m 1
 562 137 l 1
 562 137 551 134 543 134 c 0
 522 134 493 145 493 215 c 0
 493 320 439 328 420 328 c 2xff40
 295 328 l 1
 295 135 l 1
 254 135 l 1
 254 547 l 1
 423 547 l 2
 483 547 538 506 538 443 c 0xfec0
 538 395 506 360 475 347 c 1
 475 343 l 1
 494 335 531 311 531 229 c 0
 531 185 531 163 562 151 c 1
295 363 m 1
 425 363 l 2
 467 363 501 397 501 438 c 0
 501 480 467 511 425 511 c 2xfec0
 295 511 l 1
 295 363 l 1
EndSplineSet
EndChar

StartChar: section
Encoding: 167 167 312
Width: 514
Flags: MW
HStem: -185 46<178 305.5> 650 46<179.5 307>
VStem: 38 51<237.5 301.5> 50 51<-57.5 -46 -46 -44 514 562> 384 51<-51 -3 -76 36 555 557 557 568.5> 396 51<209 273>
LayerCount: 2
Fore
SplineSet
447 243 m 0xd4
 447 175 415 137 344 100 c 1
 396 69 435 29 435 -35 c 0
 435 -117 374 -185 237 -185 c 0
 101 -185 50 -107 50 -47 c 0
 50 -41 51 -33 51 -33 c 1
 101 -33 l 1
 101 -46 l 2xd8
 101 -69 110 -139 246 -139 c 0
 378 -139 384 -65 384 -37 c 0
 384 109 38 108 38 268 c 0xe8
 38 335 69 373 140 411 c 1
 89 442 50 482 50 546 c 0
 50 628 111 696 248 696 c 0
 384 696 435 618 435 558 c 0
 435 552 434 544 434 544 c 1
 384 544 l 1
 384 557 l 2xd8
 384 580 375 650 239 650 c 0
 107 650 101 576 101 548 c 0
 101 402 447 403 447 243 c 0xd4
396 231 m 0
 396 315 273 343 174 392 c 1
 140 376 89 346 89 280 c 0xe8
 89 195 211 167 310 118 c 1
 344 134 396 165 396 231 c 0
EndSplineSet
EndChar

StartChar: trademark
Encoding: 8482 8482 313
Width: 897
Flags: MW
HStem: 648 38<46 175 46 345 217 217 217 345>
VStem: 175 42<289 648> 365 36<289 623 289 686> 732 43<289 627 627 627>
LayerCount: 2
Fore
SplineSet
217 289 m 1
 175 289 l 1
 175 648 l 1
 46 648 l 1
 46 686 l 1
 345 686 l 1
 345 648 l 1
 217 648 l 1
 217 289 l 1
732 289 m 1
 732 627 l 1
 684 517 628 398 580 289 c 1
 550 289 l 1
 401 623 l 1
 401 289 l 1
 365 289 l 1
 365 686 l 1
 422 686 l 1
 569 346 l 1
 719 686 l 1
 775 686 l 1
 775 289 l 1
 732 289 l 1
EndSplineSet
EndChar

StartChar: degree
Encoding: 176 176 314
Width: 394
Flags: MW
HStem: 396 43<167.5 226.5 167.5 238> 651 45<167.5 226.5>
VStem: 47 44<546 574.5 515.5 587> 303 44<515.5 574.5>
LayerCount: 2
Fore
SplineSet
347 546 m 0
 347 463 279 396 197 396 c 0
 114 396 48 463 47 546 c 0
 47 628 114 696 197 696 c 0
 279 696 347 628 347 546 c 0
91 545 m 0
 91 486 138 439 197 439 c 0
 256 439 303 486 303 545 c 0
 303 604 256 651 197 651 c 0
 138 651 91 604 91 545 c 0
EndSplineSet
EndChar

StartChar: estimated
Encoding: 8494 8494 315
Width: 768
Flags: MW
HStem: -10 45<347.5 438.5 347.5 445.5> 316 48<178 587 178 688 178 587> 651 45<340 428.5>
VStem: 80 98<364 367 367 470> 587 101<364 368 316 554>
LayerCount: 2
Fore
SplineSet
384 696 m 0
 566 696 688 573 688 368 c 2
 688 316 l 1
 178 316 l 1
 178 141 l 1
 224 72 301 35 394 35 c 0
 483 35 555 69 601 135 c 1
 639 105 l 1
 584 31 499 -10 392 -10 c 0
 207 -10 80 113 80 319 c 2
 80 367 l 2
 80 573 202 696 384 696 c 0
178 364 m 1
 587 364 l 1
 587 554 l 1
 543 617 472 651 385 651 c 0
 295 651 222 615 178 549 c 1
 178 364 l 1
EndSplineSet
EndChar

StartChar: literSign
Encoding: 8467 8467 316
Width: 468
Flags: MW
HStem: -10 46<226.5 259.5 226.5 264.5> 230 45<35 117 35 117> 655 45<228.5 284>
VStem: 117 51<131 133 133 230 230 230 276 510> 351 50<490 518 411 563.5>
LayerCount: 2
Fore
SplineSet
401 518 m 2
 401 490 l 2
 401 332 307 239 168 231 c 1
 168 133 l 2
 168 48 209 36 244 36 c 0
 275 36 313 45 337 52 c 1
 337 7 l 1
 315 -3 280 -10 249 -10 c 0
 172 -10 117 33 117 131 c 2
 117 230 l 1
 35 230 l 1
 35 275 l 1
 117 275 l 1
 117 512 l 2
 117 634 171 700 258 700 c 0
 343 700 401 636 401 518 c 2
168 510 m 2
 168 276 l 1
 275 284 351 358 351 490 c 2
 351 518 l 2
 351 609 311 655 257 655 c 0
 200 655 168 603 168 510 c 2
EndSplineSet
EndChar

StartChar: asciicircum
Encoding: 94 94 317
Width: 596
Flags: MW
HStem: 0 21G<49 111 49 49 469 531 469 469> 464 47<290 290>
VStem: 49 482<0 0>
LayerCount: 2
Fore
SplineSet
531 0 m 1
 469 0 l 1
 290 464 l 1
 111 0 l 1
 49 0 l 1
 246 511 l 1
 334 511 l 1
 531 0 l 1
EndSplineSet
EndChar

StartChar: dagger
Encoding: 8224 8224 318
Width: 510
Flags: MW
HStem: 454 56 666 20G<211 276 276 276>
VStem: 219 49
LayerCount: 2
Fore
SplineSet
276 -175 m 1
 211 -175 l 1
 227 462 l 1
 23 446 l 1
 23 510 l 1
 227 494 l 1
 211 686 l 1
 276 686 l 1
 260 494 l 1
 464 510 l 1
 464 446 l 1
 260 462 l 1
 276 -175 l 1
EndSplineSet
EndChar

StartChar: daggerdbl
Encoding: 8225 8225 319
Width: 533
Flags: MW
HStem: 0 56 454 56 666 20G<223 288 288 288>
VStem: 231 49
LayerCount: 2
Fore
SplineSet
476 0 m 1
 272 16 l 1
 288 -176 l 1
 223 -176 l 1
 239 16 l 1
 35 0 l 1
 35 64 l 1
 239 48 l 1
 223 256 l 1
 239 462 l 1
 35 446 l 1
 35 510 l 1
 239 494 l 1
 223 686 l 1
 288 686 l 1
 272 494 l 1
 476 510 l 1
 476 446 l 1
 272 462 l 1
 288 256 l 1
 272 48 l 1
 476 64 l 1
 476 0 l 1
EndSplineSet
EndChar

StartChar: acute
Encoding: 180 180 320
Width: 333
Flags: MW
HStem: 575 145<68 229 68 229>
VStem: 68 161<575 720>
LayerCount: 2
Fore
SplineSet
164 720 m 1
 229 720 l 1
 229 717 l 1
 118 575 l 1
 68 575 l 1
 164 720 l 1
EndSplineSet
EndChar

StartChar: breve
Encoding: 728 728 321
Width: 520
Flags: MW
HStem: 613 49<227.5 292.5 227.5 313.5>
VStem: 68 385<708.5 737>
LayerCount: 2
Fore
SplineSet
260 613 m 0
 154 613 68 680 68 737 c 1
 124 737 l 1
 140 687 195 662 260 662 c 0
 325 662 380 687 397 737 c 1
 453 737 l 1
 453 680 367 613 260 613 c 0
EndSplineSet
EndChar

StartChar: caron
Encoding: 711 711 322
Width: 536
Flags: MW
HStem: 575 145<92 284 92 226>
VStem: 92 326<720 720>
LayerCount: 2
Fore
SplineSet
152 720 m 1
 255 623 l 1
 358 720 l 1
 418 720 l 1
 284 575 l 1
 226 575 l 1
 92 720 l 1
 152 720 l 1
EndSplineSet
EndChar

StartChar: cedilla
Encoding: 184 184 323
Width: 350
Flags: MW
HStem: -197 46<135.5 157.5 122.5 171> -184 21G<70 70> -51 34<135 157 135 160>
VStem: 215 51<-118.5 -81.5>
LayerCount: 2
Fore
SplineSet
70 -184 m 1x70
 70 -138 l 1
 83 -145 106 -151 139 -151 c 0
 176 -151 215 -140 215 -97 c 0
 215 -66 184 -51 157 -51 c 2
 135 -51 l 1
 135 -17 l 1
 160 -17 l 2
 214 -17 266 -37 266 -106 c 0
 266 -179 194 -197 148 -197 c 0xb0
 123 -197 94 -193 70 -184 c 1x70
EndSplineSet
EndChar

StartChar: circumflex
Encoding: 710 710 324
Width: 536
Flags: MW
HStem: 575 145<92 284 92 284 226 418 226 358>
VStem: 92 326<575 575>
LayerCount: 2
Fore
SplineSet
284 720 m 1
 418 575 l 1
 358 575 l 1
 255 672 l 1
 152 575 l 1
 92 575 l 1
 226 720 l 1
 284 720 l 1
EndSplineSet
EndChar

StartChar: dieresis
Encoding: 168 168 325
Width: 440
Flags: MW
HStem: 651 69<81 146 81 146 257 322>
VStem: 81 65<651 720 651 720> 257 65<651 720 651 720>
LayerCount: 2
Fore
SplineSet
146 720 m 1
 146 651 l 1
 81 651 l 1
 81 720 l 1
 146 720 l 1
322 720 m 1
 322 651 l 1
 257 651 l 1
 257 720 l 1
 322 720 l 1
EndSplineSet
EndChar

StartChar: dotaccent
Encoding: 729 729 326
Width: 280
Flags: MW
HStem: 604 132<121.5 157.5>
VStem: 74 132<652 688 651 688.5>
LayerCount: 2
Fore
SplineSet
206 670 m 0
 206 632 176 604 139 604 c 0
 104 604 74 634 74 670 c 0
 74 707 103 736 140 736 c 0
 177 736 206 706 206 670 c 0
EndSplineSet
EndChar

StartChar: grave
Encoding: 96 96 327
Width: 333
Flags: MW
HStem: 575 145<68 229 68 179>
VStem: 68 161<575 720 575 720>
LayerCount: 2
Fore
SplineSet
68 717 m 1
 68 720 l 1
 133 720 l 1
 229 575 l 1
 179 575 l 1
 68 717 l 1
EndSplineSet
EndChar

StartChar: hungarumlaut
Encoding: 733 733 328
Width: 442
Flags: MW
HStem: 575 145<51 211 51 211 176 176 176 211 147 226>
VStem: 51 286<575 717>
LayerCount: 2
Fore
SplineSet
147 720 m 1
 211 720 l 1
 212 717 l 1
 101 575 l 1
 51 575 l 1
 147 720 l 1
272 720 m 1
 336 720 l 1
 337 717 l 1
 226 575 l 1
 176 575 l 1
 272 720 l 1
EndSplineSet
EndChar

StartChar: macron
Encoding: 175 175 329
Width: 460
Flags: MW
HStem: 692 44<71 389 71 389>
VStem: 71 318<692 736 692 736>
LayerCount: 2
Fore
SplineSet
71 736 m 1
 389 736 l 1
 389 692 l 1
 71 692 l 1
 71 736 l 1
EndSplineSet
EndChar

StartChar: ogonek
Encoding: 731 731 330
Width: 340
Flags: MW
HStem: -143 43<159.5 180.5> 0 21G<123 173 173 173>
VStem: 69 57<-75.5 -55>
LayerCount: 2
Fore
SplineSet
237 -86 m 1
 250 -119 l 1
 224 -135 195 -143 166 -143 c 0
 120 -143 69 -126 69 -71 c 0
 69 -39 99 -16 123 0 c 1
 173 0 l 1
 170 -2 l 2
 150 -16 126 -33 126 -60 c 0
 126 -91 149 -100 170 -100 c 0
 194 -100 216 -93 237 -86 c 1
EndSplineSet
EndChar

